<?xml version="1.0" encoding="utf-8"?>
<!-- Generator: Adobe Illustrator 21.0.0, SVG Export Plug-In . SVG Version: 6.00 Build 0)  -->
<svg version="1.1" id="Layer_1" xmlns="http://www.w3.org/2000/svg" xmlns:xlink="http://www.w3.org/1999/xlink" x="0px" y="0px"
	 viewBox="0 0 363 358" style="enable-background:new 0 0 363 358;" xml:space="preserve">
<style type="text/css">
	.st0{fill:#A7A9AC;}
	.st1{enable-background:new    ;}
	.st2{fill:#4A4A4A;}
	.st3{filter:url(#filter-1);}
	.st4{fill:#C8F2ED;}
	.st5{fill:#7FC8FD;}
	.st6{fill:#41D6C3;}
	.st7{fill:#5AAAFA;}
	.st8{fill:#C0E6FF;}
	.st9{fill:#4178BE;}
	.st10{fill:#008571;}
</style>
<filter  filterUnits="objectBoundingBox" height="200%" id="filter-1" width="200%" x="-50%" y="-50%">
	<feOffset  dx="0" dy="8" in="SourceAlpha" result="shadowOffsetOuter1"></feOffset>
	<feGaussianBlur  in="shadowOffsetOuter1" result="shadowBlurOuter1" stdDeviation="9"></feGaussianBlur>
	
		<feColorMatrix  in="shadowBlurOuter1" result="shadowMatrixOuter1" type="matrix" values="0 0 0 0 0.254901961   0 0 0 0 0.470588235   0 0 0 0 0.745098039  0 0 0 0.25 0">
		</feColorMatrix>
	<feMerge>
		<feMergeNode  in="shadowMatrixOuter1"></feMergeNode>
		<feMergeNode  in="SourceGraphic"></feMergeNode>
	</feMerge>
</filter>
<title>Benefits_Icon_02</title>
<desc>Created with Sketch.</desc>
<g id="Dev-Center---Home">
	<g id="Dev_Center_Final_Hover" transform="translate(-318.000000, -1424.000000)">
		<g id="Benefits_Icon_02" transform="translate(284.000000, 1417.000000)">
			<ellipse id="Oval-4-Copy-4" class="st0" cx="212.9" cy="340.9" rx="4.1" ry="4.1"/>
			<g class="st1">
				<path class="st2" d="M167.2,349.9h3.7l2.8,8.2h0l2.6-8.2h3.7v11.9h-2.4v-8.4h0l-2.9,8.4h-2l-2.9-8.3h0v8.3h-2.4V349.9z"/>
				<path class="st2" d="M181.6,355.8c0.1-2.2,2.1-2.9,4-2.9c1.7,0,3.8,0.4,3.8,2.4v4.5c0,0.8,0.1,1.6,0.3,1.9h-2.4
					c-0.1-0.3-0.1-0.5-0.2-0.8c-0.7,0.8-1.8,1.1-2.9,1.1c-1.6,0-2.9-0.8-2.9-2.6c0-3.9,5.8-1.8,5.7-3.7c0-1-0.7-1.2-1.5-1.2
					c-0.9,0-1.5,0.4-1.6,1.3H181.6z M187.1,357.5c-0.4,0.3-1.2,0.4-2,0.5s-1.4,0.4-1.4,1.3s0.7,1.1,1.4,1.1c1.8,0,1.9-1.4,1.9-2
					V357.5z"/>
				<path class="st2" d="M191,353.1h2.2v1.2h0c0.6-1,1.6-1.4,2.6-1.4c2.5,0,3.1,1.4,3.1,3.5v5.3h-2.4v-4.8c0-1.4-0.4-2.1-1.5-2.1
					c-1.3,0-1.8,0.7-1.8,2.5v4.5H191V353.1z"/>
				<path class="st2" d="M200.5,355.8c0.1-2.2,2.1-2.9,4-2.9c1.7,0,3.8,0.4,3.8,2.4v4.5c0,0.8,0.1,1.6,0.3,1.9h-2.4
					c-0.1-0.3-0.1-0.5-0.2-0.8c-0.7,0.8-1.8,1.1-2.9,1.1c-1.6,0-2.9-0.8-2.9-2.6c0-3.9,5.8-1.8,5.7-3.7c0-1-0.7-1.2-1.5-1.2
					c-0.9,0-1.5,0.4-1.6,1.3H200.5z M205.9,357.5c-0.4,0.3-1.2,0.4-2,0.5s-1.4,0.4-1.4,1.3s0.7,1.1,1.4,1.1c1.8,0,1.9-1.4,1.9-2
					V357.5z"/>
				<path class="st2" d="M218.1,361.2c0,1.4-0.5,3.8-4.4,3.8c-1.7,0-3.7-0.8-3.8-2.8h2.3c0.2,0.9,0.9,1.2,1.8,1.2
					c1.3,0,1.9-0.9,1.9-2.1v-1.1h0c-0.5,0.9-1.5,1.3-2.6,1.3c-2.6,0-3.7-2-3.7-4.3c0-2.2,1.3-4.2,3.7-4.2c1.1,0,2,0.4,2.6,1.4h0
					v-1.1h2.2V361.2z M215.8,357.3c0-1.4-0.5-2.6-2-2.6c-1.3,0-1.9,1.2-1.9,2.4c0,1.2,0.4,2.6,1.9,2.6
					C215.2,359.7,215.8,358.6,215.8,357.3z"/>
				<path class="st2" d="M219.7,353.1h2.2v1.2h0c0.6-0.9,1.5-1.4,2.6-1.4c1.1,0,2,0.4,2.5,1.4c0.5-0.7,1.4-1.4,2.6-1.4
					c1.8,0,3.1,0.8,3.1,3.1v5.7h-2.4v-4.9c0-1.1-0.1-2.1-1.4-2.1c-1.3,0-1.6,1.1-1.6,2.2v4.8H225v-4.8c0-1,0.1-2.1-1.4-2.1
					c-0.5,0-1.6,0.3-1.6,2v5h-2.4V353.1z"/>
				<path class="st2" d="M236.4,358c0.1,1.5,0.8,2.2,2.1,2.2c0.9,0,1.7-0.6,1.9-1.1h2.1c-0.7,2-2.1,2.9-4,2.9
					c-2.7,0-4.4-1.9-4.4-4.5c0-2.6,1.8-4.5,4.4-4.5c2.9,0,4.3,2.5,4.2,5.1H236.4z M240.2,356.5c-0.2-1.2-0.7-1.8-1.9-1.8
					c-1.5,0-1.9,1.2-2,1.8H240.2z"/>
				<path class="st2" d="M243.8,353.1h2.2v1.2h0.1c0.6-1,1.6-1.4,2.6-1.4c2.5,0,3.1,1.4,3.1,3.5v5.3h-2.4v-4.8
					c0-1.4-0.4-2.1-1.5-2.1c-1.3,0-1.8,0.7-1.8,2.5v4.5h-2.4V353.1z"/>
				<path class="st2" d="M256.4,353.1h1.7v1.6h-1.7v4.2c0,0.8,0.2,1,1,1c0.3,0,0.5,0,0.7-0.1v1.8c-0.4,0.1-0.9,0.1-1.4,0.1
					c-1.5,0-2.7-0.3-2.7-2v-5.1h-1.4v-1.6h1.4v-2.6h2.4V353.1z"/>
			</g>
			<g id="Group-13" transform="translate(325.000000, 221.000000)">
				<ellipse id="Oval-4-Copy-6" class="st0" cx="4.9" cy="22.7" rx="4.1" ry="4.1"/>
				<g class="st1">
					<path class="st2" d="M20.4,17.8c0,1.6,1.2,2.2,2.6,2.2c0.9,0,2.3-0.3,2.3-1.5c0-1.3-1.8-1.5-3.5-2c-1.8-0.4-3.5-1.2-3.5-3.4
						c0-2.4,2.3-3.6,4.4-3.6c2.5,0,4.7,1.1,4.7,3.8H25c-0.1-1.4-1.1-1.8-2.3-1.8c-0.8,0-1.8,0.3-1.8,1.3c0,0.9,0.6,1,3.5,1.8
						c0.9,0.2,3.5,0.8,3.5,3.5c0,2.2-1.7,3.8-4.9,3.8c-2.6,0-5.1-1.3-5-4.2H20.4z"/>
					<path class="st2" d="M34.7,16.1c-0.1-1-0.7-1.5-1.7-1.5c-1.5,0-2,1.5-2,2.8c0,1.2,0.5,2.7,2,2.7c1.1,0,1.7-0.7,1.9-1.7h2.3
						c-0.3,2.3-1.9,3.5-4.1,3.5c-2.6,0-4.3-1.8-4.3-4.4c0-2.7,1.6-4.6,4.4-4.6c2,0,3.9,1.1,4,3.3H34.7z"/>
					<path class="st2" d="M38,15.8c0.1-2.2,2.1-2.9,4-2.9c1.7,0,3.8,0.4,3.8,2.4v4.5c0,0.8,0.1,1.6,0.3,1.9h-2.4
						c-0.1-0.3-0.1-0.5-0.2-0.8c-0.7,0.8-1.8,1.1-2.9,1.1c-1.6,0-2.9-0.8-2.9-2.6c0-3.9,5.8-1.8,5.7-3.7c0-1-0.7-1.2-1.5-1.2
						c-0.9,0-1.5,0.4-1.6,1.3H38z M43.5,17.5c-0.4,0.3-1.2,0.4-2,0.5s-1.4,0.4-1.4,1.3s0.7,1.1,1.4,1.1c1.8,0,1.9-1.4,1.9-2V17.5z"
						/>
					<path class="st2" d="M47.5,9.8h2.4v11.9h-2.4V9.8z"/>
					<path class="st2" d="M53.4,18c0.1,1.5,0.8,2.2,2.1,2.2c0.9,0,1.7-0.6,1.9-1.1h2.1c-0.7,2-2.1,2.9-4,2.9c-2.7,0-4.4-1.9-4.4-4.5
						c0-2.6,1.8-4.5,4.4-4.5c2.9,0,4.3,2.5,4.2,5.1H53.4z M57.3,16.5c-0.2-1.2-0.7-1.8-1.9-1.8c-1.5,0-1.9,1.2-2,1.8H57.3z"/>
				</g>
			</g>
			<circle id="Oval-4-Copy-3" class="st0" cx="94.6" cy="245.5" r="4.1"/>
			<g class="st1">
				<path class="st2" d="M47.9,233.6h8.3v2.2h-5.7v2.7h5v2h-5v4.9h-2.6V233.6z"/>
				<path class="st2" d="M57.3,239.5c0.1-2.2,2.1-2.9,4-2.9c1.7,0,3.8,0.4,3.8,2.4v4.5c0,0.8,0.1,1.6,0.3,1.9H63
					c-0.1-0.3-0.1-0.5-0.2-0.8c-0.7,0.8-1.8,1.1-2.9,1.1c-1.6,0-2.9-0.8-2.9-2.6c0-3.9,5.8-1.8,5.7-3.7c0-1-0.7-1.2-1.5-1.2
					c-0.9,0-1.5,0.4-1.6,1.3H57.3z M62.7,241.2c-0.4,0.3-1.2,0.4-2,0.5s-1.4,0.4-1.4,1.3s0.7,1.1,1.4,1.1c1.8,0,1.9-1.4,1.9-2V241.2
					z"/>
				<path class="st2" d="M68.5,242.6c0,1,0.9,1.4,1.8,1.4c0.7,0,1.5-0.3,1.5-1.1c0-0.7-1-1-2.7-1.3c-1.4-0.3-2.7-0.8-2.7-2.3
					c0-2.2,1.9-2.8,3.7-2.8c1.9,0,3.6,0.6,3.8,2.7h-2.2c-0.1-0.9-0.8-1.2-1.6-1.2c-0.5,0-1.3,0.1-1.3,0.8c0,0.8,1.3,1,2.7,1.3
					c1.4,0.3,2.7,0.8,2.7,2.4c0,2.3-2,3-3.9,3c-2,0-4-0.7-4-3H68.5z"/>
				<path class="st2" d="M78.3,236.8H80v1.6h-1.7v4.2c0,0.8,0.2,1,1,1c0.3,0,0.5,0,0.7-0.1v1.8c-0.4,0.1-0.9,0.1-1.4,0.1
					c-1.5,0-2.7-0.3-2.7-2v-5.1h-1.4v-1.6h1.4v-2.6h2.4V236.8z"/>
			</g>
			<ellipse id="Oval-4-Copy" class="st0" cx="212.9" cy="39.7" rx="4.1" ry="4.1"/>
			<g class="st1">
				<path class="st2" d="M183.6,9.4h5.1c3.1,0,5.4,1.9,5.4,5.9c0,3.4-1.8,6-5.4,6h-5.1V9.4z M186.2,19.1h2.3c1.5,0,3-0.9,3-3.6
					c0-2.4-0.8-3.9-3.4-3.9h-1.9V19.1z"/>
				<path class="st2" d="M197.4,17.6c0.1,1.5,0.8,2.2,2.1,2.2c0.9,0,1.7-0.6,1.9-1.1h2.1c-0.7,2-2.1,2.9-4,2.9
					c-2.7,0-4.4-1.9-4.4-4.5c0-2.6,1.8-4.5,4.4-4.5c2.9,0,4.3,2.5,4.2,5.1H197.4z M201.2,16.1c-0.2-1.2-0.7-1.8-1.9-1.8
					c-1.5,0-1.9,1.2-2,1.8H201.2z"/>
				<path class="st2" d="M209.6,21.3h-2.6l-2.9-8.6h2.5l1.8,5.9h0l1.8-5.9h2.3L209.6,21.3z"/>
				<path class="st2" d="M218.7,9.2c3.7,0,5.8,2.7,5.8,6.3c0,3.4-2.2,6.2-5.8,6.2c-3.7,0-5.8-2.7-5.8-6.2
					C212.9,11.9,215.1,9.2,218.7,9.2z M218.7,19.4c2.3,0,3.2-2,3.2-4c0-2.1-0.9-4.1-3.2-4.1s-3.2,2-3.2,4.1
					C215.5,17.4,216.4,19.4,218.7,19.4z"/>
				<path class="st2" d="M225.8,12.7h2.2v1.1h0c0.6-0.9,1.5-1.3,2.6-1.3c2.7,0,3.9,2.2,3.9,4.6c0,2.3-1.2,4.4-3.8,4.4
					c-1,0-2-0.4-2.6-1.3h0v4.1h-2.4V12.7z M232.1,17c0-1.4-0.5-2.8-2.1-2.8c-1.5,0-2,1.4-2,2.8s0.5,2.7,2.1,2.7
					C231.6,19.7,232.1,18.4,232.1,17z"/>
				<path class="st2" d="M237.5,18.5c0,1,0.9,1.4,1.8,1.4c0.7,0,1.5-0.3,1.5-1.1c0-0.7-1-1-2.7-1.3c-1.4-0.3-2.7-0.8-2.7-2.3
					c0-2.2,1.9-2.8,3.7-2.8c1.9,0,3.6,0.6,3.8,2.7h-2.2c-0.1-0.9-0.8-1.2-1.6-1.2c-0.5,0-1.3,0.1-1.3,0.8c0,0.8,1.3,1,2.7,1.3
					c1.4,0.3,2.7,0.8,2.7,2.4c0,2.3-2,3-3.9,3c-2,0-4-0.7-4-3H237.5z"/>
			</g>
			<ellipse id="Oval-4-Copy-2" class="st0" cx="94.6" cy="137.6" rx="4.1" ry="4.1"/>
			<g class="st1">
				<path class="st2" d="M36.9,132.7c0,1.6,1.2,2.2,2.6,2.2c0.9,0,2.3-0.3,2.3-1.5c0-1.3-1.8-1.5-3.5-2c-1.8-0.4-3.5-1.2-3.5-3.4
					c0-2.4,2.3-3.6,4.4-3.6c2.5,0,4.7,1.1,4.7,3.8h-2.5c-0.1-1.4-1.1-1.8-2.3-1.8c-0.8,0-1.8,0.3-1.8,1.3c0,0.9,0.6,1,3.5,1.8
					c0.9,0.2,3.5,0.8,3.5,3.5c0,2.2-1.7,3.8-4.9,3.8c-2.6,0-5.1-1.3-5-4.2H36.9z"/>
				<path class="st2" d="M45.4,128h2.2v1.2h0c0.6-0.9,1.5-1.4,2.6-1.4c1.1,0,2,0.4,2.5,1.4c0.5-0.7,1.4-1.4,2.6-1.4
					c1.8,0,3.1,0.8,3.1,3.1v5.7h-2.4v-4.9c0-1.1-0.1-2.1-1.4-2.1c-1.3,0-1.6,1.1-1.6,2.2v4.8h-2.4v-4.8c0-1,0.1-2.1-1.4-2.1
					c-0.5,0-1.6,0.3-1.6,2v5h-2.4V128z"/>
				<path class="st2" d="M60,130.7c0.1-2.2,2.1-2.9,4-2.9c1.7,0,3.8,0.4,3.8,2.4v4.5c0,0.8,0.1,1.6,0.3,1.9h-2.4
					c-0.1-0.3-0.1-0.5-0.2-0.8c-0.7,0.8-1.8,1.1-2.9,1.1c-1.6,0-2.9-0.8-2.9-2.6c0-3.9,5.8-1.8,5.7-3.7c0-1-0.7-1.2-1.5-1.2
					c-0.9,0-1.5,0.4-1.6,1.3H60z M65.4,132.4c-0.4,0.3-1.2,0.4-2,0.5s-1.4,0.4-1.4,1.3s0.7,1.1,1.4,1.1c1.8,0,1.9-1.4,1.9-2V132.4z"
					/>
				<path class="st2" d="M69.4,128h2.2v1.6h0c0.4-1.1,1.6-1.8,2.7-1.8c0.2,0,0.3,0,0.5,0.1v2.2c-0.2,0-0.6-0.1-0.8-0.1
					c-1.7,0-2.3,1.2-2.3,2.8v3.9h-2.4V128z"/>
				<path class="st2" d="M78.5,128h1.7v1.6h-1.7v4.2c0,0.8,0.2,1,1,1c0.3,0,0.5,0,0.7-0.1v1.8c-0.4,0.1-0.9,0.1-1.4,0.1
					c-1.5,0-2.7-0.3-2.7-2v-5.1h-1.4V128h1.4v-2.6h2.4V128z"/>
			</g>
			<ellipse id="Oval-4-Copy-5" class="st0" cx="329.9" cy="134.2" rx="4.1" ry="4.1"/>
			<g class="st1">
				<path class="st2" d="M345.4,129.2c0,1.6,1.2,2.2,2.6,2.2c0.9,0,2.3-0.3,2.3-1.5c0-1.3-1.8-1.5-3.5-2c-1.8-0.4-3.5-1.2-3.5-3.4
					c0-2.4,2.3-3.6,4.4-3.6c2.5,0,4.7,1.1,4.7,3.8H350c-0.1-1.4-1.1-1.8-2.3-1.8c-0.8,0-1.8,0.3-1.8,1.3c0,0.9,0.6,1,3.5,1.8
					c0.9,0.2,3.5,0.8,3.5,3.5c0,2.2-1.7,3.8-4.9,3.8c-2.6,0-5.1-1.3-5-4.2H345.4z"/>
				<path class="st2" d="M355.9,129.4c0.1,1.5,0.8,2.2,2.1,2.2c0.9,0,1.7-0.6,1.9-1.1h2.1c-0.7,2-2.1,2.9-4,2.9
					c-2.7,0-4.4-1.9-4.4-4.5c0-2.6,1.8-4.5,4.4-4.5c2.9,0,4.3,2.5,4.2,5.1H355.9z M359.7,127.9c-0.2-1.2-0.7-1.8-1.9-1.8
					c-1.5,0-1.9,1.2-2,1.8H359.7z"/>
				<path class="st2" d="M369.1,127.6c-0.1-1-0.7-1.5-1.7-1.5c-1.5,0-2,1.5-2,2.8c0,1.2,0.5,2.7,2,2.7c1.1,0,1.7-0.7,1.9-1.7h2.3
					c-0.3,2.3-1.9,3.5-4.1,3.5c-2.6,0-4.3-1.8-4.3-4.4c0-2.7,1.6-4.6,4.4-4.6c2,0,3.9,1.1,4,3.3H369.1z"/>
				<path class="st2" d="M380.6,133.1h-2.2v-1.2h0c-0.6,1-1.6,1.4-2.6,1.4c-2.5,0-3.1-1.4-3.1-3.5v-5.3h2.4v4.8
					c0,1.4,0.4,2.1,1.5,2.1c1.3,0,1.8-0.7,1.8-2.5v-4.5h2.4V133.1z"/>
				<path class="st2" d="M382.1,124.6h2.2v1.6h0c0.4-1.1,1.6-1.8,2.7-1.8c0.2,0,0.3,0,0.5,0.1v2.2c-0.2,0-0.6-0.1-0.8-0.1
					c-1.7,0-2.3,1.2-2.3,2.8v3.9h-2.4V124.6z"/>
				<path class="st2" d="M390.3,129.4c0.1,1.5,0.8,2.2,2.1,2.2c0.9,0,1.7-0.6,1.9-1.1h2.1c-0.7,2-2.1,2.9-4,2.9
					c-2.7,0-4.4-1.9-4.4-4.5c0-2.6,1.8-4.5,4.4-4.5c2.9,0,4.3,2.5,4.2,5.1H390.3z M394.2,127.9c-0.2-1.2-0.7-1.8-1.9-1.8
					c-1.5,0-1.9,1.2-2,1.8H394.2z"/>
			</g>
			<g id="Benefits_MF_Icon" transform="translate(107.021714, 43.948329)">
				<g id="Page-1" transform="translate(0.021714, 0.948329)" class="st3">
					<polygon id="Fill-1_1_" class="st4" points="0,192.4 105.5,282.7 211,192.4 105.5,102.1 					"/>
					<polygon id="Fill-2_1_" class="st5" points="0,192.4 105.5,282.7 105.5,189.6 0,99.3 					"/>
					<polygon id="Fill-3_1_" class="st6" points="105.5,102.1 211,192.4 211,99.3 105.5,9 					"/>
					<polygon id="Fill-4_1_" class="st7" points="0,99.3 0,192.4 105.5,102.1 105.5,9 					"/>
					<polygon id="Fill-5_1_" class="st8" points="105.5,189.6 105.5,282.7 211,192.4 211,99.3 					"/>
					<polygon id="Fill-6_1_" class="st9" points="0,99.3 0,192.4 0,192.4 54.4,145.9 0,99.3 					"/>
					<polygon id="Fill-7_1_" class="st10" points="156.6,145.9 211,192.4 211,192.4 211,99.3 211,99.3 					"/>
				</g>
			</g>
		</g>
	</g>
</g>
</svg>
