<svg xmlns="http://www.w3.org/2000/svg" viewBox="0 0 203.3 242.8"><defs><style>.a{fill:#666;}.b,.d{fill:#41d6c3;}.b{opacity:0.3;}.c{fill:#7fc8fd;}.e{fill:#5aaafa;}.f{fill:#c0e6ff;}.g{fill:#4178be;}.h{fill:#008571;}</style></defs><title>Asset 3</title><path class="a" d="M5.4,210V188.9h2V210Z" transform="translate(-5.4)"/><path class="a" d="M12.2,210V188.9h7.6a11.5,11.5,0,0,1,3.2.4,5.8,5.8,0,0,1,2.2,1.1,4.1,4.1,0,0,1,1.2,1.7,5.9,5.9,0,0,1,.4,2.2,5.6,5.6,0,0,1-.3,1.9,4.3,4.3,0,0,1-.8,1.3,3.5,3.5,0,0,1-1.1.9l-1.2.4h0a4.8,4.8,0,0,1,3.3,1.7,5.6,5.6,0,0,1,1.1,3.5,6.8,6.8,0,0,1-.5,2.8,4.8,4.8,0,0,1-1.4,1.8,5.7,5.7,0,0,1-2.2,1,11.8,11.8,0,0,1-2.8.3Zm2-11.8h5a11,11,0,0,0,2.6-.3,4.4,4.4,0,0,0,1.7-.8,2.9,2.9,0,0,0,.9-1.3,4.9,4.9,0,0,0,.3-1.7,4,4,0,0,0-.3-1.7,2.6,2.6,0,0,0-1-1.1,5.3,5.3,0,0,0-1.8-.6l-2.8-.2H14.2Zm0,10.1h7.9a5.3,5.3,0,0,0,2-.6,2.9,2.9,0,0,0,1.2-1.3,5.2,5.2,0,0,0,.4-2.2,4.4,4.4,0,0,0-.4-2.1,3,3,0,0,0-1.3-1.2,5.9,5.9,0,0,0-2-.6l-2.6-.2H14.2Z" transform="translate(-5.4)"/><path class="a" d="M31.1,210V188.9h3.1l6.9,18.6h.1L48,188.9h3V210H49V191.2h-.1L42,210H40.1l-7-18.8h-.1V210Z" transform="translate(-5.4)"/><path class="a" d="M76.5,188.9h6.3V210H78.7V195.7q0-.6,0-1.7c0-.7,0-1.3,0-1.7l-4,17.7H70.5l-4-17.7q0,.6,0,1.7t0,1.7V210H62.4V188.9h6.4l3.8,16.6Z" transform="translate(-5.4)"/><path class="a" d="M99.2,208.1q-2,2.4-6,2.4t-6-2.4a9.7,9.7,0,0,1,0-11.7q2-2.5,6-2.5t6,2.5a9.7,9.7,0,0,1,0,11.7Zm-3.3-2.3a7.3,7.3,0,0,0,0-7.2,3.6,3.6,0,0,0-5.5,0,7.2,7.2,0,0,0,0,7.2,3.6,3.6,0,0,0,5.5,0Z" transform="translate(-5.4)"/><path class="a" d="M117,196.3a9,9,0,0,1,1.8,5.7,10,10,0,0,1-1.7,6,6.3,6.3,0,0,1-7.9,1.6,6.2,6.2,0,0,1-1.5-1.6v2h-4V188.9h4.1v7.5a6,6,0,0,1,1.7-1.7,5.1,5.1,0,0,1,2.8-.7A5.8,5.8,0,0,1,117,196.3Zm-3.4,9.5a5.8,5.8,0,0,0,.9-3.4,7.5,7.5,0,0,0-.4-2.8,3,3,0,0,0-3-2.1,3.1,3.1,0,0,0-3.1,2,7.5,7.5,0,0,0-.4,2.8,5.8,5.8,0,0,0,.9,3.3,3.1,3.1,0,0,0,2.7,1.3A2.8,2.8,0,0,0,113.6,205.8Z" transform="translate(-5.4)"/><path class="a" d="M125.3,192.5h-4.1v-3.8h4.1Zm-4.1,1.9h4.1V210h-4.1Z" transform="translate(-5.4)"/><path class="a" d="M131.8,210h-4.1V188.9h4.1Z" transform="translate(-5.4)"/><path class="a" d="M145.5,194.7a6.3,6.3,0,0,1,2.7,2.3,7.7,7.7,0,0,1,1.2,3.2,20.1,20.1,0,0,1,.1,3.1H138.3a3.7,3.7,0,0,0,1.6,3.3,4.1,4.1,0,0,0,2.3.6,3.2,3.2,0,0,0,3.1-1.8h4.2a5.1,5.1,0,0,1-1.5,2.8,7.6,7.6,0,0,1-5.9,2.3,8.5,8.5,0,0,1-5.5-1.9q-2.4-1.9-2.4-6.3a8.5,8.5,0,0,1,2.2-6.2,7.5,7.5,0,0,1,5.6-2.2A8.9,8.9,0,0,1,145.5,194.7Zm-6.1,3.5a4.2,4.2,0,0,0-1.1,2.4h7a3.4,3.4,0,0,0-1.1-2.5,3.6,3.6,0,0,0-2.4-.8A3.2,3.2,0,0,0,139.4,198.2Z" transform="translate(-5.4)"/><path class="a" d="M151,188.9H166v3.7H155.4v4.9h9.4v3.7h-9.4V210H151Z" transform="translate(-5.4)"/><path class="a" d="M172.3,192.5h-4.1v-3.8h4.1Zm-4.1,1.9h4.1V210h-4.1Z" transform="translate(-5.4)"/><path class="a" d="M183.9,194h.4v4.2h-1.2q-2.5,0-3.3,1.6a6.2,6.2,0,0,0-.5,2.8V210h-4.1V194.4h3.9v2.7a8.6,8.6,0,0,1,1.6-2.1,4.5,4.5,0,0,1,3-1Z" transform="translate(-5.4)"/><path class="a" d="M188.8,205a2.7,2.7,0,0,0,.6,1.5,3.8,3.8,0,0,0,2.8.8,4.3,4.3,0,0,0,1.9-.4,1.2,1.2,0,0,0,.1-2.1,23.5,23.5,0,0,0-4.3-1.2,8.9,8.9,0,0,1-3.7-1.6,3.6,3.6,0,0,1-1.1-2.8,4.9,4.9,0,0,1,1.7-3.7,6.8,6.8,0,0,1,4.8-1.6,8.8,8.8,0,0,1,4.8,1.2,5,5,0,0,1,2.1,4h-4.1a2.4,2.4,0,0,0-.4-1.2,2.8,2.8,0,0,0-2.3-.8,3.3,3.3,0,0,0-1.9.4,1.2,1.2,0,0,0-.6,1,1.1,1.1,0,0,0,.6,1,26.1,26.1,0,0,0,4.3,1.1,7.8,7.8,0,0,1,3.7,1.7,3.9,3.9,0,0,1,1.2,2.9,4.7,4.7,0,0,1-1.7,3.8q-1.7,1.5-5.3,1.5t-5.4-1.6a5,5,0,0,1-1.8-4Z" transform="translate(-5.4)"/><path class="a" d="M199.9,197.4v-2.9h2.2v-4.4h4v4.4h2.5v2.9h-2.5v8.3a1.9,1.9,0,0,0,.2,1.2,2.7,2.7,0,0,0,1.5.2h.8v3.1h-1.9q-2.9.1-4-1a3,3,0,0,1-.7-2.2v-9.6Z" transform="translate(-5.4)"/><path class="a" d="M35.4,242.4V221.3H49V223H37.4v7.6H47.9v1.7H37.4v10.1Z" transform="translate(-5.4)"/><path class="a" d="M56.8,242.8a7.9,7.9,0,0,1-2.7-.5,6.1,6.1,0,0,1-2.2-1.5,7.2,7.2,0,0,1-1.5-2.5,10,10,0,0,1-.6-3.5,10.7,10.7,0,0,1,.4-3.1,7.4,7.4,0,0,1,1.3-2.5,6.3,6.3,0,0,1,2.2-1.7,7.1,7.1,0,0,1,3.1-.6,7.2,7.2,0,0,1,3.1.6,6.3,6.3,0,0,1,2.2,1.7,7,7,0,0,1,1.3,2.5,11.2,11.2,0,0,1,.4,3.1,10.2,10.2,0,0,1-.5,3.3,7.4,7.4,0,0,1-1.4,2.5,6.3,6.3,0,0,1-2.2,1.6A7.1,7.1,0,0,1,56.8,242.8Zm5.2-8a10.4,10.4,0,0,0-.3-2.5,6,6,0,0,0-.9-2,4.4,4.4,0,0,0-1.6-1.4,5.1,5.1,0,0,0-2.4-.5,4.8,4.8,0,0,0-2.4.5,4.6,4.6,0,0,0-1.6,1.4,6.3,6.3,0,0,0-.9,2.1,9.7,9.7,0,0,0-.3,2.4,9.4,9.4,0,0,0,.3,2.6,6.1,6.1,0,0,0,1,2,4.4,4.4,0,0,0,1.6,1.3,5.1,5.1,0,0,0,2.2.5,4.8,4.8,0,0,0,2.4-.5,4.6,4.6,0,0,0,1.6-1.5,6.5,6.5,0,0,0,.9-2.1A9.5,9.5,0,0,0,62,234.8Z" transform="translate(-5.4)"/><path class="a" d="M76.5,227.2h1.8v15.2H76.5v-2.1l-.8.9-1,.8-1.3.6-1.8.3a6.7,6.7,0,0,1-2.6-.4,4.2,4.2,0,0,1-1.7-1.2,4.7,4.7,0,0,1-.9-1.8,8.3,8.3,0,0,1-.3-2.2v-10h1.8v10a4.4,4.4,0,0,0,.9,3,3.8,3.8,0,0,0,3,1,4.4,4.4,0,0,0,2-.4,4.1,4.1,0,0,0,1.5-1.2,5.7,5.7,0,0,0,.9-1.8,7.9,7.9,0,0,0,.3-2.3Z" transform="translate(-5.4)"/><path class="a" d="M83.4,242.4H81.6V227.2h1.8v2.1a11.1,11.1,0,0,1,2.2-1.8,5,5,0,0,1,2.7-.7,6.9,6.9,0,0,1,2.6.5,4.5,4.5,0,0,1,2,1.7,3.8,3.8,0,0,1,.7,1.7,15.3,15.3,0,0,1,.1,1.8v9.9H91.9v-9.9a4.5,4.5,0,0,0-.9-3.1,3.9,3.9,0,0,0-3-1l-1.5.2-1.2.7-.9.9a4.4,4.4,0,0,0-.6,1.1,5.6,5.6,0,0,0-.3,1.4c0,.5-.1.9-.1,1.5Z" transform="translate(-5.4)"/><path class="a" d="M108.8,221.3h1.8v21.1h-1.8v-2.7h-.1a4.8,4.8,0,0,1-1,1.3l-1.3,1-1.5.6-1.5.2a7.3,7.3,0,0,1-3.1-.6,5.8,5.8,0,0,1-2.1-1.7A6.9,6.9,0,0,1,97,238a12.4,12.4,0,0,1-.4-3.1,11.2,11.2,0,0,1,.4-3.1,7.6,7.6,0,0,1,1.2-2.6,6.2,6.2,0,0,1,2.1-1.8,6.5,6.5,0,0,1,3-.7,7,7,0,0,1,3.1.7,5.4,5.4,0,0,1,2.3,2.1Zm0,13.5a8.4,8.4,0,0,0-.4-2.4,6.3,6.3,0,0,0-1-2,5,5,0,0,0-1.6-1.4,4.5,4.5,0,0,0-2.2-.5,4.9,4.9,0,0,0-2.4.5,4.7,4.7,0,0,0-1.6,1.5,6.4,6.4,0,0,0-.9,2.2,9.9,9.9,0,0,0-.2,2.7,7.5,7.5,0,0,0,.4,2.5,5.4,5.4,0,0,0,1.1,1.9,4.7,4.7,0,0,0,1.6,1.2,5.2,5.2,0,0,0,2.1.4,4.7,4.7,0,0,0,2.2-.5,4.6,4.6,0,0,0,1.6-1.4,6.2,6.2,0,0,0,1-2.1A9.4,9.4,0,0,0,108.8,234.8Z" transform="translate(-5.4)"/><path class="a" d="M121.1,233.6l1.2-.2,1.1-.3a.9.9,0,0,0,.5-.7,4.3,4.3,0,0,0,.1-.9,3,3,0,0,0-.9-2.2,4,4,0,0,0-2.9-.9l-1.7.2a3.6,3.6,0,0,0-1.3.6,3.1,3.1,0,0,0-.9,1.1,4.5,4.5,0,0,0-.5,1.7H114a5.4,5.4,0,0,1,.6-2.3A4.7,4.7,0,0,1,116,228a5.7,5.7,0,0,1,1.9-.9l2.3-.3,2.2.2a5,5,0,0,1,1.8.8,3.7,3.7,0,0,1,1.2,1.5,5.2,5.2,0,0,1,.4,2.2v8.3q0,1,.4,1.3t1.5-.1v1.4l-.6.2h-1.6l-.7-.3-.4-.5a2.2,2.2,0,0,1-.2-.7,4.9,4.9,0,0,1-.1-.8,7.7,7.7,0,0,1-2.6,1.9,7.5,7.5,0,0,1-3.1.6l-1.9-.3a4.6,4.6,0,0,1-1.6-.8,4.1,4.1,0,0,1-1.1-1.4,4.2,4.2,0,0,1-.4-1.9q0-3.9,5.3-4.6Zm3,.9a8.6,8.6,0,0,1-2.3.6l-2.3.2a6.5,6.5,0,0,0-3.2.9,2.6,2.6,0,0,0-1.1,2.3,2.5,2.5,0,0,0,.3,1.2,2.6,2.6,0,0,0,.7.9l1.1.5,1.2.2,2.1-.3a5.6,5.6,0,0,0,1.8-.8,4.1,4.1,0,0,0,1.2-1.4,4,4,0,0,0,.5-2Z" transform="translate(-5.4)"/><path class="a" d="M134.9,242.5l-.9.2h-1.2a2.8,2.8,0,0,1-2-.7,3.2,3.2,0,0,1-.7-2.4V228.7H128v-1.5h2.1V223h1.8v4.2h2.8v1.5h-2.8v10.4q0,.6,0,1a1.6,1.6,0,0,0,.2.7l.5.4h2.3Z" transform="translate(-5.4)"/><path class="a" d="M137,223.9v-2.6h1.9v2.6Zm.1,18.5V227.2h1.8v15.2Z" transform="translate(-5.4)"/><path class="a" d="M148.5,242.8a7.9,7.9,0,0,1-2.7-.5,6.1,6.1,0,0,1-2.2-1.5,7.2,7.2,0,0,1-1.5-2.5,10,10,0,0,1-.6-3.5,10.7,10.7,0,0,1,.4-3.1,7.4,7.4,0,0,1,1.3-2.5,6.3,6.3,0,0,1,2.2-1.7,7.1,7.1,0,0,1,3.1-.6,7.2,7.2,0,0,1,3.1.6,6.3,6.3,0,0,1,2.2,1.7,7,7,0,0,1,1.3,2.5,11.2,11.2,0,0,1,.4,3.1,10.2,10.2,0,0,1-.5,3.3,7.4,7.4,0,0,1-1.4,2.5,6.3,6.3,0,0,1-2.2,1.6A7.1,7.1,0,0,1,148.5,242.8Zm5.2-8a10.4,10.4,0,0,0-.3-2.5,6,6,0,0,0-.9-2,4.4,4.4,0,0,0-1.6-1.4,5.1,5.1,0,0,0-2.4-.5,4.8,4.8,0,0,0-2.4.5,4.6,4.6,0,0,0-1.6,1.4,6.3,6.3,0,0,0-.9,2.1,9.7,9.7,0,0,0-.3,2.4,9.4,9.4,0,0,0,.3,2.6,6.1,6.1,0,0,0,1,2,4.4,4.4,0,0,0,1.6,1.3,5.1,5.1,0,0,0,2.2.5,4.8,4.8,0,0,0,2.4-.5,4.6,4.6,0,0,0,1.6-1.5,6.5,6.5,0,0,0,.9-2.1A9.5,9.5,0,0,0,153.7,234.8Z" transform="translate(-5.4)"/><path class="a" d="M159.6,242.4h-1.8V227.2h1.8v2.1a11.2,11.2,0,0,1,2.2-1.8,5,5,0,0,1,2.7-.7,6.9,6.9,0,0,1,2.6.5,4.5,4.5,0,0,1,2,1.7,3.8,3.8,0,0,1,.7,1.7,15.3,15.3,0,0,1,.1,1.8v9.9h-1.8v-9.9a4.5,4.5,0,0,0-.9-3.1,3.9,3.9,0,0,0-3-1l-1.5.2-1.2.7-.9.9a4.3,4.3,0,0,0-.6,1.1,5.6,5.6,0,0,0-.3,1.4q-.1.7-.1,1.5Z" transform="translate(-5.4)"/><polygon class="b" points="100.5 162.9 37.7 109.1 100.5 55.4 163.2 109.1 100.5 162.9"/><polygon class="c" points="37.7 109.1 100.5 162.9 100.5 107.5 37.7 53.7 37.7 109.1"/><polygon class="d" points="163.2 53.7 100.5 0 100.5 55.4 163.2 109.1 163.2 53.7"/><polygon class="e" points="37.7 53.7 100.5 0 100.5 55.4 37.7 109.1 37.7 53.7"/><polygon class="f" points="163.2 109.1 100.5 162.9 100.5 107.5 163.2 53.7 163.2 109.1"/><polygon class="g" points="70.1 81.4 37.7 53.7 37.7 53.7 37.7 109.1 37.7 109.1 70.1 81.4"/><polygon class="h" points="130.9 81.4 163.2 109.1 163.2 109.1 163.2 53.7 163.2 53.7 130.9 81.4"/></svg>