<svg xmlns="http://www.w3.org/2000/svg" viewBox="0 0 781 18"><defs><style>.a{fill:none;stroke:#50e3c2;stroke-linecap:square;}.a,.c{stroke-miterlimit:10;stroke-width:2.5px;}.b,.c{fill:#fff;}.c{stroke:#979797;}.d{fill:#41d6c3;}</style></defs><title>Line_5_5</title><line class="a" x1="9.5" y1="9" x2="774.5" y2="9"/><circle class="b" cx="9" cy="9" r="7"/><path class="b" d="M9,4A5,5,0,1,1,4,9,5,5,0,0,1,9,4M9,0a9,9,0,1,0,9,9A9,9,0,0,0,9,0Z"/><circle class="b" cx="199.7" cy="9" r="7"/><path class="b" d="M199.8,4a5,5,0,1,1-5,5,5,5,0,0,1,5-5m0-4a9,9,0,1,0,9,9,9,9,0,0,0-9-9Z"/><circle class="b" cx="390.5" cy="9" r="7"/><path class="b" d="M390.5,4a5,5,0,1,1-5,5,5,5,0,0,1,5-5m0-4a9,9,0,1,0,9,9,9,9,0,0,0-9-9Z"/><circle class="b" cx="581.2" cy="9" r="7"/><path class="b" d="M581.3,4a5,5,0,1,1-5,5,5,5,0,0,1,5-5m0-4a9,9,0,1,0,9,9,9,9,0,0,0-9-9Z"/><circle class="b" cx="772" cy="9" r="7"/><path class="b" d="M772,4a5,5,0,1,1-5,5,5,5,0,0,1,5-5m0-4a9,9,0,1,0,9,9,9,9,0,0,0-9-9Z"/><circle class="c" cx="9" cy="9" r="5"/><circle class="c" cx="199.7" cy="9" r="5"/><circle class="c" cx="390.5" cy="9" r="5"/><circle class="c" cx="581.2" cy="9" r="5"/><circle class="d" cx="772" cy="9" r="5"/><path class="d" d="M772,15.3A6.2,6.2,0,1,1,778.2,9,6.3,6.3,0,0,1,772,15.3Zm0-10A3.7,3.7,0,1,0,775.7,9,3.8,3.8,0,0,0,772,5.3Z"/></svg>