<?xml version="1.0" encoding="utf-8"?>
<!-- Generator: Adobe Illustrator 19.2.1, SVG Export Plug-In . SVG Version: 6.00 Build 0)  -->
<svg version="1.1" id="Layer_1" xmlns="http://www.w3.org/2000/svg" xmlns:xlink="http://www.w3.org/1999/xlink" x="0px" y="0px"
	 width="24px" height="24px" viewBox="0 0 24 24" style="enable-background:new 0 0 24 24;" xml:space="preserve">
<style type="text/css">
	.st0{opacity:0.3;fill:#41D6C3;}
	.st1{fill:#41D6C3;}
	.st2{fill:#5AAAFA;}
	.st3{fill:#C0E6FF;}
	.st4{fill:#008571;}
	.st5{fill:#7CC7FF;}
	.st6{fill:#4178BE;}
	.st7{fill:#666666;}
	.st8{fill:#264A60;}
	.st9{opacity:0.5;fill:#41D6C3;stroke:#41D6C3;stroke-miterlimit:10;}
	.st10{fill:#FF7832;}
	.st11{fill:#FF5050;}
	.st12{fill:#DB2780;}
	.st13{fill:#DFE9E9;}
	.st14{fill:#F4F4F4;}
	.st15{fill:#6D7777;}
	.st16{clip-path:url(#SVGID_2_);fill:#C0E6FF;}
	.st17{clip-path:url(#SVGID_2_);fill:#5AAAFA;}
	.st18{clip-path:url(#SVGID_2_);fill:#4178BE;}
	.st19{clip-path:url(#SVGID_4_);fill:#4178BE;}
	.st20{clip-path:url(#SVGID_4_);fill:#5AAAFA;}
	.st21{clip-path:url(#SVGID_4_);fill:#C0E6FF;}
	.st22{clip-path:url(#SVGID_6_);fill:#C0E6FF;}
	.st23{clip-path:url(#SVGID_6_);fill:#5AAAFA;}
	.st24{clip-path:url(#SVGID_6_);fill:#4178BE;}
	.st25{clip-path:url(#SVGID_8_);fill:#C0E6FF;}
	.st26{clip-path:url(#SVGID_8_);fill:#5AAAFA;}
	.st27{clip-path:url(#SVGID_8_);fill:#4178BE;}
	.st28{fill:#FFFFFF;}
	.st29{clip-path:url(#SVGID_24_);fill:#C0E6FF;}
	.st30{clip-path:url(#SVGID_24_);fill:#5AAAFA;}
	.st31{clip-path:url(#SVGID_24_);fill:#4178BE;}
	.st32{clip-path:url(#SVGID_26_);fill:#4178BE;}
	.st33{clip-path:url(#SVGID_26_);fill:#5AAAFA;}
	.st34{clip-path:url(#SVGID_26_);fill:#C0E6FF;}
	.st35{clip-path:url(#SVGID_28_);fill:#C0E6FF;}
	.st36{clip-path:url(#SVGID_28_);fill:#5AAAFA;}
	.st37{clip-path:url(#SVGID_28_);fill:#4178BE;}
	.st38{clip-path:url(#SVGID_30_);fill:#C0E6FF;}
	.st39{clip-path:url(#SVGID_30_);fill:#5AAAFA;}
	.st40{clip-path:url(#SVGID_30_);fill:#4178BE;}
	.st41{clip-path:url(#SVGID_32_);fill:#C0E6FF;}
	.st42{clip-path:url(#SVGID_32_);fill:#5AAAFA;}
	.st43{clip-path:url(#SVGID_32_);fill:#4178BE;}
	.st44{fill:#FFFFFF;stroke:#000000;stroke-miterlimit:10;}
	.st45{fill:#F0F0F0;}
	.st46{fill:#D1D1D1;}
	.st47{opacity:0.3;fill:#C0E6FF;}
</style>
<g>
	<polygon class="st0" points="12,15.7 16.4,12 12,8.3 7.6,12 	"/>
	<polygon class="st1" points="12,0 12,8.3 16.4,12 21.4,7.8 21.4,7.8 	"/>
	<polygon class="st2" points="12,8.3 12,0 2.6,7.8 2.6,7.8 7.6,12 	"/>
	<polygon class="st3" points="12,15.7 12,24 21.4,16.2 21.4,16.2 16.4,12 	"/>
	<polygon class="st4" points="21.4,16.2 21.4,7.8 16.4,12 	"/>
	<polygon class="st5" points="7.6,12 2.6,16.2 2.6,16.2 12,24 12,15.7 	"/>
	<polygon class="st6" points="2.6,7.8 2.6,16.2 7.6,12 	"/>
</g>
<g>
	<polygon class="st47" points="12,15.7 12,24 21.4,16.2 21.4,16.2 16.4,12 	"/>
</g>
<g>
	<polygon class="st47" points="12,15.7 12,24 21.4,16.2 21.4,16.2 16.4,12 	"/>
</g>
</svg>
