<?xml version="1.0" encoding="utf-8"?>
<!-- Generator: Adobe Illustrator 19.2.1, SVG Export Plug-In . SVG Version: 6.00 Build 0)  -->
<svg version="1.1" id="Layer_1" xmlns="http://www.w3.org/2000/svg" xmlns:xlink="http://www.w3.org/1999/xlink" x="0px" y="0px"
	 viewBox="0 0 214.7 334.5" enable-background="new 0 0 214.7 334.5" xml:space="preserve">
<g>
	<g opacity="0.2">
		<path fill="#C4E47A" d="M95.8,196.9c14.3,1.2,35-1.6,35-20.4c0-14.1-11-21.8-23.2-21.8c-16.9,0-25.6,12.4-25.3,29.3H50.5
			c1.2-33.8,22.8-56.8,56.8-56.8c26.3,0,55.2,16.2,55.2,45.5c0,15.7-7.7,29.1-23,33.6v0.5c18.1,4,29.1,18.8,29.1,37.3
			c0,34.5-29.1,54-61,54c-36.9,0-61.7-22.1-61-59.9h31.7c0.7,17.8,9.6,32.4,28.9,32.4c15,0,26.8-10.1,26.8-25.8
			c0-24.9-21.8-24.4-38-24.4V196.9z"/>
	</g>
	<g>
		<g>
			<polyline fill="none" stroke="#C4E47A" stroke-width="4" stroke-miterlimit="10" points="62,47 2,47 2,332.5 212.7,332.5 
				212.7,47 153.1,47 			"/>
			<g>
				<g>
					<g>
						<path fill="#C4E47A" d="M107.7,4.4c23.7,0,42.9,19.3,42.9,42.9s-19.3,42.9-42.9,42.9C84,90.3,64.8,71,64.8,47.3
							S84,4.4,107.7,4.4 M107.7,0.4c-25.9,0-46.9,21-46.9,46.9s21,46.9,46.9,46.9c25.9,0,46.9-21,46.9-46.9S133.6,0.4,107.7,0.4
							L107.7,0.4z"/>
					</g>
				</g>
				<g>
					<g>
						<circle fill="#264A60" cx="106" cy="38.7" r="0.6"/>
						<circle fill="#264A60" cx="108.4" cy="38.7" r="0.6"/>
						<circle fill="#264A60" cx="110.7" cy="38.7" r="0.6"/>
						<circle fill="#264A60" cx="113.1" cy="38.7" r="0.6"/>
						<circle fill="#264A60" cx="115.4" cy="38.7" r="0.6"/>
						<circle fill="#264A60" cx="117.8" cy="38.7" r="0.6"/>
					</g>
					<g>
						<circle fill="#264A60" cx="106" cy="57.4" r="0.6"/>
						<circle fill="#264A60" cx="108.4" cy="57.4" r="0.6"/>
						<circle fill="#264A60" cx="110.7" cy="57.4" r="0.6"/>
						<circle fill="#264A60" cx="113.1" cy="57.4" r="0.6"/>
						<circle fill="#264A60" cx="115.4" cy="57.4" r="0.6"/>
						<circle fill="#264A60" cx="117.8" cy="57.4" r="0.6"/>
					</g>
					<rect x="92.2" y="33" fill="#C4E47A" stroke="#264A60" width="12" height="29"/>
					<polygon fill="#C4E47A" stroke="#264A60" points="119.1,42 124.4,32.9 129.7,42 					"/>
					<circle fill="#C4E47A" stroke="#264A60" cx="124.3" cy="57.9" r="4.4"/>
					<g>
						<circle fill="#264A60" cx="83.6" cy="48.2" r="0.6"/>
						<circle fill="#264A60" cx="85.9" cy="48.2" r="0.6"/>
						<circle fill="#264A60" cx="88.3" cy="48.2" r="0.6"/>
						<circle fill="#264A60" cx="90.6" cy="48.2" r="0.6"/>
						<circle fill="#264A60" cx="93" cy="48.2" r="0.6"/>
						<circle fill="#264A60" cx="95.3" cy="48.2" r="0.6"/>
					</g>
				</g>
			</g>
		</g>
	</g>
</g>
</svg>
