<svg xmlns="http://www.w3.org/2000/svg" viewBox="0 0 449 201.3"><defs><style>.a{fill:#fff;}.b{fill:#325c80;}.c{fill:#5aaafa;}.d{fill:none;stroke:#000;stroke-miterlimit:10;stroke-width:2px;}</style></defs><title>Asset 2</title><line class="a" x1="265.6" y1="69.3" x2="327.9" y2="69.3"/><rect class="b" x="265.6" y="66.4" width="46" height="5.68"/><polygon class="b" points="308.3 80.6 327.9 69.3 308.3 57.9 308.3 80.6"/><line class="a" x1="327.9" y1="111.9" x2="265.6" y2="111.9"/><rect class="b" x="281.9" y="109.1" width="46" height="5.68"/><polygon class="b" points="285.2 100.6 265.6 111.9 285.2 123.3 285.2 100.6"/><circle class="b" cx="11.1" cy="16.5" r="1.4"/><circle class="b" cx="16.4" cy="16.5" r="1.4"/><circle class="b" cx="21.6" cy="16.5" r="1.4"/><rect class="b" x="345.8" y="7.6" width="102.7" height="187.94" rx="9.5" ry="9.5"/><path class="b" d="M438.2,196.1H356a10.7,10.7,0,0,1-10.7-10.7V17.8A10.7,10.7,0,0,1,356,7.1h82.3A10.7,10.7,0,0,1,449,17.8V185.4A10.7,10.7,0,0,1,438.2,196.1ZM356,8.2a9.7,9.7,0,0,0-9.7,9.7V185.4A9.7,9.7,0,0,0,356,195h82.3a9.7,9.7,0,0,0,9.7-9.7V17.8a9.7,9.7,0,0,0-9.7-9.7Z"/><rect class="a" x="351.8" y="22.1" width="90.2" height="157.13"/><path class="c" d="M419.4,78H382.8V72.5a14.1,14.1,0,1,1,28.2,0h4.5a18.6,18.6,0,1,0-37.2,0V78h-3.8a5.9,5.9,0,0,0-5.9,5.9v44.9a5.9,5.9,0,0,0,5.9,5.9h44.9a5.9,5.9,0,0,0,5.9-5.9V83.8A5.9,5.9,0,0,0,419.4,78Z"/><path class="d" d="M396.9,99.3"/><polygon class="a" points="405.8 93.5 410.7 93.5 394.2 121.7 383.7 109.1 388.3 109.1 393.9 115 405.8 93.5"/><path class="b" d="M236.9,171.8H11.4A10.8,10.8,0,0,1,.6,161V11.4A10.8,10.8,0,0,1,11.4.6H236.9a10.8,10.8,0,0,1,10.8,10.8V161A10.8,10.8,0,0,1,236.9,171.8Z"/><rect class="a" x="6.8" y="12.3" width="234.7" height="147.7"/><path class="b" d="M236.9,0H11.4A11.4,11.4,0,0,0,0,11.4V161a11.4,11.4,0,0,0,11.4,11.4H113.7v19.8H102.2c-6.2,0-11.2,3.6-11.2,8.1v1.1h66.2v-1.1c0-4.5-5-8.1-11.2-8.1H134.5V172.3H236.9A11.4,11.4,0,0,0,248.2,161V11.4A11.4,11.4,0,0,0,236.9,0Zm10.2,161a10.3,10.3,0,0,1-10.2,10.2H134.5v-3H113.7v3H11.4A10.3,10.3,0,0,1,1.1,161V11.4A10.3,10.3,0,0,1,11.4,1.1H236.9a10.3,10.3,0,0,1,10.2,10.2Z"/><rect class="a" x="6.2" y="21.6" width="235.8" height="139.02"/><path class="b" d="M241.5,22.1V160H6.8V22.1H241.5m1.1-1.1H5.7V161.2H242.6V21Z"/><path class="c" d="M146.4,73.6h-3.7V68.2a18.4,18.4,0,1,0-36.8,0v5.4h-3.7a5.9,5.9,0,0,0-5.9,5.9v44.1a5.9,5.9,0,0,0,5.9,5.9h44.1a5.9,5.9,0,0,0,5.9-5.9V79.5A5.9,5.9,0,0,0,146.4,73.6Zm-35.9-5.4a13.8,13.8,0,0,1,27.7,0v5.4H110.5Z"/><path class="d" d="M124.3,94.5"/><path class="a" d="M113.8,91a10.7,10.7,0,0,1,2.2-3.6,10.1,10.1,0,0,1,3.5-2.4,11.8,11.8,0,0,1,4.5-.8,14.3,14.3,0,0,1,5.4.9,10.5,10.5,0,0,1,3.5,2.2,8,8,0,0,1,1.9,2.9,8.2,8.2,0,0,1,.6,2.9,9.8,9.8,0,0,1-.6,3.6,8.9,8.9,0,0,1-1.4,2.4,9.5,9.5,0,0,1-1.9,1.7l-1.9,1.4a9.1,9.1,0,0,0-1.6,1.6,4.7,4.7,0,0,0-.9,2.3v1.7H121v-2.1a8.9,8.9,0,0,1,2.2-5.6,11.5,11.5,0,0,1,1.7-1.6l1.7-1.4a6.1,6.1,0,0,0,1.3-1.5,3.7,3.7,0,0,0,.4-2.1,4.2,4.2,0,0,0-1-3.1,3.9,3.9,0,0,0-2.9-1,4.4,4.4,0,0,0-2.1.5,4.2,4.2,0,0,0-1.5,1.3,5.6,5.6,0,0,0-.8,1.9,9.3,9.3,0,0,0-.3,2.3H113A13.1,13.1,0,0,1,113.8,91Zm13.7,19.6v7h-7.2v-7Z"/></svg>