<?xml version="1.0" encoding="utf-8"?>
<!-- Generator: Adobe Illustrator 19.2.1, SVG Export Plug-In . SVG Version: 6.00 Build 0)  -->
<svg version="1.1" id="Layer_1" xmlns="http://www.w3.org/2000/svg" xmlns:xlink="http://www.w3.org/1999/xlink" x="0px" y="0px"
	 viewBox="0 0 214.7 334.5" enable-background="new 0 0 214.7 334.5" xml:space="preserve">
<g>
	<g opacity="0.35">
		<path fill="#C1E6FE" d="M136.5,294.7h-33.3V188.2H61.8v-25.1c23.2,0.7,44.4-7.5,48.1-32.6h26.5V294.7z"/>
	</g>
	<g>
		<g>
			<g>
				<polyline fill="none" stroke="#C1E6FE" stroke-width="4" stroke-miterlimit="10" points="63,47 2,47 2,332.5 212.7,332.5 
					212.7,47 152.6,47 				"/>
				<g>
					<g>
						<g>
							<path fill="#C1E6FE" d="M107.3,4c23.7,0,42.9,19.3,42.9,42.9c0,23.7-19.3,42.9-42.9,42.9S64.4,70.6,64.4,46.9
								C64.4,23.3,83.6,4,107.3,4 M107.3,0C81.4,0,60.4,21,60.4,46.9c0,25.9,21,46.9,46.9,46.9s46.9-21,46.9-46.9
								C154.2,21,133.2,0,107.3,0L107.3,0z"/>
						</g>
					</g>
					<g>
						<path fill="#C0E6FF" stroke="#264A60" d="M104.8,43.2c0.8,0.6,0.6,2.4,0.4,2.9c-0.2,0.5-1.1,0.8-2.1,0.5
							c-0.9-0.3-1.9,0.6-2.2,2c-0.2,1.2,0.3,2.5,1.2,2.8c0.9,0.2,1.8,1.8,1.8,2.4c0,0.5-0.6,1.3-1.5,1.5c-0.9,0.2-1.4,1.5-0.9,2.8
							c0.4,1.2,1.5,2,2.4,1.8c0.9-0.2,1.9-0.1,2.1,0.4c0.2,0.5,0.6,2.2,0,2.9c-0.6,0.7-0.4,2,0.6,2.9s2.2,1,3,0.4
							c0.6-0.8,2.4-0.5,2.9-0.4c0.5,0.2,0.8,1.1,0.5,2.1c-0.2,0.9,0.6,1.9,2,2.2c1.2,0.2,2.5-0.2,2.8-1.2c0.2-0.9,1.8-1.8,2.4-1.8
							c0.5,0,1.2,0.6,1.5,1.5c0.2,0.9,1.5,1.4,2.8,0.9c1.2-0.4,2-1.5,1.8-2.4c-0.2-0.9,0.8-2.4,1.1-2.8c0.5-0.4,1.4,0,2.1,0.6
							c0.8,0.6,2,0.4,2.9-0.6c0.9-1,1-2.2,0.4-2.9c-0.8-0.6-0.6-2.4-0.4-2.9s1.1-0.7,2.1-0.5c0.9,0.2,1.9-0.6,2.2-2
							c0.2-1.2-0.2-2.5-1.2-2.8s-1.8-1.8-1.8-2.4c0-0.5,0.6-1.2,1.5-1.5c0.9-0.2,1.4-1.5,0.9-2.8c-0.4-1.2-1.5-2-2.4-1.8
							c-0.9,0.2-2.4-0.8-2.8-1.1c-0.4-0.5,0-1.4,0.6-2.1s0.4-2-0.6-2.9s-2.2-1-3-0.4c-0.6,0.8-2.4,0.5-2.9,0.4
							c-0.5-0.2-0.8-1.1-0.5-2.1c0.3-0.9-0.6-1.9-2-2.2c-1.2-0.2-2.5,0.2-2.8,1.2c-0.3,0.9-1.8,1.8-2.4,1.8c-0.5,0-1.2-0.6-1.5-1.5
							c-0.2-0.9-1.5-1.4-2.8-0.9c-1.2,0.4-2,1.5-1.8,2.4c0.2,0.9-0.8,2.4-1.1,2.6c-0.5,0.4-1.4,0-2.1-0.6s-2-0.4-2.9,0.6
							C104.1,41.3,104,42.6,104.8,43.2z M115.3,42.6c5.5-1.8,11.4,1.2,13.1,6.8s-1.2,11.4-6.8,13.1c-5.5,1.8-11.4-1.2-13.1-6.8
							C106.8,50.2,109.8,44.3,115.3,42.6z"/>
						<path fill="#C0E6FF" stroke="#264A60" d="M84.6,26.7c0.5,0.4,0.4,1.5,0.2,1.9c-0.2,0.2-0.9,0.4-1.5,0.2s-1.2,0.5-1.4,1.2
							c-0.1,0.9,0.1,1.6,0.8,1.8s1.1,1.2,1.1,1.5c0,0.4-0.4,0.8-1,1s-0.9,1-0.6,1.8c0.2,0.8,1,1.2,1.5,1.1c0.6-0.2,1.2-0.1,1.4,0.3
							c0.1,0.2,0.4,1.4,0,1.9c-0.4,0.5-0.2,1.2,0.4,1.9s1.5,0.6,1.9,0.2c0.4-0.5,1.5-0.4,1.9-0.2s0.5,0.8,0.4,1.4s0.5,1.2,1.2,1.4
							c0.9,0.1,1.6-0.1,1.8-0.8s1.1-1.1,1.5-1.1s0.8,0.4,1,1c0.1,0.6,1,0.9,1.8,0.6c0.7-0.3,1.2-1,1.1-1.5c-0.2-0.6,0.5-1.5,0.8-1.8
							s0.9,0,1.4,0.4s1.2,0.2,1.9-0.4s0.6-1.5,0.2-1.9c-0.5-0.4-0.4-1.5-0.2-1.9c0.1-0.4,0.8-0.5,1.4-0.4s1.2-0.5,1.4-1.2
							c0.1-0.9-0.1-1.6-0.8-1.8s-1.1-1.1-1.1-1.5s0.4-0.8,1-1c0.6-0.1,0.9-1,0.6-1.8s-1-1.2-1.5-1.1c-0.6,0.1-1.5-0.5-1.8-0.8
							s0-0.9,0.4-1.4c0.4-0.5,0.2-1.2-0.4-1.9s-1.5-0.6-1.9-0.2c-0.4,0.5-1.5,0.4-1.9,0.2c-0.2-0.1-0.5-0.8-0.4-1.4
							c0.1-0.6-0.5-1.2-1.2-1.4c-0.9-0.1-1.6,0.1-1.8,0.8s-1.1,1.1-1.5,1.1s-0.8-0.4-1-1s-1-0.9-1.8-0.6s-1.2,1-1.1,1.5
							c0.2,0.6-0.5,1.5-0.8,1.8s-0.9,0.1-1.4-0.4c-0.5-0.4-1.2-0.2-1.9,0.4C84.3,25.5,84.1,26.2,84.6,26.7z M91.4,26.2
							c3.5-1.1,7.3,0.8,8.5,4.4c1.1,3.5-0.8,7.2-4.4,8.4c-3.5,1.1-7.2-0.8-8.5-4.4C85.9,31.1,87.9,27.3,91.4,26.2z"/>
						<path fill="#C0E6FF" stroke="#264A60" d="M82.5,50.8c0.4,0.4,0.2,1.2,0.1,1.4c-0.1,0.3-0.6,0.4-1,0.3c-0.5-0.1-1,0.4-1.1,1
							s0.1,1.2,0.6,1.4C81.6,55,82,55.7,82,56c0,0.3-0.4,0.6-0.8,0.8c-0.5,0.2-0.8,0.9-0.5,1.5s0.8,1,1.1,0.9
							c0.5-0.1,0.9-0.1,1.1,0.1c0.1,0.2,0.2,1.1,0,1.5c-0.4,0.4-0.1,1,0.2,1.4c0.5,0.4,1.1,0.5,1.5,0.1c0.4-0.4,1.2-0.2,1.5-0.1
							c0.2,0.1,0.4,0.6,0.2,1c-0.1,0.5,0.4,1,1,1.1s1.2-0.1,1.4-0.6c0.1-0.5,0.9-0.9,1.1-0.9s0.6,0.4,0.8,0.7
							c0.1,0.5,0.8,0.6,1.4,0.5c0.6-0.3,1-0.8,0.9-1.1c-0.1-0.5,0.4-1.1,0.6-1.4c0.2-0.1,0.8,0,1,0.2c0.4,0.4,1,0.1,1.4-0.2
							c0.4-0.5,0.5-1.1,0.1-1.5c-0.4-0.4-0.2-1.2-0.1-1.4c0.1-0.2,0.6-0.4,1-0.2c0.5,0.1,1-0.4,1.1-1S98,56.1,97.5,56
							c-0.5-0.1-0.9-0.9-0.9-1.1s0.4-0.6,0.8-0.8c0.5-0.1,0.6-0.8,0.5-1.4c-0.3-0.6-0.8-1-1.1-0.9c-0.5,0.1-1.1-0.4-1.4-0.6
							c-0.1-0.2,0-0.6,0.2-1c0.4-0.4,0.1-1-0.2-1.4c-0.5-0.4-1.1-0.5-1.5-0.1c-0.4,0.4-1.2,0.3-1.5,0.1c-0.2-0.1-0.4-0.6-0.2-1
							c0.1-0.5-0.4-1-1-1.1c-0.6-0.1-1.2,0.1-1.4,0.6c-0.1,0.5-0.9,0.9-1.1,0.9c-0.2,0-0.6-0.4-0.8-0.8c-0.1-0.5-0.7-0.8-1.4-0.5
							s-1,0.8-0.9,1.1c0.1,0.5-0.4,1.1-0.6,1.4c-0.2,0.1-0.6,0-1-0.2c-0.4-0.4-1-0.1-1.4,0.2C82.1,50,82.1,50.6,82.5,50.8z
							 M87.6,50.6c2.8-0.9,5.6,0.6,6.5,3.4s-0.6,5.6-3.4,6.5c-2.7,0.9-5.6-0.6-6.5-3.4C83.5,54.3,85,51.5,87.6,50.6z"/>
					</g>
				</g>
			</g>
		</g>
	</g>
</g>
</svg>
