<svg xmlns="http://www.w3.org/2000/svg" viewBox="0 0 64 64"><defs><style>.a{fill:#c8f2ed;}.b{fill:#7fc8fd;}.c{fill:#41d6c3;}.d{fill:#5aaafa;}.e{fill:#c0e6ff;}.f{fill:#4178be;}.g{fill:#008571;}</style></defs><title>MFF_Logo_64px</title><polygon class="a" points="32 64 7.3 42.9 32 21.8 56.7 42.9 32 64"/><polygon class="b" points="7.3 42.9 32 64 32 42.2 7.3 21.1 7.3 42.9"/><polygon class="c" points="56.7 21.1 32 0 32 21.8 56.7 42.9 56.7 21.1"/><polygon class="d" points="7.3 21.1 32 0 32 21.8 7.3 42.9 7.3 21.1"/><polygon class="e" points="56.7 42.9 32 64 32 42.2 56.7 21.1 56.7 42.9"/><polygon class="f" points="20.1 32 7.3 21.1 7.3 21.1 7.3 42.9 7.3 42.9 20.1 32"/><polygon class="g" points="43.9 32 56.7 42.9 56.7 42.9 56.7 21.1 56.7 21.1 43.9 32"/></svg>