<?xml version="1.0" encoding="utf-8"?>
<!-- Generator: Adobe Illustrator 18.0.0, SVG Export Plug-In . SVG Version: 6.00 Build 0)  -->
<!DOCTYPE svg PUBLIC "-//W3C//DTD SVG 1.1//EN" "http://www.w3.org/Graphics/SVG/1.1/DTD/svg11.dtd">
<svg version="1.1" xmlns="http://www.w3.org/2000/svg" xmlns:xlink="http://www.w3.org/1999/xlink" x="0px" y="0px"
	 viewBox="0 0 60 60" enable-background="new 0 0 60 60" xml:space="preserve">
<g id="locked">
	<g>
		<defs>
			<path id="SVGID_1_" d="M363.6-136.8c-0.9-8.2-7.8-14.6-16.2-14.6c-8.1,0-14.8,5.9-16,13.6c-0.7-0.1-1.4-0.2-2.2-0.2
				c-7.9,0-14.4,6.4-14.4,14.4c0,7.9,6.4,14.4,14.4,14.4H358c7.9,0,14.4-6.4,14.4-14.4C372.3-129.5,368.7-134.6,363.6-136.8z"/>
		</defs>
		<clipPath id="SVGID_2_">
			<use xlink:href="#SVGID_1_"  overflow="visible"/>
		</clipPath>
		<g clip-path="url(#SVGID_2_)">
			<defs>
				<rect id="SVGID_3_" x="-439.9" y="-897.1" width="2919.2" height="1735.3"/>
			</defs>
			<clipPath id="SVGID_4_">
				<use xlink:href="#SVGID_3_"  overflow="visible"/>
			</clipPath>
		</g>
		
			<use xlink:href="#SVGID_1_"  overflow="visible" fill-rule="evenodd" clip-rule="evenodd" fill="none" stroke="#5AAAFA" stroke-width="1.3" stroke-linecap="round" stroke-miterlimit="10"/>
	</g>
	<g>
		<defs>
			<path id="SVGID_5_" d="M-127.5-142.5c-1,0-1.9-0.8-1.9-1.8c0-1,0.8-1.8,1.9-1.8c1,0,1.9,0.8,1.9,1.8
				C-125.6-143.3-126.5-142.5-127.5-142.5z M-120.1-145.1c-0.5-3.5-3.6-6.3-7.4-6.3s-6.9,2.7-7.4,6.3h-7.5v1.8h7.5
				c0.5,3.5,3.6,6.3,7.4,6.3s6.9-2.7,7.4-6.3h33.6v-1.8H-120.1z"/>
		</defs>
		<clipPath id="SVGID_6_">
			<use xlink:href="#SVGID_5_"  overflow="visible"/>
		</clipPath>
		<g clip-path="url(#SVGID_6_)">
			<defs>
				<rect id="SVGID_7_" x="-950.6" y="-676.8" width="3101.8" height="1843.8"/>
			</defs>
			<clipPath id="SVGID_8_">
				<use xlink:href="#SVGID_7_"  overflow="visible"/>
			</clipPath>
		</g>
	</g>
	<g>
		<defs>
			<path id="SVGID_9_" d="M-101.4-128.1c-1,0-1.9-0.8-1.9-1.8s0.8-1.8,1.9-1.8c1,0,1.9,0.8,1.9,1.8S-100.3-128.1-101.4-128.1z
				 M-101.4-137.1c-3.8,0-6.9,2.7-7.4,6.3h-33.6v1.8h33.6c0.5,3.5,3.6,6.3,7.4,6.3s6.9-2.7,7.4-6.3h7.5v-1.8H-94
				C-94.4-134.4-97.6-137.1-101.4-137.1z"/>
		</defs>
		<clipPath id="SVGID_10_">
			<use xlink:href="#SVGID_9_"  overflow="visible"/>
		</clipPath>
		<g clip-path="url(#SVGID_10_)">
			<defs>
				<rect id="SVGID_11_" x="-950.6" y="-676.8" width="3101.8" height="1843.8"/>
			</defs>
			<clipPath id="SVGID_12_">
				<use xlink:href="#SVGID_11_"  overflow="visible"/>
			</clipPath>
		</g>
	</g>
	<g>
		<defs>
			<path id="SVGID_13_" d="M-127.5-113.8c-1,0-1.9-0.8-1.9-1.8c0-1,0.8-1.8,1.9-1.8c1,0,1.9,0.8,1.9,1.8
				C-125.6-114.6-126.5-113.8-127.5-113.8z M-127.5-122.8c-3.8,0-6.9,2.7-7.4,6.3h-7.5v1.8h7.5c0.5,3.5,3.6,6.3,7.4,6.3
				s6.9-2.7,7.4-6.3h33.6v-1.8h-33.6C-120.6-120-123.7-122.8-127.5-122.8z"/>
		</defs>
		<clipPath id="SVGID_14_">
			<use xlink:href="#SVGID_13_"  overflow="visible"/>
		</clipPath>
		<g clip-path="url(#SVGID_14_)">
			<defs>
				<rect id="SVGID_15_" x="-950.6" y="-676.8" width="3101.8" height="1843.8"/>
			</defs>
			<clipPath id="SVGID_16_">
				<use xlink:href="#SVGID_15_"  overflow="visible"/>
			</clipPath>
		</g>
	</g>
	<g>
		<defs>
			<path id="SVGID_17_" d="M43.4-145.4c1.4,0,2.6,1.2,2.6,2.6c0,1.4-1.2,2.6-2.6,2.6s-2.6-1.2-2.6-2.6
				C40.8-144.2,42-145.4,43.4-145.4z M9.5-135h40v12.2h-40V-135z M9.5-121.1h40v12.2h-40V-121.1z M7.8-107.2h43.4v-43.4H7.8V-107.2z
				"/>
		</defs>
		<clipPath id="SVGID_18_">
			<use xlink:href="#SVGID_17_"  overflow="visible"/>
		</clipPath>
		<g clip-path="url(#SVGID_18_)">
			<defs>
				<rect id="SVGID_19_" x="-1248.8" y="-583.5" width="2582.2" height="1535"/>
			</defs>
			<clipPath id="SVGID_20_">
				<use xlink:href="#SVGID_19_"  overflow="visible"/>
			</clipPath>
		</g>
	</g>
</g>
<g id="Layer_1">
	<g>
		<path fill="#5AAAFA" d="M51.7,6.4H38.2V3.6c0-2-1.5-3.6-3.5-3.6H11C9.1,0,7.4,1.6,7.4,3.6v45.7c0,2,1.5,3.6,3.5,3.6h23.7
			c2,0,3.6-1.6,3.5-3.6V27.2h13.4c1.3,0,2.3-1,2.3-2.3V8.7C54,7.4,52.9,6.4,51.7,6.4z M34.7,51.2H10.9c-1,0-1.8-0.9-1.8-1.9v-7.9
			h27.4v7.9C36.5,50.3,35.7,51.2,34.7,51.2z M36.5,39.7H9.1V3.6c0-1,0.8-1.9,1.8-1.9h23.7c1,0,1.8,0.9,1.8,1.9v2.8h-6.4
			c-1.3,0-2.3,1-2.3,2.3v25l8.5-6.5h0.3V39.7z M52.3,24.9c0,0.3-0.3,0.6-0.6,0.6h-16l-6.3,4.7V8.7c0-0.3,0.3-0.6,0.6-0.6h21.7
			c0.3,0,0.6,0.3,0.6,0.6V24.9z"/>
		<path fill="#5AAAFA" d="M47.8,12.5H33.9c-0.5,0-0.9,0.3-0.9,0.9c0,0.5,0.3,0.9,0.9,0.9h13.9c0.4,0,0.9-0.3,0.9-0.9
			S48.3,12.5,47.8,12.5z"/>
		<path fill="#5AAAFA" d="M47.8,18.8H33.9c-0.5,0-0.9,0.3-0.9,0.9s0.3,0.9,0.9,0.9h13.9c0.4,0,0.9-0.3,0.9-0.9S48.3,18.8,47.8,18.8z
			"/>
		<path fill="#5AAAFA" d="M22.8,44.7c-0.9,0-1.5,0.7-1.5,1.5s0.7,1.5,1.5,1.5s1.5-0.7,1.5-1.5S23.7,44.7,22.8,44.7z"/>
	</g>
</g>
</svg>
