<?xml version="1.0" encoding="utf-8"?>
<!-- Generator: Adobe Illustrator 18.0.0, SVG Export Plug-In . SVG Version: 6.00 Build 0)  -->
<!DOCTYPE svg PUBLIC "-//W3C//DTD SVG 1.1//EN" "http://www.w3.org/Graphics/SVG/1.1/DTD/svg11.dtd">
<svg version="1.1" xmlns="http://www.w3.org/2000/svg" xmlns:xlink="http://www.w3.org/1999/xlink" x="0px" y="0px"
	 viewBox="0 0 60 60" enable-background="new 0 0 60 60" xml:space="preserve">
<g id="locked">
	<g>
		<defs>
			<path id="SVGID_1_" d="M655.1-319.4c-0.9-8.2-7.8-14.6-16.2-14.6c-8.1,0-14.8,5.9-16,13.6c-0.7-0.1-1.4-0.2-2.2-0.2
				c-7.9,0-14.4,6.4-14.4,14.4c0,7.9,6.4,14.4,14.4,14.4h28.7c7.9,0,14.4-6.4,14.4-14.4C663.8-312.2,660.3-317.2,655.1-319.4z"/>
		</defs>
		<clipPath id="SVGID_2_">
			<use xlink:href="#SVGID_1_"  overflow="visible"/>
		</clipPath>
		<g clip-path="url(#SVGID_2_)">
			<defs>
				<rect id="SVGID_3_" x="-148.4" y="-1079.8" width="2919.2" height="1735.3"/>
			</defs>
			<clipPath id="SVGID_4_">
				<use xlink:href="#SVGID_3_"  overflow="visible"/>
			</clipPath>
		</g>
		
			<use xlink:href="#SVGID_1_"  overflow="visible" fill-rule="evenodd" clip-rule="evenodd" fill="none" stroke="#5AAAFA" stroke-width="1.3" stroke-linecap="round" stroke-miterlimit="10"/>
	</g>
	<g>
		<defs>
			<path id="SVGID_5_" d="M164-325.2c-1,0-1.9-0.8-1.9-1.8c0-1,0.8-1.8,1.9-1.8c1,0,1.9,0.8,1.9,1.8
				C165.9-325.9,165.1-325.2,164-325.2z M171.4-327.8c-0.5-3.5-3.6-6.3-7.4-6.3s-6.9,2.7-7.4,6.3h-7.5v1.8h7.5
				c0.5,3.5,3.6,6.3,7.4,6.3s6.9-2.7,7.4-6.3h33.6v-1.8H171.4z"/>
		</defs>
		<clipPath id="SVGID_6_">
			<use xlink:href="#SVGID_5_"  overflow="visible"/>
		</clipPath>
		<g clip-path="url(#SVGID_6_)">
			<defs>
				<rect id="SVGID_7_" x="-659.1" y="-859.5" width="3101.8" height="1843.8"/>
			</defs>
			<clipPath id="SVGID_8_">
				<use xlink:href="#SVGID_7_"  overflow="visible"/>
			</clipPath>
		</g>
	</g>
	<g>
		<defs>
			<path id="SVGID_9_" d="M190.1-310.8c-1,0-1.9-0.8-1.9-1.8s0.8-1.8,1.9-1.8c1,0,1.9,0.8,1.9,1.8S191.2-310.8,190.1-310.8z
				 M190.1-319.8c-3.8,0-6.9,2.7-7.4,6.3h-33.6v1.8h33.6c0.5,3.5,3.6,6.3,7.4,6.3c3.8,0,6.9-2.7,7.4-6.3h7.5v-1.8h-7.5
				C197.1-317.1,193.9-319.8,190.1-319.8z"/>
		</defs>
		<clipPath id="SVGID_10_">
			<use xlink:href="#SVGID_9_"  overflow="visible"/>
		</clipPath>
		<g clip-path="url(#SVGID_10_)">
			<defs>
				<rect id="SVGID_11_" x="-659.1" y="-859.5" width="3101.8" height="1843.8"/>
			</defs>
			<clipPath id="SVGID_12_">
				<use xlink:href="#SVGID_11_"  overflow="visible"/>
			</clipPath>
		</g>
	</g>
	<g>
		<defs>
			<path id="SVGID_13_" d="M164-296.5c-1,0-1.9-0.8-1.9-1.8s0.8-1.8,1.9-1.8c1,0,1.9,0.8,1.9,1.8S165.1-296.5,164-296.5z M164-305.5
				c-3.8,0-6.9,2.7-7.4,6.3h-7.5v1.8h7.5c0.5,3.5,3.6,6.3,7.4,6.3s6.9-2.7,7.4-6.3h33.6v-1.8h-33.6C171-302.7,167.8-305.5,164-305.5
				z"/>
		</defs>
		<clipPath id="SVGID_14_">
			<use xlink:href="#SVGID_13_"  overflow="visible"/>
		</clipPath>
		<g clip-path="url(#SVGID_14_)">
			<defs>
				<rect id="SVGID_15_" x="-659.1" y="-859.5" width="3101.8" height="1843.8"/>
			</defs>
			<clipPath id="SVGID_16_">
				<use xlink:href="#SVGID_15_"  overflow="visible"/>
			</clipPath>
		</g>
	</g>
	<g>
		<defs>
			<path id="SVGID_17_" d="M334.9-328.1c1.4,0,2.6,1.2,2.6,2.6c0,1.4-1.2,2.6-2.6,2.6s-2.6-1.2-2.6-2.6
				C332.3-326.9,333.5-328.1,334.9-328.1z M301-317.7h40v12.2h-40V-317.7z M301-303.8h40v12.2h-40V-303.8z M299.3-289.9h43.4v-43.4
				h-43.4V-289.9z"/>
		</defs>
		<clipPath id="SVGID_18_">
			<use xlink:href="#SVGID_17_"  overflow="visible"/>
		</clipPath>
		<g clip-path="url(#SVGID_18_)">
			<defs>
				<rect id="SVGID_19_" x="-957.3" y="-766.2" width="2582.2" height="1535"/>
			</defs>
			<clipPath id="SVGID_20_">
				<use xlink:href="#SVGID_19_"  overflow="visible"/>
			</clipPath>
		</g>
	</g>
</g>
<g id="Layer_1">
	<path fill="#5AAAFA" d="M55.6,1.7H4.4c-0.4,0-0.7,0.4-0.7,0.7v48.4c0,0.5,0.4,0.7,0.7,0.7h51.1c0.4,0,0.7-0.4,0.7-0.7V2.4
		C56.3,1.9,55.9,1.7,55.6,1.7z M5,15.2h49L37.2,37.6L15.7,26.1c-0.2-0.1-0.6-0.1-0.8,0.1L5,36.9V15.2z M54.8,3.1v10.6H5V3.1H54.8z
		 M5,50.2V39l10.5-11.5L37,39.2c0.1,0.1,0.2,0.1,0.4,0.1c0.1,0,0.4,0,0.5-0.4l17-22.5v33.8H5z"/>
</g>
</svg>
