<?xml version="1.0" encoding="utf-8"?>
<!-- Generator: Adobe Illustrator 18.0.0, SVG Export Plug-In . SVG Version: 6.00 Build 0)  -->
<!DOCTYPE svg PUBLIC "-//W3C//DTD SVG 1.1//EN" "http://www.w3.org/Graphics/SVG/1.1/DTD/svg11.dtd">
<svg version="1.1" xmlns="http://www.w3.org/2000/svg" xmlns:xlink="http://www.w3.org/1999/xlink" x="0px" y="0px"
	 viewBox="0 0 60 60" enable-background="new 0 0 60 60" xml:space="preserve">
<g id="locked">
	<g>
		<defs>
			<path id="SVGID_1_" d="M50.4-319.4c-0.9-8.2-7.8-14.6-16.2-14.6c-8.1,0-14.8,5.9-16,13.6c-0.7-0.1-1.4-0.2-2.2-0.2
				c-7.9,0-14.4,6.4-14.4,14.4c0,7.9,6.4,14.4,14.4,14.4h28.7c7.9,0,14.4-6.4,14.4-14.4C59.1-312.2,55.5-317.2,50.4-319.4z"/>
		</defs>
		<clipPath id="SVGID_2_">
			<use xlink:href="#SVGID_1_"  overflow="visible"/>
		</clipPath>
		<g clip-path="url(#SVGID_2_)">
			<defs>
				<rect id="SVGID_3_" x="-753.1" y="-1079.8" width="2919.2" height="1735.3"/>
			</defs>
			<clipPath id="SVGID_4_">
				<use xlink:href="#SVGID_3_"  overflow="visible"/>
			</clipPath>
		</g>
		
			<use xlink:href="#SVGID_1_"  overflow="visible" fill-rule="evenodd" clip-rule="evenodd" fill="none" stroke="#5AAAFA" stroke-width="1.3" stroke-linecap="round" stroke-miterlimit="10"/>
	</g>
	<g>
		<defs>
			<path id="SVGID_5_" d="M-440.7-325.2c-1,0-1.9-0.8-1.9-1.8c0-1,0.8-1.8,1.9-1.8s1.9,0.8,1.9,1.8
				C-438.8-325.9-439.7-325.2-440.7-325.2z M-433.3-327.8c-0.5-3.5-3.6-6.3-7.4-6.3c-3.8,0-6.9,2.7-7.4,6.3h-7.5v1.8h7.5
				c0.5,3.5,3.6,6.3,7.4,6.3c3.8,0,6.9-2.7,7.4-6.3h33.6v-1.8H-433.3z"/>
		</defs>
		<clipPath id="SVGID_6_">
			<use xlink:href="#SVGID_5_"  overflow="visible"/>
		</clipPath>
		<g clip-path="url(#SVGID_6_)">
			<defs>
				<rect id="SVGID_7_" x="-1263.8" y="-859.5" width="3101.8" height="1843.8"/>
			</defs>
			<clipPath id="SVGID_8_">
				<use xlink:href="#SVGID_7_"  overflow="visible"/>
			</clipPath>
		</g>
	</g>
	<g>
		<defs>
			<path id="SVGID_9_" d="M-414.6-310.8c-1,0-1.9-0.8-1.9-1.8s0.8-1.8,1.9-1.8s1.9,0.8,1.9,1.8S-413.5-310.8-414.6-310.8z
				 M-414.6-319.8c-3.8,0-6.9,2.7-7.4,6.3h-33.6v1.8h33.6c0.5,3.5,3.6,6.3,7.4,6.3c3.8,0,6.9-2.7,7.4-6.3h7.5v-1.8h-7.5
				C-407.6-317.1-410.8-319.8-414.6-319.8z"/>
		</defs>
		<clipPath id="SVGID_10_">
			<use xlink:href="#SVGID_9_"  overflow="visible"/>
		</clipPath>
		<g clip-path="url(#SVGID_10_)">
			<defs>
				<rect id="SVGID_11_" x="-1263.8" y="-859.5" width="3101.8" height="1843.8"/>
			</defs>
			<clipPath id="SVGID_12_">
				<use xlink:href="#SVGID_11_"  overflow="visible"/>
			</clipPath>
		</g>
	</g>
	<g>
		<defs>
			<path id="SVGID_13_" d="M-440.7-296.5c-1,0-1.9-0.8-1.9-1.8s0.8-1.8,1.9-1.8s1.9,0.8,1.9,1.8S-439.7-296.5-440.7-296.5z
				 M-440.7-305.5c-3.8,0-6.9,2.7-7.4,6.3h-7.5v1.8h7.5c0.5,3.5,3.6,6.3,7.4,6.3c3.8,0,6.9-2.7,7.4-6.3h33.6v-1.8h-33.6
				C-433.7-302.7-436.9-305.5-440.7-305.5z"/>
		</defs>
		<clipPath id="SVGID_14_">
			<use xlink:href="#SVGID_13_"  overflow="visible"/>
		</clipPath>
		<g clip-path="url(#SVGID_14_)">
			<defs>
				<rect id="SVGID_15_" x="-1263.8" y="-859.5" width="3101.8" height="1843.8"/>
			</defs>
			<clipPath id="SVGID_16_">
				<use xlink:href="#SVGID_15_"  overflow="visible"/>
			</clipPath>
		</g>
	</g>
	<g>
		<defs>
			<path id="SVGID_17_" d="M-269.8-328.1c1.4,0,2.6,1.2,2.6,2.6c0,1.4-1.2,2.6-2.6,2.6s-2.6-1.2-2.6-2.6
				C-272.4-326.9-271.2-328.1-269.8-328.1z M-303.7-317.7h40v12.2h-40V-317.7z M-303.7-303.8h40v12.2h-40V-303.8z M-305.4-289.9
				h43.4v-43.4h-43.4V-289.9z"/>
		</defs>
		<clipPath id="SVGID_18_">
			<use xlink:href="#SVGID_17_"  overflow="visible"/>
		</clipPath>
		<g clip-path="url(#SVGID_18_)">
			<defs>
				<rect id="SVGID_19_" x="-1562" y="-766.2" width="2582.2" height="1535"/>
			</defs>
			<clipPath id="SVGID_20_">
				<use xlink:href="#SVGID_19_"  overflow="visible"/>
			</clipPath>
		</g>
	</g>
</g>
<g id="Layer_1">
	<g>
		<path fill="#5AAAFA" d="M40.2,20.9V9.8C40.2,4.4,35.6,0,30,0c-5.6,0-10.2,4.4-10.2,9.8v11.1c-5.7,3.3-9.5,9.3-9.5,16.1
			c0,10.4,8.8,18.8,19.7,18.8c10.8,0,19.7-8.5,19.7-18.8C49.7,30.1,45.9,24.2,40.2,20.9z M21.3,9.8c0-4.5,3.9-8.3,8.7-8.3
			c4.8,0,8.7,3.8,8.7,8.3v10.3c-2.6-1.2-5.5-1.9-8.7-1.9c-3.1,0-6,0.7-8.7,1.9V9.8z M30,54.2c-10,0-18.2-7.8-18.2-17.3
			c0-9.5,8.2-17.3,18.2-17.3c9.9,0,18.1,7.8,18.2,17.3C48.2,46.4,40,54.2,30,54.2z"/>
		<path fill="#5AAAFA" d="M30,32.1c-1.9,0-3.4,1.4-3.4,3.1c0,1.4,0.9,2.5,2.1,2.9v5.5c0,0.6,0.5,1.3,1.3,1.3s1.3-0.5,1.3-1.3v-5.5
			c1.3-0.4,2.1-1.5,2.1-2.9C33.4,33.5,31.9,32.1,30,32.1z"/>
	</g>
</g>
</svg>
