<?xml version="1.0" encoding="utf-8"?>
<!-- Generator: Adobe Illustrator 19.1.0, SVG Export Plug-In . SVG Version: 6.00 Build 0)  -->
<svg version="1.1" id="Layer_1" xmlns="http://www.w3.org/2000/svg" xmlns:xlink="http://www.w3.org/1999/xlink" x="0px" y="0px"
	 viewBox="0 0 168 100" style="enable-background:new 0 0 168 100;" xml:space="preserve">
<g>
	<g>
		<path style="fill:none;stroke:#264A60;" d="M154.3,85h-37.5c-0.6,0-1-0.4-1-1V16c0-0.6,0.4-1,1-1h37.5c0.6,0,1,0.4,1,1v68
			C155.3,84.6,154.9,85,154.3,85z"/>
		<rect x="115.8" y="24" style="fill:none;stroke:#264A60;" width="39.5" height="53"/>
		<rect x="121" y="80.7" style="fill:#264A60;" width="3.9" height="1"/>
		<rect x="134.4" y="80" style="fill:#264A60;" width="1" height="1"/>
		<rect x="135.7" y="80" style="fill:#264A60;" width="1" height="1"/>
		<rect x="134.4" y="81.4" style="fill:#264A60;" width="1" height="1"/>
		<rect x="135.7" y="81.4" style="fill:#264A60;" width="1" height="1"/>
		<rect x="146.2" y="80.7" style="fill:#264A60;" width="3.9" height="1"/>
		<line style="fill:none;stroke:#264A60;stroke-linecap:round;" x1="132.1" y1="20" x2="138" y2="20"/>
		<g>
			<polygon style="fill:#7CC7FF;" points="133.7,50.1 125.2,50.1 125.2,43 133.7,41.7 			"/>
			<polygon style="fill:#7CC7FF;" points="133.7,59.3 125.2,58.2 125.2,51 133.7,51 			"/>
			<polygon style="fill:#7CC7FF;" points="145.9,50.1 134.7,50.1 134.7,41.7 145.9,40 			"/>
			<polygon style="fill:#7CC7FF;" points="145.9,61 134.7,59.4 134.7,51 145.9,51 			"/>
		</g>
	</g>
	<g>
		<path style="fill:none;stroke:#264A60;" d="M101,85H65.5c-1.1,0-2-0.9-2-2V17c0-1.1,0.9-2,2-2H101c1.1,0,2,0.9,2,2v66
			C103,84.1,102.1,85,101,85z"/>
		<rect x="63.5" y="24" style="fill:none;stroke:#264A60;" width="39.5" height="53"/>
		<g>
			<path style="fill-rule:evenodd;clip-rule:evenodd;fill:#7CC7FF;" d="M93.1,44.6c-0.9,0-1.6,0.7-1.6,1.6v6.4
				c0,0.9,0.7,1.6,1.6,1.6c0.9,0,1.6-0.7,1.6-1.6v-6.4C94.7,45.4,94,44.6,93.1,44.6z M73.9,44.6c-0.9,0-1.6,0.7-1.6,1.6v6.4
				c0,0.9,0.7,1.6,1.6,1.6s1.6-0.7,1.6-1.6v-6.4C75.5,45.4,74.7,44.6,73.9,44.6z"/>
		</g>
		<g>
			<path style="fill-rule:evenodd;clip-rule:evenodd;fill:#7CC7FF;" d="M76.4,44.7v11.7c0,0.7,0.6,1.3,1.2,1.3h1.4v3.6
				c0,0.9,0.7,1.6,1.6,1.6c0.9,0,1.6-0.7,1.6-1.6v-3.6h2.5v3.6c0,0.9,0.7,1.6,1.6,1.6c0.9,0,1.6-0.7,1.6-1.6v-3.6h1.4
				c0.7,0,1.2-0.6,1.2-1.3V44.7H76.4z"/>
		</g>
		<g>
			<path style="fill-rule:evenodd;clip-rule:evenodd;fill:#7CC7FF;" d="M86.8,38.6l1.3-1.9c0.1-0.1,0.1-0.3,0-0.3
				c-0.1-0.1-0.2,0-0.3,0.1l-1.4,2c-0.9-0.4-1.9-0.6-2.9-0.6c-1,0-2,0.2-2.9,0.6l-1.4-2c-0.1-0.1-0.2-0.1-0.3-0.1
				c-0.1,0.1-0.1,0.2,0,0.3l1.3,1.9c-2.1,1-3.5,2.8-3.7,5h14.2C90.4,41.4,88.9,39.6,86.8,38.6z M80.5,41.6c-0.4,0-0.8-0.4-0.8-0.8
				c0-0.4,0.4-0.8,0.8-0.8c0.4,0,0.8,0.4,0.8,0.8C81.3,41.3,80.9,41.6,80.5,41.6z M86.6,41.6c-0.4,0-0.8-0.4-0.8-0.8
				c0-0.4,0.4-0.8,0.8-0.8s0.8,0.4,0.8,0.8C87.3,41.3,87,41.6,86.6,41.6z"/>
		</g>
		<rect x="81.8" y="80.5" style="fill:#264A60;" width="3" height="2"/>
		<line style="fill:none;stroke:#264A60;stroke-linecap:round;" x1="79.8" y1="20" x2="85.7" y2="20"/>
	</g>
	<g>
		<path style="fill-rule:evenodd;clip-rule:evenodd;fill:#7CC7FF;" d="M31.6,40.1c1.5-2.1,3.7-2.1,3.7-2.1s0.3,1.9-1.2,3.8
			c-1.6,2-3.5,1.7-3.5,1.7S30.2,42,31.6,40.1z"/>
		<path style="fill-rule:evenodd;clip-rule:evenodd;fill:#7CC7FF;" d="M30.7,44.9c0.8,0,2.3-1.1,4.2-1.1c3.3,0,4.6,2.4,4.6,2.4
			S37,47.5,37,50.7c0,3.6,3.2,4.9,3.2,4.9S38,61.9,35,61.9c-1.4,0-2.4-0.9-3.9-0.9c-1.5,0-2.9,1-3.9,1c-2.7,0-6.2-6-6.2-10.8
			c0-4.8,2.9-7.2,5.7-7.2C28.4,43.9,29.8,44.9,30.7,44.9z"/>
	</g>
	<g>
		<path style="fill:none;stroke:#264A60;" d="M45.3,85H15.7c-1.7,0-3-1.3-3-3V18c0-1.7,1.3-3,3-3h29.6c1.7,0,3,1.3,3,3v64
			C48.3,83.7,46.9,85,45.3,85z"/>
		<rect x="12.7" y="23.5" style="fill:none;stroke:#264A60;" width="35.6" height="53"/>
		<ellipse style="fill:#264A60;" cx="30.9" cy="80.2" rx="1.5" ry="1.6"/>
		<path style="fill:#264A60;" d="M34.7,19.7c0,0.2-0.2,0.4-0.3,0.4h-7c-0.2,0-0.3-0.2-0.3-0.4l0,0c0-0.2,0.2-0.4,0.3-0.4h7
			C34.5,19.3,34.7,19.5,34.7,19.7L34.7,19.7z"/>
	</g>
</g>
</svg>
