<?xml version="1.0" encoding="utf-8"?>
<!-- Generator: Adobe Illustrator 19.1.0, SVG Export Plug-In . SVG Version: 6.00 Build 0)  -->
<svg version="1.1" id="Layer_1" xmlns="http://www.w3.org/2000/svg" xmlns:xlink="http://www.w3.org/1999/xlink" x="0px" y="0px"
	 viewBox="0 0 100 100" style="enable-background:new 0 0 100 100;" xml:space="preserve">
<g>
	<path style="fill:none;stroke:#264A60;" d="M68.5,20.6c0-3.2-2.8-6.1-6.2-6.1H38.4c-3.4,0-6.9,2.9-6.9,6.1v58.8
		c0,3.2,3.5,6.1,6.9,6.1h23.9c3.4,0,6.2-2.9,6.2-6.1V20.6z"/>
	<rect x="31.5" y="23.5" style="fill:none;stroke:#264A60;" width="37" height="53"/>
	<circle style="fill:#264A60;" cx="50.1" cy="80.5" r="1.6"/>
	<path style="fill:#264A60;" d="M54,18.5c0,0.3-0.2,0.5-0.5,0.5h-7c-0.3,0-0.5-0.2-0.5-0.5v0c0-0.3,0.2-0.5,0.5-0.5h7
		C53.8,18,54,18.2,54,18.5L54,18.5z"/>
	<path style="fill-rule:evenodd;clip-rule:evenodd;fill:#7CC7FF;" d="M51.1,37.8c1.6-2.1,3.9-2.1,3.9-2.1s0.3,2-1.3,3.9
		C52,41.6,50,41.3,50,41.3S49.6,39.7,51.1,37.8z"/>
	<path style="fill-rule:evenodd;clip-rule:evenodd;fill:#7CC7FF;" d="M50.2,42.7c0.8,0,2.4-1.1,4.4-1.1c3.4,0,4.8,2.5,4.8,2.5
		s-2.7,1.4-2.7,4.6c0,3.7,3.3,5,3.3,5s-2.3,6.5-5.4,6.5c-1.4,0-2.5-1-4.1-1c-1.5,0-3.1,1-4.1,1C43.6,60.2,40,54,40,49
		c0-4.9,3-7.4,5.9-7.4C47.8,41.6,49.2,42.7,50.2,42.7z"/>
</g>
</svg>
