<?xml version="1.0" encoding="utf-8"?>
<!-- Generator: Adobe Illustrator 19.2.1, SVG Export Plug-In . SVG Version: 6.00 Build 0)  -->
<svg version="1.1" id="Layer_1" xmlns="http://www.w3.org/2000/svg" xmlns:xlink="http://www.w3.org/1999/xlink" x="0px" y="0px"
	 viewBox="0 0 100 100" style="enable-background:new 0 0 100 100;" xml:space="preserve">
<style type="text/css">
	.st0{fill:none;stroke:#264A60;stroke-linejoin:round;}
	.st1{fill:none;stroke:#264A60;}
	.st2{fill:#264A60;}
	.st3{fill:none;stroke:#264A60;stroke-linecap:round;}
	.st4{fill:#7CC7FF;}
</style>
<g>
	<path class="st0" d="M69.5,82.5c0,1.7-1.3,3-3,3h-34c-1.7,0-3-1.3-3-3v-64c0-1.7,1.3-3,3-3h34c1.7,0,3,1.3,3,3V82.5z"/>
	<rect x="29.5" y="24.5" class="st1" width="40" height="53"/>
	<rect x="48" y="81" class="st2" width="3" height="2"/>
	<line class="st3" x1="46" y1="20.5" x2="52" y2="20.5"/>
	<g>
		<path class="st4" d="M48.7,56.1c1.1-0.7,2.3-1.3,3.4-2c0.1,0.1,0.1,0.2,0.2,0.2c0.6,0.9,1.2,1.6,2.2,2c1,0.4,2.1,0.5,3.1,0.1
			c0.7-0.2,1.2-0.7,1.4-1.4c0.2-0.7,0-1.3-0.5-1.8c-0.3-0.3-0.6-0.5-1-0.7c-0.9-0.4-1.9-0.8-2.8-1.3c-0.7-0.4-1.5-0.7-2.1-1.2
			C50.8,49,50,47.3,50,45.1c0-2.6,1.6-4.6,4.2-5.2c1.4-0.4,2.9-0.3,4.3,0.1c1.6,0.5,2.7,1.5,3.5,2.9c0,0,0,0.1,0,0.1
			c-1.1,0.7-2.1,1.4-3.2,2.1c-0.1-0.2-0.2-0.3-0.3-0.5c-0.4-0.6-0.9-1-1.6-1.2c-0.5-0.1-1-0.1-1.5,0c-1.6,0.5-1.6,2.3-0.8,3
			c0.3,0.3,0.7,0.5,1,0.7c0.8,0.4,1.6,0.7,2.3,1.1c1.1,0.5,2.2,1,3.2,1.8c1.4,1.1,2,2.5,2.1,4.2c0,1.1-0.1,2.2-0.7,3.2
			c-0.7,1.2-1.7,2-3.1,2.5c-2.7,0.9-5.4,0.7-7.9-0.7C50.4,58.5,49.4,57.5,48.7,56.1z"/>
		<path class="st4" d="M42.3,39.9c1.4,0,2.8,0,4.2,0c0,0.1,0,0.2,0,0.3c0,4.6,0,9.2,0,13.8c0,1-0.1,1.9-0.4,2.8
			c-0.5,1.6-1.6,2.7-3.2,3.2c-1.9,0.6-3.8,0.6-5.7-0.2c-1.3-0.6-2.5-1.7-3.1-3.2c1.1-0.7,2.2-1.4,3.4-2c0.1,0.1,0.1,0.2,0.2,0.3
			c0.3,0.5,0.6,0.9,1,1.3c0.7,0.6,2,0.8,2.8,0.3c0.6-0.3,0.8-0.8,0.9-1.4c0.1-0.4,0.1-0.7,0.1-1.1c0-4.6,0-9.1,0-13.7
			C42.3,40.1,42.3,40,42.3,39.9z"/>
	</g>
</g>
</svg>
