<?xml version="1.0" encoding="utf-8"?>
<!-- Generator: Adobe Illustrator 19.1.0, SVG Export Plug-In . SVG Version: 6.00 Build 0)  -->
<svg version="1.1" id="Layer_1" xmlns="http://www.w3.org/2000/svg" xmlns:xlink="http://www.w3.org/1999/xlink" x="0px" y="0px"
	 viewBox="0 0 100 100" style="enable-background:new 0 0 100 100;" xml:space="preserve">
<g>
	<path style="fill:none;stroke:#264A60;stroke-linejoin:round;" d="M69.5,84.5c0,0.6-0.4,1-1,1h-38c-0.6,0-1-0.4-1-1v-68
		c0-0.6,0.4-1,1-1h38c0.6,0,1,0.4,1,1V84.5z"/>
	<rect x="29.5" y="24.5" style="fill:none;stroke:#264A60;" width="40" height="53"/>
	<rect x="34.7" y="81.2" style="fill:#264A60;" width="4" height="1"/>
	<rect x="48.3" y="80.5" style="fill:#264A60;" width="1" height="1"/>
	<rect x="49.7" y="80.5" style="fill:#264A60;" width="1" height="1"/>
	<rect x="48.3" y="81.9" style="fill:#264A60;" width="1" height="1"/>
	<rect x="49.7" y="81.9" style="fill:#264A60;" width="1" height="1"/>
	<rect x="60.3" y="81.2" style="fill:#264A60;" width="4" height="1"/>
	<line style="fill:none;stroke:#264A60;stroke-linecap:round;" x1="46" y1="20.5" x2="52" y2="20.5"/>
	<g>
		<polygon style="fill:#7CC7FF;" points="47.6,50.6 39,50.6 39,43.5 47.6,42.2 		"/>
		<polygon style="fill:#7CC7FF;" points="47.6,59.8 39,58.7 39,51.5 47.6,51.5 		"/>
		<polygon style="fill:#7CC7FF;" points="60,50.6 48.7,50.6 48.7,42.2 60,40.5 		"/>
		<polygon style="fill:#7CC7FF;" points="60,61.5 48.7,59.9 48.7,51.5 60,51.5 		"/>
	</g>
</g>
</svg>
