<?xml version="1.0" encoding="utf-8"?>
<!-- Generator: Adobe Illustrator 19.1.0, SVG Export Plug-In . SVG Version: 6.00 Build 0)  -->
<svg version="1.1" id="Layer_1" xmlns="http://www.w3.org/2000/svg" xmlns:xlink="http://www.w3.org/1999/xlink" x="0px" y="0px"
	 viewBox="0 0 60 50" style="enable-background:new 0 0 60 50;" xml:space="preserve">
<g>
	<path style="fill:#FFFFFF;stroke:#1D3649;" d="M53.8,44.5H6.2c-1.7,0-3-1.4-3-3v-33c0-1.7,1.4-3,3-3h47.7c1.6,0,3,1.3,3,3v33
		C56.8,43.1,55.5,44.5,53.8,44.5z"/>
	<line style="fill:none;stroke:#1D3649;" x1="3.2" y1="12.8" x2="56.8" y2="12.8"/>
	<circle style="fill:#264A60;" cx="6" cy="9.9" r="0.8"/>
	<circle style="fill:#264A60;" cx="8.6" cy="9.9" r="0.8"/>
	<circle style="fill:#264A60;" cx="11.3" cy="9.9" r="0.8"/>
	<path style="fill:none;stroke:#1D3649;" d="M17.3,38.9h-4V25.3c0-0.6,0.5-1.1,1.1-1.1h1.9c0.5,0,1,0.4,1,1V38.9z"/>
	<path style="fill:none;stroke:#1D3649;" d="M25.4,38.9h-4v-9.2c0-0.4,0.3-0.7,0.7-0.7h2.7c0.4,0,0.7,0.3,0.7,0.7V38.9z"/>
	<path style="fill:none;stroke:#1D3649;" d="M29.8,38.9h-4.4V35c0-0.7,0.6-1.2,1.2-1.2h1.8c0.8,0,1.4,0.6,1.4,1.4V38.9z"/>
	<path style="fill:none;stroke:#1D3649;" d="M21.4,38.9h-4V19.6c0-0.3,0.3-0.6,0.6-0.6h2.7c0.4,0,0.8,0.3,0.8,0.8V38.9z"/>
	<line style="fill:none;stroke:#1D3649;" x1="17.5" y1="24.6" x2="21.5" y2="24.6"/>
	<line style="fill:none;stroke:#1D3649;" x1="17.5" y1="29.3" x2="21.5" y2="29.3"/>
	<line style="fill:none;stroke:#1D3649;" x1="17.5" y1="34.1" x2="21.5" y2="34.1"/>
	<g>
		<circle style="fill:none;stroke:#1D3649;" cx="37.4" cy="37.5" r="1.5"/>
		<circle style="fill:none;stroke:#1D3649;" cx="42.3" cy="37.5" r="1.5"/>
	</g>
	<g>
		<circle style="fill:#C0E6FF;stroke:#1D3649;" cx="39.8" cy="25.7" r="6.5"/>
		<line style="fill:#C0E6FF;stroke:#1D3649;" x1="39.7" y1="19.2" x2="39.7" y2="25.9"/>
		<line style="fill:#C0E6FF;stroke:#1D3649;" x1="46.2" y1="26" x2="39.6" y2="26"/>
	</g>
</g>
</svg>
