<?xml version="1.0" encoding="utf-8"?>
<!-- Generator: Adobe Illustrator 19.1.0, SVG Export Plug-In . SVG Version: 6.00 Build 0)  -->
<svg version="1.1" id="Layer_1" xmlns="http://www.w3.org/2000/svg" xmlns:xlink="http://www.w3.org/1999/xlink" x="0px" y="0px"
	 viewBox="0 0 50 50" style="enable-background:new 0 0 50 50;" xml:space="preserve">
<g>
	<path style="fill:none;stroke:#1D3649;" d="M17.7,24.9V14.3c0-0.2,0-0.4,0-0.6c0-4.1,2.9-7.4,7-7.4c4,0,7.1,3.8,7.1,7.8v10.8"/>
	<path style="fill:#FFFFFF;stroke:#1D3649;" d="M34,43.7H16c-1.7,0-3-1.3-3-3v-18c0-1.7,1.3-3,3-3h18c1.7,0,3,1.3,3,3v18
		C37,42.4,35.7,43.7,34,43.7z"/>
	<path style="fill:#FFFFFF;stroke:#1D3649;" d="M27.9,29.4c0-1.8-1.6-3.2-3.4-2.8c-1.1,0.2-2,1.2-2.2,2.3c-0.2,1.1,0.3,2.2,1.2,2.8
		c0.1,0.1,0.2,0.2,0.2,0.3v4.6h2.9V32c0-0.1,0.1-0.2,0.2-0.3C27.4,31.2,27.9,30.4,27.9,29.4z"/>
</g>
</svg>
