<?xml version="1.0" encoding="utf-8"?>
<!-- Generator: Adobe Illustrator 19.1.0, SVG Export Plug-In . SVG Version: 6.00 Build 0)  -->
<svg version="1.1" id="Layer_1" xmlns="http://www.w3.org/2000/svg" xmlns:xlink="http://www.w3.org/1999/xlink" x="0px" y="0px"
	 viewBox="0 0 50 50" style="enable-background:new 0 0 50 50;" xml:space="preserve">
<g>
	<circle style="fill:#FFFFFF;stroke:#264A60;" cx="25" cy="25" r="20.2"/>
	<line style="fill:none;stroke:#264A60;" x1="24.8" y1="24.9" x2="31.6" y2="24.9"/>
	<line style="fill:none;stroke:#264A60;" x1="24.4" y1="20" x2="30.7" y2="13.7"/>
	<line style="fill:none;stroke:#264A60;" x1="30.6" y1="37" x2="24.2" y2="30.7"/>
	<polygon style="fill:#C0E6FF;stroke:#264A60;" points="31.2,37.6 28.4,37.7 27.5,35 29.7,33.3 32,34.9 	"/>
	<polygon style="fill:#C0E6FF;stroke:#264A60;" points="30.6,26.8 32.8,23.1 34.9,26.8 	"/>
	<circle style="fill:#C0E6FF;stroke:#264A60;" cx="29.8" cy="14.7" r="2.4"/>
	<g>
		<path style="fill:#FFFFFF;stroke:#264A60;" d="M24.3,31.6h-9.6c-0.6,0-1-0.4-1-1V20.1c0-0.6,0.4-1,1-1h9.6c0.6,0,1,0.4,1,1v10.5
			C25.3,31.2,24.9,31.6,24.3,31.6z"/>
		<line style="fill:none;stroke:#264A60;" x1="13.3" y1="27.8" x2="24.8" y2="27.8"/>
		<line style="fill:none;stroke:#264A60;" x1="13.3" y1="22.9" x2="24.8" y2="22.9"/>
	</g>
</g>
</svg>
