<?xml version="1.0" encoding="utf-8"?>
<!-- Generator: Adobe Illustrator 19.1.0, SVG Export Plug-In . SVG Version: 6.00 Build 0)  -->
<svg version="1.1" id="Layer_1" xmlns="http://www.w3.org/2000/svg" xmlns:xlink="http://www.w3.org/1999/xlink" x="0px" y="0px"
	 viewBox="-449 256 60 50" style="enable-background:new -449 256 60 50;" xml:space="preserve">
<path style="fill:#FFFFFF;stroke:#1D3649;" d="M-395.2,300.5h-47.6c-1.7,0-3-1.4-3-3v-33c0-1.7,1.4-3,3-3h47.7c1.6,0,3,1.3,3,3v33
	C-392.2,299.1-393.5,300.5-395.2,300.5z"/>
<line style="fill:none;stroke:#1D3649;" x1="-445.8" y1="268.8" x2="-392.2" y2="268.8"/>
<circle style="fill:#264A60;" cx="-443" cy="265.9" r="0.8"/>
<circle style="fill:#264A60;" cx="-440.4" cy="265.9" r="0.8"/>
<circle style="fill:#264A60;" cx="-437.7" cy="265.9" r="0.8"/>
<path style="fill:none;stroke:#264A60;" d="M-410,284.5v-4.8c0-0.1,0-0.2,0-0.3c0-1.9,1.2-3.4,3.1-3.4c1.9,0,3.1,1.8,3.1,3.6v4.9"/>
<path style="fill:#C0E6FF;stroke:#1D3649;" d="M-402.5,292h-8.8c-0.6,0-1-0.4-1-1v-8.8c0-0.6,0.4-1,1-1h8.8c0.6,0,1,0.4,1,1v8.8
	C-401.5,291.5-401.9,292-402.5,292z"/>
<line style="fill:#FFFFFF;stroke:#1D3649;" x1="-420.6" y1="278.9" x2="-438.6" y2="278.9"/>
<line style="fill:#FFFFFF;stroke:#1D3649;" x1="-420.6" y1="284.3" x2="-438.6" y2="284.3"/>
<line style="fill:#FFFFFF;stroke:#1D3649;" x1="-420.6" y1="290.2" x2="-438.5" y2="290"/>
<circle style="fill:#C0E6FF;stroke:#1D3649;" cx="-433.5" cy="278.9" r="1.9"/>
<circle style="fill:#C0E6FF;stroke:#1D3649;" cx="-425.2" cy="284.3" r="1.9"/>
<circle style="fill:#C0E6FF;stroke:#1D3649;" cx="-433.5" cy="290.1" r="1.9"/>
<g>
	<circle style="fill:#1D3649;" cx="-406.9" cy="286.1" r="1.3"/>
	<rect x="-407.6" y="286.1" style="fill:#1D3649;" width="1.5" height="3"/>
</g>
</svg>
