<svg xmlns="http://www.w3.org/2000/svg" viewBox="0 0 228 180.7"><defs><style>.a,.h{fill:#fff;}.b{fill:#1d3749;}.c{fill:#010101;}.d{fill:#c2e4f8;}.e{fill:#1d1d1b;}.f{fill:#b3dfd8;}.g{fill:#5f93ce;}.h{stroke:#1d3749;stroke-width:6px;}.i{fill:none;}</style></defs><title>01_Mobile_Analytics</title><rect class="a" x="57.4" y="25.5" width="113.2" height="83.03" rx="8.4" ry="8.4"/><path class="b" d="M107.6,85.5H8a8,8,0,0,1-8-8V8A8,8,0,0,1,8,0h99.6a8,8,0,0,1,8,8V77.5A8,8,0,0,1,107.6,85.5ZM8,2.5A5.6,5.6,0,0,0,2.5,8V77.5A5.6,5.6,0,0,0,8,83h99.6a5.6,5.6,0,0,0,5.6-5.6V8a5.6,5.6,0,0,0-5.6-5.6Z" transform="translate(56.1 24.2)"/><rect class="b" x="57.5" y="35" width="112.9" height="2.46"/><circle class="c" cx="65.5" cy="31.1" r="1.7"/><circle class="c" cx="71.1" cy="31.1" r="1.7"/><circle class="c" cx="76.7" cy="31.1" r="1.7"/><path class="a" d="M55.6,70.5H46.8V59.2h7A1.8,1.8,0,0,1,55.6,61Z" transform="translate(56.1 24.2)"/><path class="b" d="M56.6,71.5H45.9V58.3h7.9A2.7,2.7,0,0,1,56.6,61Zm-8.8-1.8h7V61a.9.9,0,0,0-.9-.9H47.8Z" transform="translate(56.1 24.2)"/><path class="a" d="M38,70.5H29.3V59.2H38Z" transform="translate(56.1 24.2)"/><path class="b" d="M39,71.5H28.3V58.3H39Zm-8.8-1.8h7V60.1h-7Z" transform="translate(56.1 24.2)"/><rect class="d" x="86.3" y="73" width="9" height="11"/><path class="e" d="M39.2,60.8h-10v-13h10Zm-9-2h9v-9h-9Z" transform="translate(56.1 24.2)"/><rect class="d" x="86.3" y="62" width="9" height="11"/><path class="e" d="M39.2,49.8h-10v-13h10Zm-9-2h9v-10h-9Z" transform="translate(56.1 24.2)"/><path class="a" d="M29.3,70.7V27.6A1.8,1.8,0,0,1,31,25.8h5.3A1.8,1.8,0,0,1,38,27.6V70.7" transform="translate(56.1 24.2)"/><path class="b" d="M39,70.7H37.1V27.6a.8.8,0,0,0-.8-.8H31a.9.9,0,0,0-.9.9V70.7H28.3V27.6A2.7,2.7,0,0,1,31,24.9h5.3A2.7,2.7,0,0,1,39,27.6Z" transform="translate(56.1 24.2)"/><circle class="a" cx="130.6" cy="91.6" r="3.4"/><path class="b" d="M74.5,71.6a4.3,4.3,0,1,1,4.3-4.3A4.3,4.3,0,0,1,74.5,71.6Zm0-6.7A2.4,2.4,0,1,0,77,67.3,2.4,2.4,0,0,0,74.5,64.9Z" transform="translate(56.1 24.2)"/><circle class="a" cx="141.6" cy="91.6" r="3.4"/><path class="b" d="M85.5,71.6a4.3,4.3,0,1,1,4.3-4.3A4.3,4.3,0,0,1,85.5,71.6Zm0-6.7A2.4,2.4,0,1,0,88,67.3,2.4,2.4,0,0,0,85.5,64.9Z" transform="translate(56.1 24.2)"/><circle class="f" cx="136.1" cy="65.2" r="14.6"/><path class="g" d="M80,56.4A15.4,15.4,0,1,1,95.4,41,15.4,15.4,0,0,1,80,56.4Zm0-29.3A13.9,13.9,0,1,0,93.9,41,13.9,13.9,0,0,0,80,27.1Z" transform="translate(56.1 24.2)"/><polyline class="f" points="137.3 51 137.3 67 150.3 67"/><polygon class="g" points="150.2 67 135.4 67 135.3 50.7 136.9 51.5 136.9 65.4 150.3 65.3 150.2 67"/><path class="a" d="M38,70.7V48.2h7A1.8,1.8,0,0,1,46.8,50V70.7" transform="translate(56.1 24.2)"/><path class="b" d="M47.8,70.7H45.9V50a.9.9,0,0,0-.9-.9H39V70.7H37.1V47.3h7.9A2.7,2.7,0,0,1,47.8,50Z" transform="translate(56.1 24.2)"/><path class="h" d="M38.1,70.7" transform="translate(56.1 24.2)"/><path class="h" d="M29.3,70.7" transform="translate(56.1 24.2)"/><path class="h" d="M29.3,70.7" transform="translate(56.1 24.2)"/><path class="h" d="M20.5,70.7" transform="translate(56.1 24.2)"/><path class="a" d="M47,70.5H20.5V38.2a1.8,1.8,0,0,1,1.8-1.8h7V70.7" transform="translate(56.1 24.2)"/><path class="b" d="M47,71.5H19.5V38.2a2.7,2.7,0,0,1,2.7-2.7h7.9V69.6H47ZM21.4,69.6h7V37.4H22.2a.9.9,0,0,0-.8.8Z" transform="translate(56.1 24.2)"/><line class="a" x1="85.4" y1="60.7" x2="94.2" y2="60.7"/><rect class="b" x="85.4" y="59.8" width="8.8" height="1.85"/><line class="a" x1="85.4" y1="72.5" x2="94.2" y2="72.5"/><rect class="b" x="85.4" y="71.6" width="8.8" height="1.85"/><line class="a" x1="85.4" y1="83.4" x2="94.2" y2="83.4"/><rect class="b" x="85.4" y="82.5" width="8.8" height="1.85"/><path class="b" d="M30,102h2.6l4.5,12,4.5-12h2.6v14.3H42.5V104.4h0l-4.5,11.9H36.3l-4.5-11.9h0v11.9H30Z" transform="translate(56.1 24.2)"/><path class="b" d="M51.2,105.7c3.3,0,5,2.4,5,5.4s-1.7,5.4-5,5.4-5-2.4-5-5.4S47.9,105.7,51.2,105.7Zm0,9.3c1.8,0,3.2-1.4,3.2-3.9s-1.4-3.9-3.2-3.9-3.2,1.4-3.2,3.9S49.4,115,51.2,115Z" transform="translate(56.1 24.2)"/><path class="b" d="M57.9,102h1.7v5.3h0a3.5,3.5,0,0,1,3.3-1.6c3.2,0,4.8,2.5,4.8,5.4s-1.6,5.4-4.7,5.4a4,4,0,0,1-3.3-1.6h0v1.4H57.9Zm4.8,5.2c-2.3,0-3.2,2-3.2,3.9s.9,3.9,3.3,3.9,3.1-2,3.1-4S64.9,107.2,62.7,107.2Z" transform="translate(56.1 24.2)"/><path class="b" d="M71.2,104.1H69.5V102h1.7ZM69.5,106h1.7v10.3H69.5Z" transform="translate(56.1 24.2)"/><path class="b" d="M73.4,102h1.7v14.3H73.4Z" transform="translate(56.1 24.2)"/><path class="b" d="M86.2,113a4.1,4.1,0,0,1-4.4,3.5c-3.3,0-4.9-2.3-5-5.4s2-5.4,4.9-5.4,4.8,3.4,4.7,5.9H78.6a3,3,0,0,0,3.2,3.4,2.5,2.5,0,0,0,2.7-2Zm-1.6-2.9a3,3,0,0,0-3-2.9,2.9,2.9,0,0,0-3,2.9Z" transform="translate(56.1 24.2)"/><path class="b" d="M23.2,125h2.1l5.6,14.3H28.8L27.3,135h-6l-1.6,4.3h-2Zm-1.4,8.4h4.8l-2.4-6.7h0Z" transform="translate(56.1 24.2)"/><path class="b" d="M32.3,129h1.6v1.6h0a3.6,3.6,0,0,1,3.4-1.9c2.7,0,3.6,1.6,3.6,3.8v6.8H39.1v-7a1.9,1.9,0,0,0-2.1-2.1c-2.1,0-3.1,1.4-3.1,3.2v5.8H32.3Z" transform="translate(56.1 24.2)"/><path class="b" d="M52.2,139.3a2.4,2.4,0,0,1-1.2.3c-.9,0-1.4-.5-1.4-1.6a4.5,4.5,0,0,1-3.6,1.6c-1.9,0-3.4-.8-3.4-2.9s1.7-2.9,3.5-3.2,3.5-.2,3.5-1.5-1.2-1.7-2.3-1.7-2.5.4-2.6,2H42.8c.1-2.6,2.1-3.5,4.4-3.5s3.9.4,3.9,2.8v5.3c0,.8,0,1.2.5,1.2h.5ZM49.4,134c-1.3,1-5.2,0-5.2,2.6s1,1.5,2,1.5,3.2-1.4,3.2-2.3Z" transform="translate(56.1 24.2)"/><path class="b" d="M53.8,125h1.7v14.3H53.8Z" transform="translate(56.1 24.2)"/><path class="b" d="M61.8,140.7c-.8,2-1.5,2.8-3,2.8l-1.2-.2v-1.6l1,.2A1.4,1.4,0,0,0,60,141l.7-1.8L56.6,129h1.9l3,8.5h0l2.9-8.5h1.8Z" transform="translate(56.1 24.2)"/><path class="b" d="M70.9,129H73v1.5H70.9v6.4c0,.8.2.9,1.3.9H73v1.5H71.7c-1.8,0-2.5-.4-2.5-2.3v-6.6H67.5V129h1.8v-3.1h1.7Z" transform="translate(56.1 24.2)"/><path class="b" d="M76.4,127.1H74.7V125h1.7ZM74.7,129h1.7v10.3H74.7Z" transform="translate(56.1 24.2)"/><path class="b" d="M85.7,132.3a2.4,2.4,0,0,0-2.6-2.1c-2.5,0-3.2,2-3.2,4s.9,3.8,3,3.8a2.6,2.6,0,0,0,2.8-2.5h1.7a4.3,4.3,0,0,1-4.6,4c-3.2,0-4.8-2.2-4.8-5.3s1.6-5.5,4.9-5.5,4.2,1.1,4.5,3.6Z" transform="translate(56.1 24.2)"/><path class="b" d="M90.4,136c.1,1.5,1.4,2,2.8,2s2.5-.2,2.5-1.5-6.8-.9-6.8-4.8c0-2.1,2-2.9,3.9-2.9s4.1.7,4.2,3.2H95.3c-.1-1.3-1.3-1.7-2.4-1.7s-2.2.3-2.2,1.3,1.8,1.4,3.4,1.8,3.4,1,3.4,2.9-2.3,3.3-4.4,3.3-4.3-.9-4.4-3.5Z" transform="translate(56.1 24.2)"/><rect class="i" width="228" height="180.67"/></svg>