<svg xmlns="http://www.w3.org/2000/svg" viewBox="0 0 228 180.7"><defs><style>.a{fill:#c2e5f9;}.b{fill:#284b60;}.c{fill:#fff;}.d{fill:#1d3749;}.e{fill:none;}</style></defs><title>02_Backend_Logic_Engine</title><path class="a" d="M58.5,38.8c1.3,1.1,1.1,4,.6,4.9s-1.9,1.3-3.6.9-3.2,1.1-3.8,3.4.4,4.3,2.1,4.7,3,3,3,4-1.1,2.1-2.6,2.6-2.3,2.6-1.5,4.7,2.6,3.4,4,3,3.2-.2,3.6.6,1.1,3.8,0,4.9-.6,3.4,1.1,4.9,3.8,1.7,5.1.6,4-.9,4.9-.6,1.3,1.9.9,3.6,1.1,3.2,3.4,3.8,4.3-.4,4.7-2.1,3-3,4-3,2.1,1.1,2.6,2.6,2.6,2.3,4.7,1.5,3.4-2.6,3-4,1.3-4,1.9-4.7,2.3,0,3.6,1.1,3.4.6,4.9-1.1,1.7-3.8.6-4.9-1.1-4-.6-4.9,1.9-1.3,3.6-.9,3.2-1.1,3.8-3.4-.4-4.3-2.1-4.7-3-3-3-4,1.1-2.1,2.6-2.6,2.3-2.6,1.5-4.7-2.6-3.4-4-3-4-1.3-4.7-1.9,0-2.3,1.1-3.6.6-3.4-1.1-4.9-3.8-1.7-5.1-.6-4,.9-4.9.6-1.3-1.9-.9-3.6-1.1-3.2-3.4-3.8-4.3.4-4.7,2.1-3,3-4,3-2.1-1.1-2.6-2.6-2.6-2.3-4.7-1.5-3.4,2.6-3,4-1.3,4-1.9,4.5-2.3,0-3.6-1.1-3.4-.6-4.9,1.1S57.2,37.7,58.5,38.8Zm17.9-1.1A17.8,17.8,0,1,1,64.9,60.1,17.8,17.8,0,0,1,76.4,37.7Z" transform="translate(49.1 23.9)"/><path class="b" d="M76.8,86.1H75.4a6.3,6.3,0,0,1-3.9-2.8,3.3,3.3,0,0,1-.4-2.6,2.8,2.8,0,0,0-.2-2.2c-1.2-.2-3-.3-3.5.3h-.2c-1.8,1.5-4.6,1.2-6.7-.7s-2.7-4.8-1.2-6.6h.1c.3-.3.3-2.3-.2-3.4a3.1,3.1,0,0,0-2.2,0c-2.2.6-4.7-1.1-5.5-3.8a5.4,5.4,0,0,1,.1-4.3,3.6,3.6,0,0,1,2.2-2,2.5,2.5,0,0,0,1.7-1.4c0-.6-1.2-2.6-2.1-2.8s-3.6-3.3-3-6.1h0a6.3,6.3,0,0,1,2.8-3.9,3.3,3.3,0,0,1,2.6-.4,2.5,2.5,0,0,0,2.2-.2c.3-.6.4-2.8-.3-3.4h0a3.5,3.5,0,0,1-1.3-2.5,6.1,6.1,0,0,1,1.8-4.4c1.9-2.2,4.8-2.7,6.6-1.2s2,1.1,2.1,1H67c.5-.4,1.6-2.4,1.4-3.1s1.1-4.7,3.8-5.5a5.4,5.4,0,0,1,4.3.1,3.6,3.6,0,0,1,2,2.2A2.5,2.5,0,0,0,79.8,28c.6,0,2.6-1.2,2.8-2.1s3.3-3.6,6.1-3h.1a6.3,6.3,0,0,1,3.9,2.8,3.3,3.3,0,0,1,.4,2.6,2.8,2.8,0,0,0,.2,2.2c1.2.2,3,.3,3.5-.3h.2c1.8-1.5,4.6-1.2,6.7.7s2.7,4.8,1.2,6.6a3.5,3.5,0,0,0-1,2.1c.7.6,2.7,1.7,3.4,1.5s4.7,1.1,5.5,3.8a5.4,5.4,0,0,1-.1,4.3,3.6,3.6,0,0,1-2.2,2,2.5,2.5,0,0,0-1.7,1.4c0,.6,1,2.6,2.1,2.8s3.6,3.3,3,6.1h0a6.3,6.3,0,0,1-2.8,3.9,3.3,3.3,0,0,1-2.6.4,2.5,2.5,0,0,0-2.2.2c-.3.6-.4,2.8.3,3.4h.1c1.6,1.6,1.3,4.4-.6,6.6s-4.8,2.7-6.6,1.2a3.4,3.4,0,0,0-2.1-1c-.6.7-1.7,2.7-1.5,3.4s-1.1,4.7-3.8,5.5a5.4,5.4,0,0,1-4.3-.1,3.6,3.6,0,0,1-2-2.2,2.5,2.5,0,0,0-1.4-1.7c-.6,0-2.6,1.2-2.8,2.1S79.2,86.1,76.8,86.1ZM76,83.6c1.5.3,3-.3,3.2-1.2h0c.6-2.1,3.7-3.9,5.2-3.9s3.2,1.5,3.7,3.4a1.2,1.2,0,0,0,.7.7,3,3,0,0,0,2.4,0h.1c1.5-.4,2.4-1.7,2.2-2.5-.7-2.3,1.8-5.4,2.2-5.9h.1c1.3-.9,3.2-.5,5.1,1.1s2.2.2,3.2-.9,1.2-2.6.7-3.2-1.5-5.2-.9-6.3,2.8-2.1,5-1.5h.8a3.9,3.9,0,0,0,1.6-2.4c.3-1.5-.3-3-1.2-3.2s-3.9-3.8-3.9-5.2,1.5-3.2,3.4-3.7a1.2,1.2,0,0,0,.7-.7,3,3,0,0,0,0-2.4h0c-.4-1.5-1.7-2.4-2.5-2.2-2.3.7-5.4-1.8-5.9-2.2h-.1c-.9-1.3-.5-3.2,1.1-5.1s.2-2.2-.9-3.2-2.6-1.3-3.5-.7-5.9,1-6,.9h-.3c-1.4-.7-2.1-2.8-1.5-5h0a.9.9,0,0,0-.1-.7,3.9,3.9,0,0,0-2.4-1.6c-1.5-.3-3,.3-3.2,1.2h0c-.6,2.1-3.7,3.9-5.2,3.9s-3.2-1.5-3.7-3.4a1.2,1.2,0,0,0-.7-.7,3,3,0,0,0-2.4,0h-.1c-1.5.4-2.4,1.7-2.2,2.5s-1.4,5.1-2.4,5.8-3.2.5-5.1-1.1-2.2-.2-3.2.9A3.8,3.8,0,0,0,58.9,37a1.1,1.1,0,0,0,.4.8h0c1.9,1.6,1.5,5.2,1,6.4s-2.8,2.1-5,1.5h-.8a3.9,3.9,0,0,0-1.6,2.4c-.3,1.5.3,3,1.2,3.2h0c2.1.6,3.9,3.7,3.9,5.2s-1.5,3.2-3.4,3.7a1.2,1.2,0,0,0-.7.7,3,3,0,0,0,0,2.4h0c.4,1.5,1.7,2.4,2.5,2.2s4.3-.3,5.1,1.3,1.4,4.5-.2,6.3-.2,2.2,1,3.2,2.6,1.3,3.5.7,5.9-1,6-.9h.3c1.4.7,2.1,2.8,1.5,5h0a.9.9,0,0,0,.1.7A3.9,3.9,0,0,0,76,83.6Zm5.8-9.9A19,19,0,0,1,76,36.5h0A19,19,0,1,1,87.6,72.7,19.2,19.2,0,0,1,81.8,73.6Zm.1-35.6a16.7,16.7,0,0,0-5.1.8h0A16.4,16.4,0,0,0,67.1,47a16.5,16.5,0,0,0-1,12.6,16.4,16.4,0,0,0,8.2,9.7,16.5,16.5,0,0,0,12.6,1,16.4,16.4,0,0,0,9.7-8.2,16.5,16.5,0,0,0,1-12.6A16.5,16.5,0,0,0,81.9,38.1Z" transform="translate(49.1 23.9)"/><path class="c" d="M24.2,10.7c.9.6.6,2.6.4,3.2a3.1,3.1,0,0,1-2.6.4c-1.1-.2-2.1.9-2.3,2.1s.2,2.8,1.3,3S23,21.5,23,21.9s-.6,1.3-1.7,1.7a2.3,2.3,0,0,0-1.1,3c.4,1.3,1.7,2.1,2.6,1.9s2.1-.2,2.3.4.6,2.3,0,3.2-.4,2.1.6,3.2a2.4,2.4,0,0,0,3.2.4c.6-.9,2.6-.6,3.2-.4s.9,1.3.6,2.3.9,2.1,2.1,2.3,2.8-.2,3-1.3,1.9-1.9,2.6-1.9,1.3.6,1.7,1.7,1.7,1.5,3,1.1,2.1-1.7,1.9-2.6.9-2.6,1.3-3,1.5,0,2.3.6,2.1.4,3.2-.6a2.4,2.4,0,0,0,.4-3.2c-.9-.6-.6-2.6-.4-3.2s1.3-.9,2.3-.6,2.1-.9,2.3-2.1-.2-2.8-1.3-3-1.9-1.9-1.9-2.6.6-1.3,1.7-1.7,1.5-1.7,1.1-3-1.7-2.1-2.6-1.9-2.6-.9-3-1.3,0-1.5.6-2.3S53.6,7,52.6,6a2.4,2.4,0,0,0-3.2-.4c-.6.9-2.6.6-3.2.4a2.4,2.4,0,0,1-.6-2.3c.2-1.1-.9-2.1-2.1-2.3s-2.8.2-3,1.3-1.9,1.9-2.6,1.9-1.3-.6-1.7-1.7a2.3,2.3,0,0,0-3-1.1c-1.3.4-2.1,1.7-1.9,2.6s-.9,2.6-1.3,3-1.5.2-2.3-.6-2.1-.4-3.2.6S23.4,9.8,24.2,10.7Zm11.5-.9a11.6,11.6,0,0,1,14.5,7.5,11.2,11.2,0,0,1-7.5,14.3,11.6,11.6,0,0,1-14.5-7.5A11.4,11.4,0,0,1,35.7,9.8Z" transform="translate(49.1 23.9)"/><path class="b" d="M35.6,41.3h-.9A4.1,4.1,0,0,1,32,39.6a2.8,2.8,0,0,1-.5-2.2,2.2,2.2,0,0,0,0-1,3,3,0,0,0-1.7.1h-.1a3.6,3.6,0,0,1-4.9-.4c-1.5-1.5-1.8-3.4-.8-4.8a3.5,3.5,0,0,0-.1-1.9H23c-1.5.4-3.4-.9-4-2.7a3.5,3.5,0,0,1,1.8-4.5,2.2,2.2,0,0,0,.9-.6,3,3,0,0,0-.9-1.3c-1.7-.3-2.6-2.1-2.2-4.4a4.1,4.1,0,0,1,1.6-2.7,2.8,2.8,0,0,1,2.2-.5,2.8,2.8,0,0,0,1.2,0,2.7,2.7,0,0,0-.1-1.4h-.1c-1.2-1.2-1.2-3.1.1-5h.2c1.5-1.5,3.4-1.8,4.8-.8h.1a1.8,1.8,0,0,0,.8.5,3,3,0,0,0,.8-1.5h0c-.4-1.5.9-3.4,2.7-4a3.5,3.5,0,0,1,4.5,1.8,2.1,2.1,0,0,0,.6.9,2.5,2.5,0,0,0,1.3-.9C39.5.6,41.3-.3,43.6.1a4.1,4.1,0,0,1,2.7,1.6,2.8,2.8,0,0,1,.5,2.2,1.8,1.8,0,0,0,.1,1,2.9,2.9,0,0,0,1.6-.1h.1a3.6,3.6,0,0,1,4.9.4c1.5,1.5,1.8,3.4.8,4.8a3.5,3.5,0,0,0-.5.9,3.3,3.3,0,0,0,1.6.7c1.5-.3,3.4.9,4,2.7a4.1,4.1,0,0,1-.3,3.3,2.6,2.6,0,0,1-1.6,1.3,2,2,0,0,0-.8.6,2.5,2.5,0,0,0,.9,1.3c1.7.3,2.6,2.1,2.3,4.4a4.1,4.1,0,0,1-1.6,2.7,2.8,2.8,0,0,1-2.2.5H55a3,3,0,0,0,.1,1.7h.1a3,3,0,0,1,.8,2.4,4.1,4.1,0,0,1-1.2,2.5c-1.5,1.5-3.4,1.8-4.8.8l-.9-.5a2.9,2.9,0,0,0-.8,1.4h0c.4,1.5-.9,3.4-2.7,4a4.1,4.1,0,0,1-3.3-.3,2.6,2.6,0,0,1-1.3-1.6,2,2,0,0,0-.6-.8,2.5,2.5,0,0,0-1.3.9C38.8,40.5,37.4,41.3,35.6,41.3Zm-4.9-7.4a6.4,6.4,0,0,1,1.8.3c1.2.4,1.8,1.9,1.5,3.8a.5.5,0,0,0,.1.3,1.6,1.6,0,0,0,1,.6c.9.1,1.5-.1,1.6-.3.4-1.8,2.7-2.9,3.8-2.9s2.2.9,2.8,2.5h.2a1.8,1.8,0,0,0,2.4-1c-.6-1.8,1.2-3.8,1.6-4.2s2.4-.7,4,.5,1,.1,1.6-.5a1.4,1.4,0,0,0,.4-1.4c-1.4-1.2-1-3.8-.7-4.5s1.9-1.8,3.8-1.5h.3a1.6,1.6,0,0,0,.6-1c.1-.9-.1-1.5-.3-1.6-1.8-.4-2.9-2.7-2.9-3.8s.9-2.2,2.5-2.8h.3a1.7,1.7,0,0,0,0-1.3A1.6,1.6,0,0,0,55.8,14h0c-1.7.3-3.6-1.1-4.1-1.6s-.7-2.4.5-4,.1-1-.5-1.6a1.4,1.4,0,0,0-1.4-.4c-1.2,1.4-3.8,1-4.5.7h-.2c-1-.5-1.6-2.2-1.3-3.7a.5.5,0,0,0-.1-.3,1.6,1.6,0,0,0-1-.6c-.9-.1-1.5.1-1.6.3-.4,1.8-2.7,2.9-3.8,2.9S35.6,4.8,35,3.2s-.8-.6-1.5-.4A1.7,1.7,0,0,0,32.5,4c.6,1.8-1.2,3.8-1.6,4.2a2.2,2.2,0,0,1-2.2.5,4.2,4.2,0,0,1-1.8-1c-.3-.2-.9,0-1.5.5s-.7,1.3-.3,1.7,1,3.8.8,4.5v.3l-.2.2a4.2,4.2,0,0,1-3.7.8h-.3a1.6,1.6,0,0,0-.6,1c-.1.9.1,1.5.3,1.6,1.7.3,2.9,2.8,2.9,3.8s-.9,2.2-2.5,2.8-.6.8-.4,1.5a1.7,1.7,0,0,0,1.1,1.1,3.6,3.6,0,0,1,2.7,0,2.1,2.1,0,0,1,1.1,1.2c.3.7.9,3-.2,4.4s-.1,1,.5,1.6a1.4,1.4,0,0,0,1.4.4A3.4,3.4,0,0,1,30.7,33.9Zm8.5-.6a12.9,12.9,0,0,1-12.1-8.8,12.4,12.4,0,0,1,.8-9.6,12.7,12.7,0,0,1,7.4-6.2h0a12.8,12.8,0,0,1,16,8.2,12.5,12.5,0,0,1-8.3,15.8A12.7,12.7,0,0,1,39.2,33.3ZM36.1,11a10.3,10.3,0,0,0-6,5,9.9,9.9,0,0,0-.7,7.7,10.3,10.3,0,0,0,12.9,6.7A10,10,0,0,0,49,17.6,10.3,10.3,0,0,0,36.1,11Z" transform="translate(49.1 23.9)"/><path class="c" d="M20.6,51.8a2.4,2.4,0,0,1,.2,2.3,1.5,1.5,0,0,1-1.7.4c-.9-.2-1.7.6-1.9,1.7a1.9,1.9,0,0,0,1.1,2.3,2.6,2.6,0,0,1,1.5,1.9c0,.4-.6,1.1-1.3,1.3a2,2,0,0,0-.9,2.6c.4,1.1,1.3,1.7,1.9,1.5s1.5-.2,1.9.2a3.5,3.5,0,0,1,0,2.6c-.6.6-.2,1.7.4,2.3a2,2,0,0,0,2.6.2,2.8,2.8,0,0,1,2.6-.2,1.5,1.5,0,0,1,.4,1.7c-.2.9.6,1.7,1.7,1.9a1.9,1.9,0,0,0,2.3-1.1A2.6,2.6,0,0,1,33.4,72c.4,0,1.1.6,1.3,1.3s1.3,1.1,2.3.9,1.7-1.3,1.5-1.9.6-1.9,1.1-2.3a1.8,1.8,0,0,1,1.7.4c.6.6,1.7.2,2.3-.4a2,2,0,0,0,.2-2.6,2.4,2.4,0,0,1-.2-2.3,1.5,1.5,0,0,1,1.7-.4c.9.2,1.7-.6,1.9-1.7a1.9,1.9,0,0,0-1.1-2.3,2.6,2.6,0,0,1-1.5-1.9c0-.4.6-1.1,1.3-1.3s1.1-1.3.9-2.3-1.3-1.7-1.9-1.5-1.9-.6-2.3-1.1a1.9,1.9,0,0,1,.4-1.7c.6-.6.2-1.7-.4-2.3a2,2,0,0,0-2.6-.2,2.8,2.8,0,0,1-2.6.2,1.5,1.5,0,0,1-.4-1.7c.2-.9-.6-1.7-1.7-1.9A1.9,1.9,0,0,0,33,45.8,2.6,2.6,0,0,1,31,47.3c-.4,0-1.1-.6-1.3-1.3a1.7,1.7,0,0,0-2.3-.9c-1.1.4-1.7,1.3-1.5,1.9s-.6,1.9-1.1,2.3a1.9,1.9,0,0,1-1.7-.4c-.6-.6-1.7-.2-2.3.4S20,51.3,20.6,51.8Zm8.7-.4a8.8,8.8,0,1,1-5.7,11.1A9.1,9.1,0,0,1,29.3,51.3Z" transform="translate(49.1 23.9)"/><path class="b" d="M29.7,75.8h-.8a3.6,3.6,0,0,1-2.3-1.5,2.4,2.4,0,0,1-.3-1.9h0a.6.6,0,0,0,0-.3h-1c-1,1-2.7,1-4.1-.1H21A3.8,3.8,0,0,1,20,70a2.4,2.4,0,0,1,.4-2.2,2.9,2.9,0,0,0,0-1h-.6c-1.3.4-2.7-.6-3.4-2.2a3.2,3.2,0,0,1,1.4-4.1h.2l.4-.2a1.6,1.6,0,0,0-.5-.6A3.1,3.1,0,0,1,16,56a3.6,3.6,0,0,1,1.5-2.3,2.4,2.4,0,0,1,1.9-.3h.4a1.7,1.7,0,0,0,0-.7,2.3,2.3,0,0,1-.8-1.5,3.2,3.2,0,0,1,1-2.5c1.1-1.1,2.8-1.6,4-.5l.4.2a2,2,0,0,0,.4-.8c-.4-1.3.6-2.7,2.2-3.4a3.2,3.2,0,0,1,2.7.1,2.5,2.5,0,0,1,1.3,1.6l.2.3.6-.5a3.1,3.1,0,0,1,3.8-2A3.6,3.6,0,0,1,37.9,45a2.4,2.4,0,0,1,.3,1.9h0a.6.6,0,0,0,0,.3h1c1-1,2.7-1,4.1.1h.1c1.1,1.1,1.6,2.8.5,4l-.2.4.8.4c1.3-.4,2.7.6,3.4,2.2H48c.4,1.9-.3,3.4-1.7,3.8l-.3.2a1.6,1.6,0,0,0,.5.6,3.1,3.1,0,0,1,2,3.8,3.6,3.6,0,0,1-1.5,2.3,2.4,2.4,0,0,1-1.9.3h-.4a1.5,1.5,0,0,0,.1.8c1,1,1,2.7-.1,4.1h-.1a3.8,3.8,0,0,1-1.7,1,2.4,2.4,0,0,1-2.3-.6h-.2a2.1,2.1,0,0,0-.5.9c.4,1.3-.6,2.7-2.2,3.4h-.2c-1.9.4-3.4-.3-3.8-1.7l-.2-.3-.6.5A2.9,2.9,0,0,1,29.7,75.8Zm-1.1-2.9a1.1,1.1,0,0,0,.7.4,1,1,0,0,0,.9-.2,3.7,3.7,0,0,1,3.1-2.4,3,3,0,0,1,2.4,2.1h.8a1.5,1.5,0,0,0,.6-.5c-.3-1.6,1-3,1.4-3.5H39a2.9,2.9,0,0,1,3.1.6l.6-.3c.3-.4.3-.8.3-.9a3.1,3.1,0,0,1-.8-2.2,3.1,3.1,0,0,1,.4-1.7,2.7,2.7,0,0,1,3-1,1.1,1.1,0,0,0,.4-.7,1,1,0,0,0-.2-.9,3.7,3.7,0,0,1-2.4-3.1,3,3,0,0,1,2.1-2.4h0a1.7,1.7,0,0,0,0-.8,1.5,1.5,0,0,0-.5-.6c-1.6.3-3-1-3.5-1.4h-.1v-.2c-.3-.6-.4-1.5.5-2.9h.1a1.3,1.3,0,0,0-.3-.6c-.4-.3-.8-.3-.9-.3s-3.3.8-4,.4a2.7,2.7,0,0,1-1.1-3.1,1.1,1.1,0,0,0-.7-.4,1,1,0,0,0-.9.2A3.7,3.7,0,0,1,31,48.5a3,3,0,0,1-2.4-2.1h0a.7.7,0,0,0-.7,0,1.6,1.6,0,0,0-.7.5c.3,1.6-1,3-1.4,3.5h-.3c-.6.3-1.5.4-2.9-.5h-.1a1.3,1.3,0,0,0-.6.4,1,1,0,0,0-.3.5h.1a3.1,3.1,0,0,1,.8,2.2,3.1,3.1,0,0,1-.4,1.7,2.7,2.7,0,0,1-3,1,1.1,1.1,0,0,0-.4.7,1,1,0,0,0,.2.9A3.7,3.7,0,0,1,21,60.5a2.9,2.9,0,0,1-2,2.4.8.8,0,0,0-.2,1,1.6,1.6,0,0,0,.5.7,3.1,3.1,0,0,1,3,.6h.1v.2a4.6,4.6,0,0,1-.1,3.8h-.1a1.3,1.3,0,0,0,.3.6c.4.3.8.3.9.3s3.3-.8,4-.4A2.7,2.7,0,0,1,28.6,72.9Zm3.3-3.1a9.9,9.9,0,0,1-9.5-7h0A10.3,10.3,0,0,1,29,50.2h0A10.1,10.1,0,0,1,35,69.3,10.3,10.3,0,0,1,31.9,69.8Zm-7.1-7.8a7.6,7.6,0,1,0,5-9.6A7.9,7.9,0,0,0,24.8,62.1Z" transform="translate(49.1 23.9)"/><path class="d" d="M1.4,102.3H6.5c1.2,0,2.9,0,3.8.5a3.4,3.4,0,0,1,1.7,3A3.3,3.3,0,0,1,9.9,109h0a3.3,3.3,0,0,1,2.7,3.4,4.1,4.1,0,0,1-4.3,4.1H1.4Zm1.9,6.1H7.1c2.2,0,3-.8,3-2.3s-1.4-2.3-3-2.3H3.3Zm0,6.5H8a2.4,2.4,0,0,0,2.7-2.6c0-1.9-1.5-2.4-3.1-2.4H3.3Z" transform="translate(49.1 23.9)"/><path class="d" d="M23.7,116.6a2.4,2.4,0,0,1-1.2.3c-.9,0-1.4-.5-1.4-1.6a4.5,4.5,0,0,1-3.6,1.6c-1.9,0-3.4-.8-3.4-2.9s1.7-2.9,3.5-3.2,3.5-.2,3.5-1.5-1.2-1.7-2.3-1.7-2.5.4-2.6,2H14.4c.1-2.6,2.1-3.5,4.4-3.5s3.9.4,3.9,2.8v5.3c0,.8,0,1.2.5,1.2h.5Zm-2.8-5.3c-1.3,1-5.2,0-5.2,2.6s1,1.5,2,1.5,3.2-1.4,3.2-2.3Z" transform="translate(49.1 23.9)"/><path class="d" d="M32.2,109.6a2.4,2.4,0,0,0-2.6-2.1c-2.5,0-3.2,2-3.2,4s.9,3.8,3,3.8a2.6,2.6,0,0,0,2.8-2.5H34a4.3,4.3,0,0,1-4.6,4c-3.2,0-4.8-2.2-4.8-5.3s1.6-5.5,4.9-5.5,4.2,1.1,4.5,3.6Z" transform="translate(49.1 23.9)"/><path class="d" d="M35.8,102.3h1.7v8.5l4.7-4.5h2.3L40.4,110l4.4,6.6H42.7l-3.5-5.4-1.6,1.5v3.9H35.8Z" transform="translate(49.1 23.9)"/><path class="d" d="M54,113.3a4.1,4.1,0,0,1-4.4,3.5c-3.3,0-4.9-2.3-5-5.4s2-5.4,4.9-5.4,4.8,3.4,4.7,5.9H46.4a3,3,0,0,0,3.2,3.4,2.5,2.5,0,0,0,2.7-2Zm-1.6-2.9a3,3,0,0,0-3-2.9,2.9,2.9,0,0,0-3,2.9Z" transform="translate(49.1 23.9)"/><path class="d" d="M55.9,106.3h1.6v1.6h0a3.6,3.6,0,0,1,3.4-1.9c2.7,0,3.6,1.6,3.6,3.8v6.8H62.7v-7a1.9,1.9,0,0,0-2.1-2.1c-2.1,0-3.1,1.4-3.1,3.2v5.8H55.9Z" transform="translate(49.1 23.9)"/><path class="d" d="M75.8,116.6H74.1v-1.4h0a3.5,3.5,0,0,1-3.3,1.6c-3.2,0-4.8-2.5-4.8-5.4s1.6-5.4,4.7-5.4a4,4,0,0,1,3.3,1.6h0v-5.3h1.7ZM71,115.3c2.3,0,3.2-2,3.2-3.9s-.9-3.9-3.3-3.9-3.1,2-3.1,4S68.8,115.3,71,115.3Z" transform="translate(49.1 23.9)"/><path class="d" d="M83,102.3h1.9V115h7.6v1.6H83Z" transform="translate(49.1 23.9)"/><path class="d" d="M98.4,106c3.3,0,5,2.4,5,5.4s-1.7,5.4-5,5.4-5-2.4-5-5.4S95.1,106,98.4,106Zm0,9.3c1.8,0,3.2-1.4,3.2-3.9s-1.4-3.9-3.2-3.9-3.2,1.4-3.2,3.9S96.6,115.3,98.4,115.3Z" transform="translate(49.1 23.9)"/><path class="d" d="M114.2,115.7c0,3.4-1.5,5.1-4.8,5.1s-4.2-.8-4.3-3h1.7c.1,1.2,1.6,1.7,2.7,1.7s3.1-1.6,3.1-3.9v-.7h0a3.4,3.4,0,0,1-3.2,1.9c-3.1,0-4.6-2.4-4.6-5.2s1.2-5.5,4.8-5.5a3.4,3.4,0,0,1,3.1,1.7h0v-1.5h1.6Zm-1.7-4.5c0-1.8-.8-3.7-2.9-3.7s-3.1,1.8-3.1,3.8.7,3.9,2.9,3.9S112.5,113.2,112.5,111.2Z" transform="translate(49.1 23.9)"/><path class="d" d="M118.1,104.4h-1.7v-2.1h1.7Zm-1.7,1.9h1.7v10.3h-1.7Z" transform="translate(49.1 23.9)"/><path class="d" d="M127.4,109.6a2.4,2.4,0,0,0-2.6-2.1c-2.5,0-3.2,2-3.2,4s.9,3.8,3,3.8a2.6,2.6,0,0,0,2.8-2.5h1.7a4.3,4.3,0,0,1-4.6,4c-3.2,0-4.8-2.2-4.8-5.3s1.6-5.5,4.9-5.5,4.2,1.1,4.5,3.6Z" transform="translate(49.1 23.9)"/><path class="d" d="M36.6,125.3h9.9v1.6h-8v4.5H46v1.6H38.6V138h8v1.6H36.6Z" transform="translate(49.1 23.9)"/><path class="d" d="M48.6,129.3h1.6v1.6h0a3.6,3.6,0,0,1,3.4-1.9c2.7,0,3.6,1.6,3.6,3.8v6.8H55.5v-7a1.9,1.9,0,0,0-2.1-2.1c-2.1,0-3.1,1.4-3.1,3.2v5.8H48.6Z" transform="translate(49.1 23.9)"/><path class="d" d="M68.2,138.7c0,3.4-1.5,5.1-4.8,5.1s-4.2-.8-4.3-3h1.7c.1,1.2,1.6,1.7,2.7,1.7s3.1-1.6,3.1-3.9v-.7h0a3.4,3.4,0,0,1-3.2,1.9c-3.1,0-4.6-2.4-4.6-5.2s1.2-5.5,4.8-5.5a3.4,3.4,0,0,1,3.1,1.7h0v-1.5h1.6Zm-1.7-4.5c0-1.8-.8-3.7-2.9-3.7s-3.1,1.8-3.1,3.8.7,3.9,2.9,3.9S66.6,136.2,66.6,134.2Z" transform="translate(49.1 23.9)"/><path class="d" d="M72.1,127.4H70.4v-2.1h1.7Zm-1.7,1.9h1.7v10.3H70.4Z" transform="translate(49.1 23.9)"/><path class="d" d="M74.3,129.3h1.6v1.6h0a3.6,3.6,0,0,1,3.4-1.9c2.7,0,3.6,1.6,3.6,3.8v6.8H81.2v-7a1.9,1.9,0,0,0-2.1-2.1c-2.1,0-3.1,1.4-3.1,3.2v5.8H74.3Z" transform="translate(49.1 23.9)"/><path class="d" d="M93.8,136.3a4.1,4.1,0,0,1-4.4,3.5c-3.3,0-4.9-2.3-5-5.4s2-5.4,4.9-5.4,4.8,3.4,4.7,5.9H86.2a3,3,0,0,0,3.2,3.4,2.5,2.5,0,0,0,2.7-2Zm-1.6-2.9a3,3,0,0,0-3-2.9,2.9,2.9,0,0,0-3,2.9Z" transform="translate(49.1 23.9)"/><rect class="e" width="228" height="180.67"/></svg>