<svg xmlns="http://www.w3.org/2000/svg" viewBox="0 0 228 180.7"><defs><style>.a{fill:#fff;}.b{fill:#284b60;}.c{fill:#c2e5f9;}.d{fill:#1d3749;}.e{fill:none;}</style></defs><title>03_Push_n_Offline_Sync</title><circle class="a" cx="114" cy="67" r="38.6"/><path class="b" d="M61.6,79.6a39.8,39.8,0,1,1,39.8-39.8A39.8,39.8,0,0,1,61.6,79.6Zm0-77.1A37.3,37.3,0,1,0,98.9,39.8,37.4,37.4,0,0,0,61.6,2.5Z" transform="translate(52.4 27.2)"/><rect class="b" x="113.6" y="66.8" width="13" height="2.46"/><rect class="b" x="57.9" y="23" width="17" height="2.46" transform="translate(54.8 81.3) rotate(-45)"/><rect class="b" x="64.9" y="48.1" width="2.5" height="17.14" transform="translate(31.8 91.3) rotate(-45.5)"/><polygon class="c" points="125.8 91 120.5 91.2 118.8 86.1 123 82.8 127.4 85.9 125.8 91"/><path class="b" d="M67.2,65.3l-2.3-6.9,5.6-4.3,5.9,4.1-2,6.9Zm.6-6,1.2,3.5h3.5l1-3.5-2.9-2Z" transform="translate(52.4 27.2)"/><polygon class="c" points="124.7 71.6 128.9 64.6 132.9 71.6 124.7 71.6"/><path class="b" d="M82.6,45.7H70.1l6.4-10.7Zm-8.2-2.5h3.9l-1.9-3.4Z" transform="translate(52.4 27.2)"/><circle class="c" cx="123.2" cy="47.3" r="4.6"/><path class="b" d="M70.7,25.9a5.8,5.8,0,1,1,5.8-5.8A5.8,5.8,0,0,1,70.7,25.9Zm0-9.2a3.4,3.4,0,1,0,3.4,3.4A3.4,3.4,0,0,0,70.7,16.8Z" transform="translate(52.4 27.2)"/><path class="a" d="M60.2,52.4H41.9A1.8,1.8,0,0,1,40,50.5v-20a1.8,1.8,0,0,1,1.9-1.9H60.2a1.8,1.8,0,0,1,1.9,1.9v20A1.8,1.8,0,0,1,60.2,52.4Z" transform="translate(52.4 27.2)"/><path class="b" d="M60.2,53.6H41.9a3,3,0,0,1-3.1-3.1v-20a3,3,0,0,1,3.1-3.1H60.2a3,3,0,0,1,3.1,3.1v20A3,3,0,0,1,60.2,53.6ZM41.9,29.8a.6.6,0,0,0-.7.7v20a.6.6,0,0,0,.7.7H60.2a.6.6,0,0,0,.7-.7v-20a.6.6,0,0,0-.7-.7Z" transform="translate(52.4 27.2)"/><rect class="b" x="92.6" y="71.1" width="22" height="2.46"/><rect class="b" x="92.6" y="61.7" width="22" height="2.46"/><path class="d" d="M1.4,99.9H7.6c2.9,0,4.4,1.6,4.4,4.2s-1.5,4.2-4.4,4.2H3.3v5.8H1.4Zm1.9,6.8H7c2.2,0,3.1-.9,3.1-2.6s-1-2.6-3.1-2.6H3.3Z" transform="translate(52.4 27.2)"/><path class="d" d="M22.3,114.2H20.7v-1.6h0a3.6,3.6,0,0,1-3.4,1.9c-2.7,0-3.6-1.6-3.6-3.8v-6.8h1.7v7a1.9,1.9,0,0,0,2.1,2.1c2.1,0,3.1-1.4,3.1-3.2v-5.8h1.7Z" transform="translate(52.4 27.2)"/><path class="d" d="M25.5,111c.1,1.5,1.4,2,2.8,2s2.5-.2,2.5-1.5-6.8-.9-6.8-4.8c0-2.1,2-2.9,3.9-2.9s4.1.7,4.2,3.2H30.5c-.1-1.3-1.3-1.7-2.4-1.7s-2.2.3-2.2,1.3,1.8,1.4,3.4,1.8,3.4,1,3.4,2.9-2.3,3.3-4.4,3.3-4.3-.9-4.4-3.5Z" transform="translate(52.4 27.2)"/><path class="d" d="M34.2,99.9h1.7v5.5h0a3.5,3.5,0,0,1,3.3-1.8c2.7,0,3.6,1.6,3.6,3.8v6.8H41.1v-7a1.9,1.9,0,0,0-2.1-2.1c-2.1,0-3.1,1.4-3.1,3.2v5.8H34.2Z" transform="translate(52.4 27.2)"/><path class="d" d="M57.7,112.4a4.8,4.8,0,0,1-4,2c-3.9,0-4.5-2.7-4.5-3.9s1.5-3.4,3.3-4.3c-.8-1.1-1.6-1.9-1.6-3.4a3,3,0,0,1,3.2-2.9c1.8,0,3.5,1,3.5,2.9s-1.3,2.9-2.7,3.7l2.6,3.1a7.7,7.7,0,0,0,.5-2.2h1.6a8.4,8.4,0,0,1-1,3.5l2.8,3.2H59.3Zm-4.2-5.1c-1.3.7-2.5,1.5-2.5,3.2a2.6,2.6,0,0,0,2.7,2.4,3.6,3.6,0,0,0,3-1.7ZM56,103a1.6,1.6,0,0,0-3.3,0,4.7,4.7,0,0,0,1.4,2.5C54.9,104.9,56,104.2,56,103Z" transform="translate(52.4 27.2)"/><path class="d" d="M73.5,99.6c4.5,0,6.8,3.6,6.8,7.5s-2.3,7.5-6.8,7.5-6.8-3.6-6.8-7.5S68.9,99.6,73.5,99.6Zm0,13.4c3.5,0,4.9-3,4.9-5.9s-1.5-5.9-4.9-5.9-4.9,3-4.9,5.9S70,113,73.5,113Z" transform="translate(52.4 27.2)"/><path class="d" d="M83.1,105.4H81.4v-1.5h1.7v-1.5c0-1.7,1-2.6,2.9-2.6l1.1.2v1.5h-1c-.8,0-1.3.3-1.3,1.2v1.4h2v1.5h-2v8.8H83.1Z" transform="translate(52.4 27.2)"/><path class="d" d="M89.7,105.4H88v-1.5h1.7v-1.5c0-1.7,1-2.6,2.9-2.6l1.1.2v1.5h-1c-.8,0-1.3.3-1.3,1.2v1.4h2v1.5h-2v8.8H89.7ZM95,99.9h1.7v14.3H95Z" transform="translate(52.4 27.2)"/><path class="d" d="M100.7,102H99V99.9h1.7ZM99,103.9h1.7v10.3H99Z" transform="translate(52.4 27.2)"/><path class="d" d="M102.8,103.9h1.6v1.6h0a3.6,3.6,0,0,1,3.4-1.9c2.7,0,3.6,1.6,3.6,3.8v6.8h-1.7v-7a1.9,1.9,0,0,0-2.1-2.1c-2.1,0-3.1,1.4-3.1,3.2v5.8h-1.7Z" transform="translate(52.4 27.2)"/><path class="d" d="M122.3,110.9a4.1,4.1,0,0,1-4.4,3.5c-3.3,0-4.9-2.3-5-5.4s2-5.4,4.9-5.4,4.8,3.4,4.7,5.9h-7.7A3,3,0,0,0,118,113a2.5,2.5,0,0,0,2.7-2Zm-1.6-2.9a3,3,0,0,0-3-2.9,2.9,2.9,0,0,0-3,2.9Z" transform="translate(52.4 27.2)"/><path class="d" d="M49.4,127.1c-.2-2.1-1.6-2.9-3.5-2.9s-3.2.6-3.2,2.4c0,3.5,9.1,1,9.1,6.7,0,3-3,4.3-5.6,4.3s-5.9-1.6-5.9-5h1.8c0,2.4,2,3.4,4.2,3.4s3.6-.5,3.6-2.6c0-3.9-9.1-1.3-9.1-6.6,0-2.9,2.6-4.2,5.2-4.2s5.2,1.4,5.3,4.5Z" transform="translate(52.4 27.2)"/><path class="d" d="M57.5,138.6c-.8,2-1.5,2.8-3,2.8l-1.2-.2v-1.6l1,.2a1.4,1.4,0,0,0,1.4-.9l.7-1.8-4.1-10.3h1.9l3,8.5h0l2.9-8.5H62Z" transform="translate(52.4 27.2)"/><path class="d" d="M63.2,126.9h1.6v1.6h0a3.6,3.6,0,0,1,3.4-1.9c2.7,0,3.6,1.6,3.6,3.8v6.8H70.1v-7a1.9,1.9,0,0,0-2.1-2.1c-2.1,0-3.1,1.4-3.1,3.2v5.8H63.2Z" transform="translate(52.4 27.2)"/><path class="d" d="M81,130.2a2.4,2.4,0,0,0-2.6-2.1c-2.5,0-3.2,2-3.2,4s.9,3.8,3,3.8a2.6,2.6,0,0,0,2.8-2.5h1.7a4.3,4.3,0,0,1-4.6,4c-3.2,0-4.8-2.2-4.8-5.3s1.6-5.5,4.9-5.5,4.2,1.1,4.5,3.6Z" transform="translate(52.4 27.2)"/><rect class="e" width="228" height="180.67"/></svg>