<svg xmlns="http://www.w3.org/2000/svg" viewBox="0 0 228 180.7"><defs><style>.a{fill:#1d3749;}.b{fill:#fff;}.c{fill:#c2e4f8;}.d{fill:#284b60;}.e{fill:none;}</style></defs><title>04_Comrehensive Security</title><path class="a" d="M85.9,43h-2V18.6c0-7.8-6.5-16.2-15-16.2a14.9,14.9,0,0,0-15,15.3V43h-2V17.8A18.7,18.7,0,0,1,56.8,5.2,16.5,16.5,0,0,1,69.1,0,15.8,15.8,0,0,1,81.2,5.8a20,20,0,0,1,4.7,12.8Z" transform="translate(45.4 24)"/><rect class="b" x="86.9" y="55.4" width="53.4" height="53.44" rx="11.1" ry="11.1"/><path class="a" d="M86.4,86H49.9a9.7,9.7,0,0,1-9.7-9.7V39.9a9.7,9.7,0,0,1,9.7-9.7H86.4a9.7,9.7,0,0,1,9.7,9.7V76.3A9.7,9.7,0,0,1,86.4,86ZM49.9,32.6a7.3,7.3,0,0,0-7.3,7.3V76.3a7.3,7.3,0,0,0,7.3,7.3H86.4a7.3,7.3,0,0,0,7.3-7.3V39.9a7.3,7.3,0,0,0-7.3-7.3Z" transform="translate(45.4 24)"/><path class="c" d="M75,52.7a6.4,6.4,0,1,0-10.2,5.1.9.9,0,0,1,.4.7V69.1H72V58.5a.9.9,0,0,1,.4-.7A6.3,6.3,0,0,0,75,52.7Z" transform="translate(45.4 24)"/><path class="d" d="M73.3,70.3H63.9V58.7a7.6,7.6,0,1,1,9.3,0Zm-6.9-2.5h4.4V58.5a2.1,2.1,0,0,1,.9-1.7,5.1,5.1,0,0,0-4.1-9.2,5.1,5.1,0,0,0-2,9.2,2.1,2.1,0,0,1,.9,1.7Z" transform="translate(45.4 24)"/><path class="a" d="M11.4,106.6a3.8,3.8,0,0,0-4-3c-3.4,0-4.8,2.8-4.8,5.8s1.4,6,4.9,6,4-1.8,4.1-4.1h1.9c-.4,3.6-2.6,5.7-6.2,5.7S.7,113.6.7,109.4s2.4-7.5,6.8-7.5,5.5,1.6,5.9,4.6Z" transform="translate(45.4 24)"/><path class="a" d="M19.9,106c3.3,0,5,2.4,5,5.4s-1.7,5.4-5,5.4-5-2.4-5-5.4S16.7,106,19.9,106Zm0,9.3c1.8,0,3.2-1.4,3.2-3.9s-1.4-3.9-3.2-3.9-3.2,1.4-3.2,3.9S18.2,115.3,19.9,115.3Z" transform="translate(45.4 24)"/><path class="a" d="M26.7,106.2h1.6v1.5h0a3.7,3.7,0,0,1,3.3-1.8,2.7,2.7,0,0,1,2.8,1.8,3.8,3.8,0,0,1,3.2-1.8c2.1,0,3.4.9,3.4,3v7.6H39.5v-6.8c0-1.3-.3-2.3-2-2.3a2.5,2.5,0,0,0-2.7,2.6v6.4H33.1v-6.8c0-1.3-.4-2.3-1.9-2.3a2.8,2.8,0,0,0-2.8,2.6v6.4H26.7Z" transform="translate(45.4 24)"/><path class="a" d="M43.4,106.2h1.7v1.4h0a3.5,3.5,0,0,1,3.3-1.6c3.2,0,4.8,2.5,4.8,5.4s-1.6,5.4-4.7,5.4a4,4,0,0,1-3.3-1.6h0v5.3H43.4Zm4.8,1.3c-2.3,0-3.2,2-3.2,3.9s.9,3.9,3.3,3.9,3.1-2,3.1-4S50.4,107.5,48.2,107.5Z" transform="translate(45.4 24)"/><path class="a" d="M54.8,106.2h1.6v2.2h0a3.7,3.7,0,0,1,3.8-2.4v1.8c-2.7,0-3.7,1.5-3.7,4.2v4.6H54.8Z" transform="translate(45.4 24)"/><path class="a" d="M69.9,113.3a4.1,4.1,0,0,1-4.4,3.5c-3.3,0-4.9-2.3-5-5.4s2-5.4,4.9-5.4,4.8,3.4,4.7,5.9H62.3a3,3,0,0,0,3.2,3.4,2.5,2.5,0,0,0,2.7-2Zm-1.6-2.9a3,3,0,0,0-3-2.9,2.9,2.9,0,0,0-3,2.9Z" transform="translate(45.4 24)"/><path class="a" d="M71.8,102.3h1.7v5.5h0a3.5,3.5,0,0,1,3.3-1.8c2.7,0,3.6,1.6,3.6,3.8v6.8H78.6v-7a1.9,1.9,0,0,0-2.1-2.1c-2.1,0-3.1,1.4-3.1,3.2v5.8H71.8Z" transform="translate(45.4 24)"/><path class="a" d="M91.3,113.3a4.1,4.1,0,0,1-4.4,3.5c-3.3,0-4.9-2.3-5-5.4s2-5.4,4.9-5.4,4.8,3.4,4.7,5.9H83.7a3,3,0,0,0,3.2,3.4,2.5,2.5,0,0,0,2.7-2Zm-1.6-2.9a3,3,0,0,0-3-2.9,2.9,2.9,0,0,0-3,2.9Z" transform="translate(45.4 24)"/><path class="a" d="M93.1,106.2h1.6v1.6h0a3.6,3.6,0,0,1,3.4-1.9c2.7,0,3.6,1.6,3.6,3.8v6.8H100v-7a1.9,1.9,0,0,0-2.1-2.1c-2.1,0-3.1,1.4-3.1,3.2v5.8H93.1Z" transform="translate(45.4 24)"/><path class="a" d="M105,113.3c.1,1.5,1.4,2,2.8,2s2.5-.2,2.5-1.5-6.8-.9-6.8-4.8c0-2.1,2-2.9,3.9-2.9s4.1.7,4.2,3.2h-1.7c-.1-1.3-1.3-1.7-2.4-1.7s-2.2.3-2.2,1.3,1.8,1.4,3.4,1.8,3.4,1,3.4,2.9-2.3,3.3-4.4,3.3-4.3-.9-4.4-3.5Z" transform="translate(45.4 24)"/><path class="a" d="M115.4,104.3h-1.7v-2.1h1.7Zm-1.7,1.9h1.7v10.3h-1.7Z" transform="translate(45.4 24)"/><path class="a" d="M122.2,116.5h-1.8l-3.8-10.3h1.9l2.9,8.6h0l2.8-8.6h1.8Z" transform="translate(45.4 24)"/><path class="a" d="M135.5,113.3a4.1,4.1,0,0,1-4.4,3.5c-3.3,0-4.9-2.3-5-5.4s2-5.4,4.9-5.4,4.8,3.4,4.7,5.9h-7.7a3,3,0,0,0,3.2,3.4,2.5,2.5,0,0,0,2.7-2Zm-1.6-2.9a3,3,0,0,0-3-2.9,2.9,2.9,0,0,0-3,2.9Z" transform="translate(45.4 24)"/><path class="a" d="M41.6,129.4c-.2-2.1-1.6-2.9-3.5-2.9s-3.2.6-3.2,2.4c0,3.5,9.1,1,9.1,6.7,0,3-3,4.3-5.6,4.3s-5.9-1.6-5.9-5h1.8c0,2.4,2,3.4,4.2,3.4s3.6-.5,3.6-2.6c0-3.9-9.1-1.3-9.1-6.6,0-2.9,2.6-4.2,5.2-4.2s5.2,1.4,5.3,4.5Z" transform="translate(45.4 24)"/><path class="a" d="M54.8,136.3a4.1,4.1,0,0,1-4.4,3.5c-3.3,0-4.9-2.3-5-5.4s2-5.4,4.9-5.4,4.8,3.4,4.7,5.9H47.2a3,3,0,0,0,3.2,3.4,2.5,2.5,0,0,0,2.7-2Zm-1.6-2.9a3,3,0,0,0-3-2.9,2.9,2.9,0,0,0-3,2.9Z" transform="translate(45.4 24)"/><path class="a" d="M63.9,132.5a2.4,2.4,0,0,0-2.6-2.1c-2.5,0-3.2,2-3.2,4s.9,3.8,3,3.8a2.6,2.6,0,0,0,2.8-2.5h1.7a4.3,4.3,0,0,1-4.6,4c-3.2,0-4.8-2.2-4.8-5.3s1.6-5.5,4.9-5.5,4.2,1.1,4.5,3.6Z" transform="translate(45.4 24)"/><path class="a" d="M75.9,139.5H74.3v-1.6h0a3.6,3.6,0,0,1-3.4,1.9c-2.7,0-3.6-1.6-3.6-3.8v-6.8H69v7a1.9,1.9,0,0,0,2.1,2.1c2.1,0,3.1-1.4,3.1-3.2v-5.8h1.7Z" transform="translate(45.4 24)"/><path class="a" d="M78,129.2h1.6v2.2h0a3.7,3.7,0,0,1,3.8-2.4v1.8c-2.7,0-3.7,1.5-3.7,4.2v4.6H78Z" transform="translate(45.4 24)"/><path class="a" d="M86.7,127.3H85v-2.1h1.7ZM85,129.2h1.7v10.3H85Z" transform="translate(45.4 24)"/><path class="a" d="M91.3,129.2h2.1v1.5H91.3v6.4c0,.8.2.9,1.3.9h.8v1.5H92.1c-1.8,0-2.5-.4-2.5-2.3v-6.6H87.9v-1.5h1.8v-3.1h1.7Z" transform="translate(45.4 24)"/><path class="a" d="M99.6,140.9c-.8,2-1.5,2.8-3,2.8l-1.2-.2v-1.6l1,.2a1.4,1.4,0,0,0,1.4-.9l.7-1.8-4.1-10.3h1.9l3,8.5h0l2.9-8.5h1.8Z" transform="translate(45.4 24)"/><rect class="e" width="228" height="180.67"/></svg>