<svg xmlns="http://www.w3.org/2000/svg" viewBox="0 0 228 180.7"><defs><style>.a{fill:#fff;}.b{fill:#1d3749;}.c{fill:#010101;}.d{fill:#b3dfd8;}.e{fill:#5f93ce;}.f{fill:none;}</style></defs><title>05_App_Lifecycle_Managment</title><rect class="a" x="58.1" y="25.5" width="113.2" height="83.03" rx="5.9" ry="5.9"/><path class="b" d="M109,85.5H9.5a8,8,0,0,1-8-8V8a8,8,0,0,1,8-8H109a8,8,0,0,1,8,8V77.5A8,8,0,0,1,109,85.5ZM9.5,2.5A5.6,5.6,0,0,0,3.9,8V77.5A5.6,5.6,0,0,0,9.5,83H109a5.6,5.6,0,0,0,5.6-5.6V8A5.6,5.6,0,0,0,109,2.5Z" transform="translate(55.4 24.2)"/><rect class="b" x="58.2" y="35" width="112.9" height="2.46"/><circle class="c" cx="66.3" cy="31.1" r="1.7"/><circle class="c" cx="71.9" cy="31.1" r="1.7"/><circle class="c" cx="77.4" cy="31.1" r="1.7"/><path class="b" d="M96.1,44.7H93.7V30.3c0-4.8-3.9-9.1-8.3-9.1a8.3,8.3,0,0,0-8.3,8.6V44.7H74.6V29.8a10.8,10.8,0,0,1,10.7-11c5.7,0,10.8,5.4,10.8,11.6Z" transform="translate(55.4 24.2)"/><rect class="a" x="124.5" y="60.8" width="32" height="31.98" rx="9.5" ry="9.5"/><path class="b" d="M95.3,69.8H74.8a7,7,0,0,1-7-7V42.4a7,7,0,0,1,7-7H95.3a7,7,0,0,1,7,7V62.8A7,7,0,0,1,95.3,69.8Zm-20.5-32a4.5,4.5,0,0,0-4.5,4.5V62.8a4.5,4.5,0,0,0,4.5,4.5H95.3a4.5,4.5,0,0,0,4.5-4.5V42.4a4.5,4.5,0,0,0-4.5-4.5Z" transform="translate(55.4 24.2)"/><path class="d" d="M88.6,50.5a3.4,3.4,0,1,0-5.1,3v5h3.4v-5A3.4,3.4,0,0,0,88.6,50.5Z" transform="translate(55.4 24.2)"/><path class="e" d="M88.2,59.7H82.3V54.1a4.7,4.7,0,1,1,5.9,0Zm-3.4-2.5h1V52.7l.6-.4a2.2,2.2,0,1,0-2.2,0l.6.4Z" transform="translate(55.4 24.2)"/><rect class="e" x="72.1" y="64.8" width="34.1" height="2.46"/><path class="a" d="M25.6,45.1a3.6,3.6,0,1,0-2.9-2.9A3.6,3.6,0,0,0,25.6,45.1Z" transform="translate(55.4 24.2)"/><path class="b" d="M26.2,46.4h-.8a4.8,4.8,0,0,1-2.6-8.1A4.8,4.8,0,0,1,27,36.8,4.8,4.8,0,0,1,29.6,45,4.7,4.7,0,0,1,26.2,46.4Zm-.4-2.5A2.3,2.3,0,1,0,23.9,42a2.3,2.3,0,0,0,1.9,1.9Z" transform="translate(55.4 24.2)"/><rect class="e" x="72.1" y="75.8" width="34.1" height="2.46"/><path class="a" d="M41.4,56.2a3.6,3.6,0,1,0-2.9-2.9A3.6,3.6,0,0,0,41.4,56.2Z" transform="translate(55.4 24.2)"/><path class="b" d="M42,57.5h-.8a4.8,4.8,0,0,1-2.6-8.1,4.8,4.8,0,0,1,4.2-1.3,4.8,4.8,0,0,1,2.6,8.1A4.7,4.7,0,0,1,42,57.5Zm0-7.1a2.3,2.3,0,0,0-.4,4.6h0a2.3,2.3,0,0,0,.8-4.6Z" transform="translate(55.4 24.2)"/><rect class="e" x="72.1" y="87" width="34.1" height="2.46"/><path class="a" d="M25.6,67.3a3.6,3.6,0,1,0-2.9-2.9A3.6,3.6,0,0,0,25.6,67.3Z" transform="translate(55.4 24.2)"/><path class="b" d="M26.2,68.6h-.8a4.8,4.8,0,0,1-2.6-8.1A4.8,4.8,0,0,1,27,59a4.8,4.8,0,0,1,2.6,8.1A4.7,4.7,0,0,1,26.2,68.6Zm0-7.1a2.3,2.3,0,0,0-.4,4.6h0a2.3,2.3,0,1,0,.8-4.6Z" transform="translate(55.4 24.2)"/><path class="b" d="M5.6,102H7.7l5.6,14.3H11.2L9.6,112h-6L2,116.3H0Zm-1.4,8.4H9l-2.4-6.7h0Z" transform="translate(55.4 24.2)"/><path class="b" d="M14.6,106h1.7v1.4h0a3.5,3.5,0,0,1,3.3-1.6c3.2,0,4.8,2.5,4.8,5.4s-1.6,5.4-4.7,5.4a4,4,0,0,1-3.3-1.6h0v5.3H14.6Zm4.8,1.3c-2.3,0-3.2,2-3.2,3.9s.9,3.9,3.3,3.9,3.1-2,3.1-4S21.6,107.2,19.4,107.2Z" transform="translate(55.4 24.2)"/><path class="b" d="M26.1,106h1.7v1.4h0a3.5,3.5,0,0,1,3.3-1.6c3.2,0,4.8,2.5,4.8,5.4s-1.6,5.4-4.7,5.4a4,4,0,0,1-3.3-1.6h0v5.3H26.1Zm4.8,1.3c-2.3,0-3.2,2-3.2,3.9s.9,3.9,3.3,3.9,3.1-2,3.1-4S33.1,107.2,30.9,107.2Z" transform="translate(55.4 24.2)"/><path class="b" d="M42.7,102h1.9v12.7h7.6v1.6H42.7Z" transform="translate(55.4 24.2)"/><path class="b" d="M55.9,104.1H54.2V102h1.7ZM54.2,106h1.7v10.3H54.2Z" transform="translate(55.4 24.2)"/><path class="b" d="M59,107.5H57.3V106H59v-1.5c0-1.7,1-2.6,2.9-2.6l1.1.2v1.5H62c-.8,0-1.3.3-1.3,1.2V106h2v1.5h-2v8.8H59Z" transform="translate(55.4 24.2)"/><path class="b" d="M72.4,113a4.1,4.1,0,0,1-4.4,3.5c-3.3,0-4.9-2.3-5-5.4s2-5.4,4.9-5.4,4.8,3.4,4.7,5.9H64.8A3,3,0,0,0,68,115a2.5,2.5,0,0,0,2.7-2Zm-1.6-2.9a3,3,0,0,0-3-2.9,2.9,2.9,0,0,0-3,2.9Z" transform="translate(55.4 24.2)"/><path class="b" d="M81.5,109.3a2.4,2.4,0,0,0-2.6-2.1c-2.5,0-3.2,2-3.2,4s.9,3.8,3,3.8a2.6,2.6,0,0,0,2.8-2.5h1.7a4.3,4.3,0,0,1-4.6,4c-3.2,0-4.8-2.2-4.8-5.3s1.6-5.5,4.9-5.5,4.2,1.1,4.5,3.6Z" transform="translate(55.4 24.2)"/><path class="b" d="M89.1,117.7c-.8,2-1.5,2.8-3,2.8l-1.2-.2v-1.6l1,.2a1.4,1.4,0,0,0,1.4-.9l.7-1.8L83.9,106h1.9l3,8.5h0l2.9-8.5h1.8Z" transform="translate(55.4 24.2)"/><path class="b" d="M101.3,109.3a2.4,2.4,0,0,0-2.6-2.1c-2.5,0-3.2,2-3.2,4s.9,3.8,3,3.8a2.6,2.6,0,0,0,2.8-2.5h1.7a4.3,4.3,0,0,1-4.6,4c-3.2,0-4.8-2.2-4.8-5.3s1.6-5.5,4.9-5.5,4.2,1.1,4.5,3.6Z" transform="translate(55.4 24.2)"/><path class="b" d="M104.9,102h1.7v14.3h-1.7Z" transform="translate(55.4 24.2)"/><path class="b" d="M117.7,113a4.1,4.1,0,0,1-4.4,3.5c-3.3,0-4.9-2.3-5-5.4s2-5.4,4.9-5.4,4.8,3.4,4.7,5.9h-7.7a3,3,0,0,0,3.2,3.4,2.5,2.5,0,0,0,2.7-2Zm-1.6-2.9a3,3,0,0,0-3-2.9,2.9,2.9,0,0,0-3,2.9Z" transform="translate(55.4 24.2)"/><path class="b" d="M1.4,125H4l4.5,12L13,125h2.6v14.3H13.8V127.4h0L9.3,139.3H7.7L3.3,127.4h0v11.9H1.4Z" transform="translate(55.4 24.2)"/><path class="b" d="M27.3,139.3a2.4,2.4,0,0,1-1.2.3c-.9,0-1.4-.5-1.4-1.6a4.5,4.5,0,0,1-3.6,1.6c-1.9,0-3.4-.8-3.4-2.9s1.7-2.9,3.5-3.2,3.5-.2,3.5-1.5-1.2-1.7-2.3-1.7-2.5.4-2.6,2H17.9c.1-2.6,2.1-3.5,4.4-3.5s3.9.4,3.9,2.8v5.3c0,.8,0,1.2.5,1.2h.5ZM24.5,134c-1.3,1-5.2,0-5.2,2.6s1,1.5,2,1.5,3.2-1.4,3.2-2.3Z" transform="translate(55.4 24.2)"/><path class="b" d="M28.8,129h1.6v1.6h0a3.6,3.6,0,0,1,3.4-1.9c2.7,0,3.6,1.6,3.6,3.8v6.8H35.7v-7a1.9,1.9,0,0,0-2.1-2.1c-2.1,0-3.1,1.4-3.1,3.2v5.8H28.8Z" transform="translate(55.4 24.2)"/><path class="b" d="M48.7,139.3a2.4,2.4,0,0,1-1.2.3c-.9,0-1.4-.5-1.4-1.6a4.5,4.5,0,0,1-3.6,1.6c-1.9,0-3.4-.8-3.4-2.9s1.7-2.9,3.5-3.2,3.5-.2,3.5-1.5-1.2-1.7-2.3-1.7-2.5.4-2.6,2H39.4c.1-2.6,2.1-3.5,4.4-3.5s3.9.4,3.9,2.8v5.3c0,.8,0,1.2.5,1.2h.5ZM46,134c-1.3,1-5.2,0-5.2,2.6s1,1.5,2,1.5,3.2-1.4,3.2-2.3Z" transform="translate(55.4 24.2)"/><path class="b" d="M59.1,138.4c0,3.4-1.5,5.1-4.8,5.1s-4.2-.8-4.3-3h1.7c.1,1.2,1.6,1.7,2.7,1.7s3.1-1.6,3.1-3.9v-.7h0a3.4,3.4,0,0,1-3.2,1.9c-3.1,0-4.6-2.4-4.6-5.2s1.2-5.5,4.8-5.5a3.4,3.4,0,0,1,3.1,1.7h0V129h1.6Zm-1.7-4.5c0-1.8-.8-3.7-2.9-3.7s-3.1,1.8-3.1,3.8.7,3.9,2.9,3.9S57.5,135.9,57.5,133.9Z" transform="translate(55.4 24.2)"/><path class="b" d="M70.2,136a4.1,4.1,0,0,1-4.4,3.5c-3.3,0-4.9-2.3-5-5.4s2-5.4,4.9-5.4,4.8,3.4,4.7,5.9H62.6a3,3,0,0,0,3.2,3.4,2.5,2.5,0,0,0,2.7-2Zm-1.6-2.9a3,3,0,0,0-3-2.9,2.9,2.9,0,0,0-3,2.9Z" transform="translate(55.4 24.2)"/><path class="b" d="M72.1,129h1.6v1.5h0a3.7,3.7,0,0,1,3.3-1.8,2.7,2.7,0,0,1,2.8,1.8,3.8,3.8,0,0,1,3.2-1.8c2.1,0,3.4.9,3.4,3v7.6H84.9v-6.8c0-1.3-.3-2.3-2-2.3a2.5,2.5,0,0,0-2.7,2.6v6.4H78.5v-6.8c0-1.3-.4-2.3-1.9-2.3a2.8,2.8,0,0,0-2.8,2.6v6.4H72.1Z" transform="translate(55.4 24.2)"/><path class="b" d="M97.5,136a4.1,4.1,0,0,1-4.4,3.5c-3.3,0-4.9-2.3-5-5.4s2-5.4,4.9-5.4,4.8,3.4,4.7,5.9H90a3,3,0,0,0,3.2,3.4,2.5,2.5,0,0,0,2.7-2Zm-1.6-2.9a3,3,0,0,0-3-2.9,2.9,2.9,0,0,0-3,2.9Z" transform="translate(55.4 24.2)"/><path class="b" d="M99.4,129H101v1.6h0a3.6,3.6,0,0,1,3.4-1.9c2.7,0,3.6,1.6,3.6,3.8v6.8h-1.7v-7a1.9,1.9,0,0,0-2.1-2.1c-2.1,0-3.1,1.4-3.1,3.2v5.8H99.4Z" transform="translate(55.4 24.2)"/><path class="b" d="M112.2,129h2.1v1.5h-2.1v6.4c0,.8.2.9,1.3.9h.8v1.5H113c-1.8,0-2.5-.4-2.5-2.3v-6.6h-1.8V129h1.8v-3.1h1.7Z" transform="translate(55.4 24.2)"/><rect class="f" width="228" height="180.67"/></svg>