<?xml version="1.0" encoding="utf-8"?>
<!-- Generator: Adobe Illustrator 19.1.0, SVG Export Plug-In . SVG Version: 6.00 Build 0)  -->
<svg version="1.1" id="Layer_1" xmlns="http://www.w3.org/2000/svg" xmlns:xlink="http://www.w3.org/1999/xlink" x="0px" y="0px"
	 viewBox="0 0 200 200" style="enable-background:new 0 0 200 200;" xml:space="preserve">
<g>
	<circle style="fill:#C0E6FF;stroke:#264A60;stroke-width:2;" cx="100.7" cy="98.8" r="63.2"/>
	<g>
		<g>
			<line style="fill:none;stroke:#264A60;stroke-dasharray:1,1;" x1="91" y1="85.5" x2="109" y2="85.5"/>
			<polyline style="fill:none;stroke:#264A60;" points="109.2,85.3 109.7,85.3 109.7,84.8 			"/>
			<line style="fill:none;stroke:#264A60;stroke-dasharray:1,1;" x1="109.5" y1="84" x2="109.5" y2="70"/>
			<line style="fill:none;stroke:#264A60;" x1="109.5" y1="70" x2="109.5" y2="69"/>
		</g>
	</g>
	<g>
		<g>
			<line style="fill:none;stroke:#264A60;stroke-dasharray:1,1;" x1="91" y1="112.5" x2="109" y2="112.5"/>
			<polyline style="fill:none;stroke:#264A60;" points="109.2,112 109.7,112 109.7,112.5 			"/>
			<line style="fill:none;stroke:#264A60;stroke-dasharray:1,1;" x1="109.5" y1="114" x2="109.5" y2="127"/>
		</g>
	</g>
	<g>
		<g>
			<line style="fill:none;stroke:#264A60;" x1="37" y1="99.5" x2="38" y2="99.5"/>
			<line style="fill:none;stroke:#264A60;stroke-dasharray:1,1;" x1="39" y1="99.5" x2="122" y2="99.5"/>
			<polyline style="fill:none;stroke:#264A60;" points="122.1,99.7 122.6,99.7 122.6,99.2 			"/>
			<line style="fill:none;stroke:#264A60;stroke-dasharray:1,1;" x1="122.5" y1="98" x2="122.5" y2="84"/>
			<polyline style="fill:none;stroke:#264A60;" points="122.6,84 122.6,83.5 123.1,83.5 			"/>
			<line style="fill:none;stroke:#264A60;stroke-dasharray:1,1;" x1="124" y1="83.5" x2="134" y2="83.5"/>
		</g>
	</g>
	<g>
		<path style="fill:#FFFFFF;stroke:#264A60;stroke-width:2;" d="M90,116c0,1.7-1.3,3-3,3H58c-1.7,0-3-1.3-3-3V82c0-1.7,1.3-3,3-3h29
			c1.7,0,3,1.3,3,3V116z"/>
		<line style="fill:none;stroke:#264A60;stroke-width:2;" x1="55" y1="106" x2="90" y2="106"/>
		<line style="fill:none;stroke:#264A60;stroke-width:2;" x1="55" y1="92" x2="90" y2="92"/>
		<line style="fill:none;stroke:#264A60;stroke-width:2;" x1="59" y1="85" x2="79" y2="85"/>
		<ellipse style="fill:#264A60;" cx="82.6" cy="84.9" rx="1.7" ry="1.6"/>
		<line style="fill:none;stroke:#264A60;stroke-width:2;" x1="59" y1="98" x2="79" y2="98"/>
		<ellipse style="fill:#264A60;" cx="82.6" cy="98.4" rx="1.7" ry="1.6"/>
		<line style="fill:none;stroke:#264A60;stroke-width:2;" x1="59" y1="112" x2="79" y2="112"/>
		<ellipse style="fill:#264A60;" cx="82.6" cy="112" rx="1.7" ry="1.6"/>
	</g>
	<polygon style="fill:#FFFFFF;stroke:#264A60;stroke-width:2;" points="102.9,68 109.6,56.4 116.3,68 	"/>
	<circle style="fill:#FFFFFF;stroke:#264A60;stroke-width:1.5;" cx="142.6" cy="83.5" r="7.4"/>
	<polygon style="fill:#FFFFFF;stroke:#264A60;stroke-width:1.5;" points="114.4,140.1 105.6,140.2 102.8,131.9 109.8,126.7 
		117,131.8 	"/>
</g>
</svg>
