<svg xmlns="http://www.w3.org/2000/svg" viewBox="0 0 376 278"><defs><style>.a,.e{fill:#fff;}.a,.b,.d,.e{stroke:#1d3749;}.a,.b{stroke-width:8px;}.b,.d{fill:none;}.c{fill:#010101;}.d,.f,.g{stroke-width:5px;}.e{stroke-width:6px;}.f{fill:#c2e4f8;stroke:#1d1d1b;stroke-miterlimit:10;}.g{fill:#b3dfd8;stroke:#5f93ce;}</style></defs><title>Asset 3</title><rect class="a" x="4" y="4" width="368" height="270" rx="22.1" ry="22.1"/><line class="b" x1="4.5" y1="39" x2="371.5" y2="39"/><circle class="c" cx="30.6" cy="22.4" r="5.6"/><circle class="c" cx="48.8" cy="22.4" r="5.6"/><circle class="c" cx="67" cy="22.4" r="5.6"/><line class="d" x1="24.4" y1="39.8" x2="352.4" y2="39.8"/><path class="e" d="M180.9,229.4H152.3V192.5h22.8a5.8,5.8,0,0,1,5.8,5.8Z"/><path class="e" d="M123.7,229.4H95.1V192.5h28.6Z"/><path class="f" d="M123.9,192.8h-29v-37h29Z"/><path class="f" d="M123.9,155.8h-29v-37h29Z"/><path class="e" d="M95.1,230V89.8a5.8,5.8,0,0,1,5.8-5.8H118a5.7,5.7,0,0,1,5.7,5.7V230"/><circle class="e" cx="242.1" cy="219" r="10.9"/><circle class="e" cx="277.9" cy="219" r="10.9"/><circle class="g" cx="260" cy="133.3" r="47.6"/><polyline class="g" points="259.9 86.3 260 136.8 306.4 136.8"/><path class="e" d="M123.7,230V156.7h22.8a5.8,5.8,0,0,1,5.8,5.8V230"/><path class="e" d="M123.7,230"/><path class="e" d="M95.1,230"/><path class="e" d="M95.1,230"/><path class="e" d="M66.5,230"/><path class="e" d="M152.9,229.4H66.5V124.3a5.8,5.8,0,0,1,5.8-5.8H95.1V230"/><line class="e" x1="95.1" y1="118.6" x2="123.9" y2="118.6"/><line class="e" x1="95.1" y1="157" x2="123.9" y2="157"/><line class="e" x1="95.1" y1="192.5" x2="123.9" y2="192.5"/></svg>