<?xml version="1.0" encoding="utf-8"?>
<!-- Generator: Adobe Illustrator 19.1.0, SVG Export Plug-In . SVG Version: 6.00 Build 0)  -->
<svg version="1.1" id="Layer_1" xmlns="http://www.w3.org/2000/svg" xmlns:xlink="http://www.w3.org/1999/xlink" x="0px" y="0px"
	 viewBox="0 0 100 100" style="enable-background:new 0 0 100 100;" xml:space="preserve">
<g>
	<path style="fill:none;stroke:#264A60;stroke-linejoin:round;" d="M69.5,82.5c0,1.7-1.3,3-3,3h-34c-1.7,0-3-1.3-3-3v-64
		c0-1.7,1.3-3,3-3h34c1.7,0,3,1.3,3,3V82.5z"/>
	<rect x="29.5" y="24.5" style="fill:none;stroke:#264A60;" width="40" height="53"/>
	<g>
		<path style="fill-rule:evenodd;clip-rule:evenodd;fill:#7CC7FF;" d="M59.5,45.1c-0.9,0-1.6,0.7-1.6,1.6v6.4c0,0.9,0.7,1.6,1.6,1.6
			c0.9,0,1.6-0.7,1.6-1.6v-6.4C61.1,45.9,60.4,45.1,59.5,45.1z M40,45.1c-0.9,0-1.6,0.7-1.6,1.6v6.4c0,0.9,0.7,1.6,1.6,1.6
			s1.6-0.7,1.6-1.6v-6.4C41.6,45.9,40.9,45.1,40,45.1z"/>
	</g>
	<g>
		<path style="fill-rule:evenodd;clip-rule:evenodd;fill:#7CC7FF;" d="M43,45v11.9c0,0.7,0.1,1.1,0.8,1.1H45v3.7
			c0,0.9,0.6,1.6,1.5,1.6s1.5-0.7,1.5-1.6V58h3v3.7c0,0.9,0.6,1.6,1.5,1.6c0.9,0,1.5-0.7,1.5-1.6V58h1.7c0.7,0,1.3-0.4,1.3-1.1V45
			H43z"/>
	</g>
	<g>
		<path style="fill-rule:evenodd;clip-rule:evenodd;fill:#7CC7FF;" d="M53.1,39.1l1.3-1.9c0.1-0.1,0.1-0.3,0-0.3
			c-0.1-0.1-0.3,0-0.3,0.1l-1.4,2c-0.9-0.4-1.9-0.6-3-0.6c-1.1,0-2.1,0.2-3,0.6l-1.4-2c-0.1-0.1-0.2-0.1-0.3-0.1
			c-0.1,0.1-0.1,0.2,0,0.3l1.3,1.9c-2.1,1-3.6,2.8-3.8,5h14.4C56.7,41.9,55.2,40.1,53.1,39.1z M46.7,42.1c-0.4,0-0.8-0.4-0.8-0.8
			c0-0.4,0.4-0.8,0.8-0.8c0.4,0,0.8,0.4,0.8,0.8C47.5,41.8,47.1,42.1,46.7,42.1z M52.8,42.1c-0.4,0-0.8-0.4-0.8-0.8
			c0-0.4,0.4-0.8,0.8-0.8c0.4,0,0.8,0.4,0.8,0.8C53.6,41.8,53.3,42.1,52.8,42.1z"/>
	</g>
	<rect x="48" y="81" style="fill:#264A60;" width="3" height="2"/>
	<line style="fill:none;stroke:#264A60;stroke-linecap:round;" x1="46" y1="20.5" x2="52" y2="20.5"/>
</g>
</svg>
