<?xml version="1.0" encoding="utf-8"?>
<!-- Generator: Adobe Illustrator 19.1.0, SVG Export Plug-In . SVG Version: 6.00 Build 0)  -->
<svg version="1.1" id="Layer_1" xmlns="http://www.w3.org/2000/svg" xmlns:xlink="http://www.w3.org/1999/xlink" x="0px" y="0px"
	 viewBox="0 0 50 50" style="enable-background:new 0 0 50 50;" xml:space="preserve">
<g>
	<path style="fill:#C0E6FF;stroke:#264A60;" d="M22.1,23c0.6,0.5,0.5,1.9,0.3,2.3c-0.2,0.4-0.9,0.6-1.7,0.4
		c-0.7-0.2-1.5,0.5-1.8,1.6c-0.2,1,0.2,2,1,2.2c0.7,0.2,1.4,1.4,1.4,1.9c0,0.4-0.5,1-1.2,1.2c-0.7,0.2-1.1,1.2-0.7,2.2
		c0.3,1,1.2,1.6,1.9,1.4c0.7-0.2,1.5-0.1,1.7,0.3c0.2,0.4,0.5,1.8,0,2.3c-0.5,0.6-0.3,1.6,0.5,2.3c0.8,0.7,1.8,0.8,2.4,0.3
		c0.5-0.6,1.9-0.4,2.3-0.3c0.4,0.2,0.6,0.9,0.4,1.7c-0.2,0.7,0.5,1.5,1.6,1.8c1,0.2,2-0.2,2.2-1c0.2-0.7,1.4-1.4,1.9-1.4
		c0.4,0,1,0.5,1.2,1.2c0.2,0.7,1.2,1.1,2.2,0.7c1-0.3,1.6-1.2,1.4-1.9c-0.2-0.7,0.6-1.9,0.9-2.2c0.4-0.3,1.1,0,1.7,0.5
		c0.6,0.5,1.6,0.3,2.3-0.5c0.7-0.8,0.8-1.8,0.3-2.3c-0.6-0.5-0.5-1.9-0.3-2.3c0.2-0.4,0.9-0.6,1.7-0.4c0.7,0.2,1.5-0.5,1.8-1.6
		c0.2-1-0.2-2-1-2.2c-0.8-0.2-1.4-1.4-1.4-1.9c0-0.4,0.5-1,1.2-1.2c0.7-0.2,1.1-1.2,0.7-2.2c-0.3-1-1.2-1.6-1.9-1.4
		c-0.7,0.2-1.9-0.6-2.2-0.9c-0.3-0.4,0-1.1,0.5-1.7c0.5-0.6,0.3-1.6-0.5-2.3c-0.8-0.7-1.8-0.8-2.4-0.3c-0.5,0.6-1.9,0.4-2.3,0.3
		c-0.4-0.2-0.6-0.9-0.4-1.7c0.2-0.7-0.5-1.5-1.6-1.8c-1-0.2-2,0.2-2.2,1c-0.2,0.7-1.4,1.4-1.9,1.4c-0.4,0-1-0.5-1.2-1.2
		c-0.2-0.7-1.2-1.1-2.2-0.7c-1,0.3-1.6,1.2-1.4,1.9c0.2,0.7-0.6,1.9-0.9,2.1c-0.4,0.3-1.1,0-1.7-0.5c-0.6-0.5-1.6-0.3-2.3,0.5
		C21.6,21.5,21.5,22.5,22.1,23z M30.5,22.5c4.4-1.4,9.1,1,10.5,5.4c1.4,4.4-1,9.1-5.4,10.5c-4.4,1.4-9.1-1-10.5-5.4
		C23.7,28.6,26.1,23.9,30.5,22.5z"/>
	<path style="fill:#FFFFFF;stroke:#264A60;" d="M6,9.8c0.4,0.3,0.3,1.2,0.2,1.5C6,11.5,5.5,11.6,5,11.5c-0.5-0.1-1,0.4-1.1,1
		c-0.1,0.7,0.1,1.3,0.6,1.4C5,14,5.4,14.9,5.4,15.1c0,0.3-0.3,0.6-0.8,0.8c-0.5,0.2-0.7,0.8-0.5,1.4c0.2,0.6,0.8,1,1.2,0.9
		c0.5-0.2,1-0.1,1.1,0.2c0.1,0.2,0.3,1.1,0,1.5c-0.3,0.4-0.2,1,0.3,1.5c0.5,0.5,1.2,0.5,1.5,0.2c0.3-0.4,1.2-0.3,1.5-0.2
		c0.3,0.1,0.4,0.6,0.3,1.1c-0.1,0.5,0.4,1,1,1.1c0.7,0.1,1.3-0.1,1.4-0.6c0.1-0.5,0.9-0.9,1.2-0.9c0.3,0,0.6,0.3,0.8,0.8
		c0.1,0.5,0.8,0.7,1.4,0.5c0.6-0.2,1-0.8,0.9-1.2c-0.2-0.5,0.4-1.2,0.6-1.4c0.2-0.2,0.7,0,1.1,0.3c0.4,0.3,1,0.2,1.5-0.3
		c0.5-0.5,0.5-1.2,0.2-1.5c-0.4-0.3-0.3-1.2-0.2-1.5c0.1-0.3,0.6-0.4,1.1-0.3c0.5,0.1,1-0.4,1.1-1c0.1-0.7-0.1-1.3-0.6-1.4
		c-0.5-0.1-0.9-0.9-0.9-1.2c0-0.3,0.3-0.6,0.8-0.8c0.5-0.1,0.7-0.8,0.5-1.4c-0.2-0.6-0.8-1-1.2-0.9c-0.5,0.1-1.2-0.4-1.4-0.6
		c-0.2-0.2,0-0.7,0.3-1.1c0.3-0.4,0.2-1-0.3-1.5c-0.5-0.5-1.2-0.5-1.5-0.2c-0.3,0.4-1.2,0.3-1.5,0.2C16.1,7.5,15.9,7,16,6.5
		c0.1-0.5-0.4-1-1-1.1c-0.7-0.1-1.3,0.1-1.4,0.6c-0.1,0.5-0.9,0.9-1.2,0.9c-0.3,0-0.6-0.3-0.8-0.8c-0.2-0.5-0.8-0.7-1.4-0.5
		c-0.6,0.2-1,0.8-0.9,1.2c0.2,0.5-0.4,1.2-0.6,1.4C8.5,8.4,8,8.3,7.6,7.9c-0.4-0.3-1-0.2-1.5,0.3C5.7,8.8,5.6,9.4,6,9.8z M11.4,9.4
		c2.8-0.9,5.8,0.6,6.8,3.5c0.9,2.8-0.6,5.8-3.5,6.7c-2.8,0.9-5.8-0.6-6.8-3.5C7,13.3,8.6,10.3,11.4,9.4z"/>
	<path style="fill:#FFFFFF;stroke:#264A60;" d="M4.3,29.1c0.3,0.3,0.2,1,0.1,1.1c-0.1,0.2-0.5,0.3-0.8,0.2c-0.4-0.1-0.8,0.3-0.9,0.8
		c-0.1,0.5,0.1,1,0.5,1.1c0.4,0.1,0.7,0.7,0.7,0.9c0,0.2-0.3,0.5-0.6,0.6C2.9,34,2.7,34.5,2.9,35c0.2,0.5,0.6,0.8,0.9,0.7
		c0.4-0.1,0.7-0.1,0.9,0.1c0.1,0.2,0.2,0.9,0,1.2c-0.3,0.3-0.1,0.8,0.2,1.1c0.4,0.3,0.9,0.4,1.2,0.1c0.3-0.3,1-0.2,1.2-0.1
		c0.2,0.1,0.3,0.5,0.2,0.8c-0.1,0.4,0.3,0.8,0.8,0.9c0.5,0.1,1-0.1,1.1-0.5c0.1-0.4,0.7-0.7,0.9-0.7c0.2,0,0.5,0.3,0.6,0.6
		c0.1,0.4,0.6,0.5,1.1,0.4c0.5-0.2,0.8-0.6,0.7-0.9c-0.1-0.4,0.3-0.9,0.5-1.1c0.2-0.1,0.6,0,0.8,0.2c0.3,0.3,0.8,0.1,1.1-0.2
		c0.3-0.4,0.4-0.9,0.1-1.2c-0.3-0.3-0.2-1-0.1-1.1c0.1-0.2,0.5-0.3,0.8-0.2c0.4,0.1,0.8-0.3,0.9-0.8c0.1-0.5-0.1-1-0.5-1.1
		c-0.4-0.1-0.7-0.7-0.7-0.9c0-0.2,0.3-0.5,0.6-0.6c0.4-0.1,0.5-0.6,0.4-1.1c-0.2-0.5-0.6-0.8-0.9-0.7c-0.4,0.1-0.9-0.3-1.1-0.5
		c-0.1-0.2,0-0.5,0.2-0.8c0.3-0.3,0.1-0.8-0.2-1.1c-0.4-0.3-0.9-0.4-1.2-0.1c-0.3,0.3-1,0.2-1.2,0.1C12,27.4,11.9,27,12,26.7
		c0.1-0.4-0.3-0.8-0.8-0.9c-0.5-0.1-1,0.1-1.1,0.5c-0.1,0.4-0.7,0.7-0.9,0.7c-0.2,0-0.5-0.3-0.6-0.6C8.5,26,8,25.8,7.5,26
		c-0.5,0.2-0.8,0.6-0.7,0.9c0.1,0.4-0.3,0.9-0.5,1.1c-0.2,0.1-0.5,0-0.8-0.2c-0.3-0.3-0.8-0.1-1.1,0.2C4,28.4,4,28.9,4.3,29.1z
		 M8.4,28.9c2.2-0.7,4.5,0.5,5.2,2.7c0.7,2.2-0.5,4.5-2.7,5.2c-2.2,0.7-4.5-0.5-5.2-2.7C5.1,31.9,6.3,29.6,8.4,28.9z"/>
</g>
</svg>
