<?xml version="1.0" encoding="utf-8"?>
<!-- Generator: Adobe Illustrator 19.1.0, SVG Export Plug-In . SVG Version: 6.00 Build 0)  -->
<svg version="1.1" id="Layer_1" xmlns="http://www.w3.org/2000/svg" xmlns:xlink="http://www.w3.org/1999/xlink" x="0px" y="0px"
	 viewBox="0 0 160 160" style="enable-background:new 0 0 160 160;" xml:space="preserve">
<g>
	<g>
		<defs>
			<path id="SVGID_7_" d="M59,80c0,3.9,0.8,7.8,2.3,11.4c1.4,3.5,3.5,6.6,6.2,9.3c0.6,0.6,1.2,1.1,1.8,1.7l0-44.6
				c-0.6,0.5-1.2,1.1-1.8,1.7c-2.6,2.7-4.7,5.8-6.2,9.3C59.8,72.2,59,76.1,59,80"/>
		</defs>
		<clipPath id="SVGID_2_">
			<use xlink:href="#SVGID_7_"  style="overflow:visible;"/>
		</clipPath>
		<rect x="35.8" y="34.5" style="clip-path:url(#SVGID_2_);fill:#94A3AB;" width="56.6" height="91"/>
	</g>
	<g>
		<defs>
			<path id="SVGID_9_" d="M108.1,59.4c-2.6-2.7-5.7-4.8-9.1-6.3c-3.5-1.5-7.3-2.3-11.2-2.3c-3.4,0-6.7,0.6-9.8,1.7l38.1,22.4
				c-0.4-2.2-1-4.3-1.8-6.3C112.8,65.2,110.7,62.1,108.1,59.4"/>
		</defs>
		<clipPath id="SVGID_4_">
			<use xlink:href="#SVGID_9_"  style="overflow:visible;"/>
		</clipPath>
		<rect x="54.7" y="27.6" style="clip-path:url(#SVGID_4_);fill:#00B29F;" width="84.5" height="70.5"/>
	</g>
	<g>
		<defs>
			<path id="SVGID_11_" d="M74.4,54.2C74.4,54.2,74.4,54.2,74.4,54.2l14,24.6h28.1c0-0.3,0-0.6-0.1-0.9L75.3,53.7
				C75,53.9,74.7,54,74.4,54.2"/>
		</defs>
		<clipPath id="SVGID_6_">
			<use xlink:href="#SVGID_11_"  style="overflow:visible;"/>
		</clipPath>
		<rect x="51.2" y="30.5" style="clip-path:url(#SVGID_6_);fill:#00B29F;" width="88.5" height="71.5"/>
	</g>
	<g>
		<defs>
			<path id="SVGID_13_" d="M116.5,81.2L116.5,81.2H88.4v0l-14,24.7h0c0.3,0.1,0.6,0.3,0.8,0.4l41.2-24.1
				C116.5,81.8,116.5,81.5,116.5,81.2"/>
		</defs>
		<clipPath id="SVGID_8_">
			<use xlink:href="#SVGID_13_"  style="overflow:visible;"/>
		</clipPath>
		<rect x="51.2" y="58" style="clip-path:url(#SVGID_8_);fill:#5AAAFA;" width="88.5" height="71.5"/>
	</g>
	<g>
		<defs>
			<path id="SVGID_15_" d="M99,106.9c3.4-1.5,6.5-3.6,9.1-6.3c2.6-2.7,4.7-5.8,6.2-9.3c0.8-2,1.5-4.1,1.8-6.3l-38.2,22.4
				c3.1,1.2,6.4,1.8,9.8,1.8C91.6,109.2,95.4,108.4,99,106.9"/>
		</defs>
		<clipPath id="SVGID_10_">
			<use xlink:href="#SVGID_15_"  style="overflow:visible;"/>
		</clipPath>
		<rect x="54.7" y="61.9" style="clip-path:url(#SVGID_10_);fill:#5AAAFA;" width="84.6" height="70.5"/>
	</g>
	<g>
		<defs>
			<path id="SVGID_17_" d="M86.4,80L86.4,80L86.4,80l-14-24.6c0,0,0,0,0,0c-0.1,0.1-0.8,0.5-0.8,0.5l0,48.2c0.3,0.2,0.5,0.3,0.8,0.5
				L86.4,80z"/>
		</defs>
		<clipPath id="SVGID_12_">
			<use xlink:href="#SVGID_17_"  style="overflow:visible;"/>
		</clipPath>
		<rect x="48.4" y="32.2" style="clip-path:url(#SVGID_12_);fill:#94A3AB;" width="61.2" height="95.7"/>
	</g>
	<g>
		<defs>
			<polygon id="SVGID_19_" points="88.4,81.2 88.4,81.2 88.4,81.2 			"/>
		</defs>
		<clipPath id="SVGID_14_">
			<use xlink:href="#SVGID_19_"  style="overflow:visible;"/>
		</clipPath>
		<rect x="65.2" y="58" style="clip-path:url(#SVGID_14_);fill:#90908F;" width="46.4" height="46.4"/>
	</g>
	<g>
		<defs>
			<polyline id="SVGID_21_" points="27.2,26.8 132.8,26.8 132.8,133.2 27.2,133.2 			"/>
		</defs>
		<clipPath id="SVGID_16_">
			<use xlink:href="#SVGID_21_"  style="overflow:visible;"/>
		</clipPath>
		<g style="clip-path:url(#SVGID_16_);enable-background:new    ;">
			<g>
				<defs>
					<rect id="SVGID_23_" x="71.6" y="22.8" width="65" height="55.7"/>
				</defs>
				<clipPath id="SVGID_18_">
					<use xlink:href="#SVGID_23_"  style="overflow:visible;"/>
				</clipPath>
				<g style="clip-path:url(#SVGID_18_);">
					<defs>
						<path id="SVGID_25_" d="M87.8,48.6c15.9,0,29,12.1,30.8,27.8c0,0.4,0.1,0.9,0.1,1.3c0,0,0,0,0,0l14.2-24.9l-14.8-26H88.4
							l-14.2,25c0.4-0.2,0.9-0.4,1.3-0.6C79.3,49.5,83.4,48.6,87.8,48.6"/>
					</defs>
					<clipPath id="SVGID_20_">
						<use xlink:href="#SVGID_25_"  style="overflow:visible;"/>
					</clipPath>
					<g style="clip-path:url(#SVGID_20_);">
						<defs>
							<rect id="SVGID_27_" x="25.1" y="22.8" width="111.4" height="111.4"/>
						</defs>
						<clipPath id="SVGID_22_">
							<use xlink:href="#SVGID_27_"  style="overflow:visible;"/>
						</clipPath>
						<rect x="51" y="3.6" style="clip-path:url(#SVGID_22_);fill:#00B29F;" width="105" height="97.3"/>
					</g>
				</g>
			</g>
		</g>
	</g>
	<g>
		<defs>
			<rect id="SVGID_29_" x="74.5" y="108.2" width="0" height="1.1"/>
		</defs>
		<clipPath id="SVGID_24_">
			<use xlink:href="#SVGID_29_"  style="overflow:visible;"/>
		</clipPath>
		<rect x="51" y="85.1" style="clip-path:url(#SVGID_24_);fill:#90908F;" width="47" height="47.4"/>
	</g>
	<g>
		<defs>
			<rect id="SVGID_31_" x="27.2" y="26.8" width="105.7" height="106.5"/>
		</defs>
		<clipPath id="SVGID_26_">
			<use xlink:href="#SVGID_31_"  style="overflow:visible;"/>
		</clipPath>
		<g style="clip-path:url(#SVGID_26_);enable-background:new    ;">
			<g>
				<defs>
					<rect id="SVGID_33_" x="71.6" y="78.5" width="65" height="55.7"/>
				</defs>
				<clipPath id="SVGID_28_">
					<use xlink:href="#SVGID_33_"  style="overflow:visible;"/>
				</clipPath>
				<g style="clip-path:url(#SVGID_28_);">
					<defs>
						<path id="SVGID_35_" d="M118.6,82.3L118.6,82.3c0,0.5-0.1,0.9-0.1,1.4c-1.8,15.6-14.9,27.8-30.8,27.8c-4.4,0-8.5-0.9-12.3-2.6
							c-0.4-0.2-0.8-0.4-1.3-0.6l14.2,25H118l14.8-26L118.6,82.3z"/>
					</defs>
					<clipPath id="SVGID_30_">
						<use xlink:href="#SVGID_35_"  style="overflow:visible;"/>
					</clipPath>
					<g style="clip-path:url(#SVGID_30_);">
						<defs>
							<rect id="SVGID_37_" x="25.1" y="22.8" width="111.4" height="111.4"/>
						</defs>
						<clipPath id="SVGID_32_">
							<use xlink:href="#SVGID_37_"  style="overflow:visible;"/>
						</clipPath>
						<rect x="51" y="59" style="clip-path:url(#SVGID_32_);fill:#5AAAFA;" width="105" height="97.4"/>
					</g>
				</g>
			</g>
		</g>
	</g>
	<g>
		<defs>
			<polyline id="SVGID_39_" points="27.2,26.8 132.8,26.8 132.8,133.2 27.2,133.2 			"/>
		</defs>
		<clipPath id="SVGID_34_">
			<use xlink:href="#SVGID_39_"  style="overflow:visible;"/>
		</clipPath>
		<g style="clip-path:url(#SVGID_34_);enable-background:new    ;">
			<g>
				<defs>
					<rect id="SVGID_41_" x="25.1" y="50.6" width="46.4" height="55.7"/>
				</defs>
				<clipPath id="SVGID_36_">
					<use xlink:href="#SVGID_41_"  style="overflow:visible;"/>
				</clipPath>
				<g style="clip-path:url(#SVGID_36_);">
					<defs>
						<path id="SVGID_43_" d="M70.5,53.9H42L27.2,80L42,106h28.4c0,0,0,0,0,0c-0.4-0.3-0.7-0.5-1.1-0.8C61.7,99.5,56.8,90.3,56.8,80
							c0-10.3,4.9-19.5,12.4-25.2C69.6,54.5,70,54.2,70.5,53.9"/>
					</defs>
					<clipPath id="SVGID_38_">
						<use xlink:href="#SVGID_43_"  style="overflow:visible;"/>
					</clipPath>
					<g style="clip-path:url(#SVGID_38_);">
						<defs>
							<rect id="SVGID_45_" x="25.1" y="22.8" width="111.4" height="111.4"/>
						</defs>
						<clipPath id="SVGID_40_">
							<use xlink:href="#SVGID_45_"  style="overflow:visible;"/>
						</clipPath>
						<rect x="3.9" y="30.7" style="clip-path:url(#SVGID_40_);fill:#94A3AB;" width="89.7" height="98.5"/>
					</g>
				</g>
			</g>
		</g>
	</g>
</g>
</svg>
