<?xml version="1.0" encoding="utf-8"?>
<!-- Generator: Adobe Illustrator 19.1.0, SVG Export Plug-In . SVG Version: 6.00 Build 0)  -->
<svg version="1.1" id="Layer_1" xmlns="http://www.w3.org/2000/svg" xmlns:xlink="http://www.w3.org/1999/xlink" x="0px" y="0px"
	 viewBox="0 0 50 50" style="enable-background:new 0 0 50 50;" xml:space="preserve">
<circle style="fill:#5AAAFA;" cx="25" cy="25" r="25"/>
<path style="fill:none;stroke:#FFFFFF;" d="M34.6,25.5H14.9c-0.6,0-1-0.4-1-1v-2.4c0-0.6,0.4-1,1-1h19.7c0.6,0,1,0.4,1,1v2.4
	C35.6,25.1,35.2,25.5,34.6,25.5z"/>
<path style="fill:none;stroke:#FFFFFF;" d="M34.6,32.5H14.9c-0.6,0-1-0.4-1-1v-2.4c0-0.6,0.4-1,1-1h19.7c0.6,0,1,0.4,1,1v2.4
	C35.6,32,35.2,32.5,34.6,32.5z"/>
<g>
	<path style="fill:none;stroke:#FFFFFF;" d="M38.7,35.7H11.3c-0.6,0-1-0.4-1-1V15.3c0-0.6,0.4-1,1-1h27.3c0.6,0,1,0.4,1,1v19.3
		C39.7,35.2,39.2,35.7,38.7,35.7z"/>
	<circle style="fill:#FFFFFF;" cx="12.3" cy="16.3" r="0.5"/>
	<circle style="fill:#FFFFFF;" cx="13.8" cy="16.3" r="0.5"/>
	<circle style="fill:#FFFFFF;" cx="15.3" cy="16.3" r="0.5"/>
	<line style="fill:none;stroke:#FFFFFF;" x1="10.3" y1="18" x2="39.7" y2="18"/>
</g>
</svg>
