<?xml version="1.0" encoding="utf-8"?>
<!-- Generator: Adobe Illustrator 19.1.0, SVG Export Plug-In . SVG Version: 6.00 Build 0)  -->
<svg version="1.1" id="Layer_1" xmlns="http://www.w3.org/2000/svg" xmlns:xlink="http://www.w3.org/1999/xlink" x="0px" y="0px"
	 viewBox="0 0 50 50" style="enable-background:new 0 0 50 50;" xml:space="preserve">
<circle style="fill:#4178BE;" cx="25" cy="25" r="25"/>
<g>
	<path style="fill:none;stroke:#FFFFFF;stroke-width:0.5;" d="M38.7,35.7H11.3c-0.6,0-1-0.4-1-1V15.3c0-0.6,0.4-1,1-1h27.3
		c0.6,0,1,0.4,1,1v19.3C39.7,35.2,39.2,35.7,38.7,35.7z"/>
	<circle style="fill:#FFFFFF;" cx="12.3" cy="15.8" r="0.5"/>
	<circle style="fill:#FFFFFF;" cx="13.8" cy="15.8" r="0.5"/>
	<circle style="fill:#FFFFFF;" cx="15.3" cy="15.8" r="0.5"/>
	<line style="fill:none;stroke:#FFFFFF;stroke-width:0.5;" x1="10.3" y1="17" x2="39.7" y2="17"/>
	<path style="fill:none;stroke:#FFFFFF;stroke-width:0.5;" d="M36.5,25.1H20.6c-0.6,0-1-0.4-1-1v-3.7c0-0.6,0.4-1,1-1h15.9
		c0.6,0,1,0.4,1,1v3.7C37.5,24.7,37.1,25.1,36.5,25.1z"/>
	<path style="fill:none;stroke:#FFFFFF;stroke-width:0.5;" d="M36.5,32.3H20.6c-0.6,0-1-0.4-1-1v-3.7c0-0.6,0.4-1,1-1h15.9
		c0.6,0,1,0.4,1,1v3.7C37.5,31.8,37.1,32.3,36.5,32.3z"/>
	<line style="fill:none;stroke:#FFFFFF;stroke-width:0.5;" x1="17.4" y1="35.6" x2="17.4" y2="17"/>
</g>
</svg>
