<?xml version="1.0" encoding="utf-8"?>
<!-- Generator: Adobe Illustrator 19.1.0, SVG Export Plug-In . SVG Version: 6.00 Build 0)  -->
<svg version="1.1" id="Layer_1" xmlns="http://www.w3.org/2000/svg" xmlns:xlink="http://www.w3.org/1999/xlink" x="0px" y="0px"
	 viewBox="0 0 200 200" style="enable-background:new 0 0 200 200;" xml:space="preserve">
<path style="fill:#FFFFFF;stroke:#1D3649;stroke-width:2;" d="M176,148c0,3.3-2.7,6-6,6H36c-3.3,0-6-2.7-6-6V53c0-3.3,2.7-6,6-6h134
	c3.3,0,6,2.7,6,6V148z"/>
<path style="fill:#FFFFFF;stroke:#1D3649;stroke-width:2;" d="M166,105c0,1.7-1.3,3-3,3H80c-1.7,0-3-1.3-3-3V84c0-1.7,1.3-3,3-3h83
	c1.7,0,3,1.3,3,3V105z"/>
<path style="fill:#FFFFFF;stroke:#1D3649;stroke-width:2;" d="M166,139c0,1.7-1.3,3-3,3H80c-1.7,0-3-1.3-3-3v-21c0-1.7,1.3-3,3-3h83
	c1.7,0,3,1.3,3,3V139z"/>
<line style="fill:none;stroke:#1D3649;stroke-width:2;" x1="30" y1="61" x2="176" y2="61"/>
<line style="fill:none;stroke:#1D3649;stroke-width:2;" x1="66" y1="155" x2="66" y2="61"/>
<circle cx="37.7" cy="53.6" r="2.2"/>
<circle cx="44.9" cy="53.6" r="2.2"/>
<circle cx="52.1" cy="53.6" r="2.2"/>
</svg>
