<?xml version="1.0" encoding="utf-8"?>
<!-- Generator: Adobe Illustrator 19.1.0, SVG Export Plug-In . SVG Version: 6.00 Build 0)  -->
<svg version="1.1" id="Layer_1" xmlns="http://www.w3.org/2000/svg" xmlns:xlink="http://www.w3.org/1999/xlink" x="0px" y="0px"
	 viewBox="0 0 160 160" style="enable-background:new 0 0 160 160;" xml:space="preserve">
<g>
	<g>
		<path style="fill:#FFFFFF;stroke:#264A60;" d="M125.8,105.7H27.1c-3.3,0-6-2.7-6-6V33.5c0-3.3,2.7-6,6-6h98.7c3.3,0,6,2.7,6,6
			v66.1C131.8,103,129.1,105.7,125.8,105.7z"/>
		<line style="fill:none;stroke:#264A60;" x1="19.8" y1="117.8" x2="133.2" y2="117.8"/>
		<g>
			<line style="fill:none;stroke:#264A60;" x1="62.1" y1="118.2" x2="62.1" y2="106.1"/>
			<line style="fill:none;stroke:#264A60;" x1="90.9" y1="118.2" x2="90.9" y2="106.1"/>
		</g>
	</g>
	<circle style="fill:#C0E6FF;stroke:#264A60;" cx="50.1" cy="57" r="19"/>
	<g>
		<polyline style="fill:none;stroke:#264A60;" points="56.8,63.1 63.8,56.9 56.8,50.7 		"/>
		<polyline style="fill:none;stroke:#264A60;" points="43.9,63.1 36.9,56.9 43.9,50.7 		"/>
		<line style="fill:none;stroke:#264A60;" x1="52.3" y1="47.7" x2="48" y2="66.5"/>
	</g>
	<g>
		<path style="fill:#FFFFFF;stroke:#264A60;" d="M121.4,122.6c-3.9-2.6-5.6-5.2-5.6-5.2l1.1-17.3c0,0,5.3-0.1,6.5-7
			c0,0,2.8-9.4-2.2-7.9l0.3-0.3c0,0,0-9.7,0-13.8s-4.5-6.4-4.5-6.4c1.6-1.6,2-3.5,2-7s-4-5.5-5.8-4.1c-1.8,1.4-3.5,1.9-3.5,1.9
			s-14.7-0.8-25.1,2.6c-10.4,3.4-10.7,15.5-10.7,15.5l0.1,11.6c0,0-4.7-0.3-2.4,7.9c1.8,6.7,6.4,7,6.4,7l0.9,17.3
			c0,0-0.7,1.8-4.3,4.3"/>
		<path style="fill:#C0E6FF;stroke:#264A60;" d="M54.3,132.5c2.1-1.8,5-3.5,8.9-4.9c5.8-2.1,9.6-4.4,12-6.1"/>
		<path style="fill:#C0E6FF;stroke:#264A60;" d="M140.2,132.1c-2-1.7-4.6-3.3-8.3-4.6c-4.9-1.8-8-3.4-10.5-4.9"/>
		<path style="fill:#FFFFFF;stroke:#264A60;" d="M75.2,121.3c0,0,14.4,5.1,22.1,5.5c7.7,0.4,24.2-4.2,24.2-4.2"/>
	</g>
</g>
</svg>
