<?xml version="1.0" encoding="utf-8"?>
<!-- Generator: Adobe Illustrator 19.1.0, SVG Export Plug-In . SVG Version: 6.00 Build 0)  -->
<svg version="1.1" id="Layer_1" xmlns="http://www.w3.org/2000/svg" xmlns:xlink="http://www.w3.org/1999/xlink" x="0px" y="0px"
	 viewBox="0 0 160 160" style="enable-background:new 0 0 160 160;" xml:space="preserve">
<g>
	<g>
		<path style="fill:#FFFFFF;stroke:#264A60;" d="M125.8,105.7H27.1c-3.3,0-6-2.7-6-6V33.5c0-3.3,2.7-6,6-6h98.7c3.3,0,6,2.7,6,6
			v66.1C131.8,103,129.1,105.7,125.8,105.7z"/>
		<line style="fill:none;stroke:#264A60;" x1="19.8" y1="117.8" x2="133.2" y2="117.8"/>
		<g>
			<line style="fill:none;stroke:#264A60;" x1="62.1" y1="118.2" x2="62.1" y2="106.1"/>
			<line style="fill:none;stroke:#264A60;" x1="90.9" y1="118.2" x2="90.9" y2="106.1"/>
		</g>
	</g>
	<circle style="fill:#C0E6FF;stroke:#264A60;" cx="50.1" cy="57" r="14.6"/>
	<g>
		<polyline style="fill:none;stroke:#264A60;" points="55.2,61.7 60.7,56.9 55.2,52.1 		"/>
		<polyline style="fill:none;stroke:#264A60;" points="45.3,61.7 39.9,56.9 45.3,52.1 		"/>
		<line style="fill:none;stroke:#264A60;" x1="51.8" y1="49.8" x2="48.5" y2="64.3"/>
	</g>
</g>
<g>
	<path style="fill:#FFFFFF;stroke:#264A60;" d="M91.9,93.8c0,0,1.6,3.9,0,5.4c-1.6,1.5-1.6,1.9-1.6,1.9l6.8,8.4h6.7l1.4-4.9l1.9-3.7
		c0,0-4-1.7-2-9.5C107.2,83.7,91.9,93.8,91.9,93.8z"/>
	<path style="fill:#FFFFFF;stroke:#264A60;" d="M70.4,95.5c0,0,3.4-2.9,4.8-13.8c1.2-9.5-2.6-17.5,3.7-31.3c1.8-4,5.3-7,9.5-8.1
		c2.5-0.7,5.7-1.3,10-1.5c15.2-1,20.1,8.9,20.1,8.9s3.8,5,3.2,24.6c-0.6,18.2,5.1,21.7,5.1,21.7s-10.8,3.4-28.4,2.4
		C79.4,97.2,70.4,95.5,70.4,95.5z"/>
	<path style="fill:#FFFFFF;stroke:#264A60;" d="M98.5,103.5l-8.1-3.3c0,0-13.5,5.2-14.9,6.6c-1.4,1.4-10.8,28.7-10.8,28.7h68.1
		c0,0-9.3-26.9-10.8-28.3c-1.4-1.4-14.9-7-14.9-7l-8.4,3.3H98.5z"/>
</g>
</svg>
