<?xml version="1.0" encoding="utf-8"?>
<!-- Generator: Adobe Illustrator 19.1.0, SVG Export Plug-In . SVG Version: 6.00 Build 0)  -->
<svg version="1.1" id="Layer_1" xmlns="http://www.w3.org/2000/svg" xmlns:xlink="http://www.w3.org/1999/xlink" x="0px" y="0px"
	 viewBox="0 0 160 160" style="enable-background:new 0 0 160 160;" xml:space="preserve">
<g>
	<defs>
		<rect id="SVGID_1_" x="1286.3" y="-285.4" width="191.4" height="224.8"/>
	</defs>
	<clipPath id="SVGID_2_">
		<use xlink:href="#SVGID_1_"  style="overflow:visible;"/>
	</clipPath>
	<g style="clip-path:url(#SVGID_2_);">
		<defs>
			<rect id="SVGID_3_" x="62.6" y="-489.1" width="1440" height="857"/>
		</defs>
		<clipPath id="SVGID_4_">
			<use xlink:href="#SVGID_3_"  style="overflow:visible;"/>
		</clipPath>
	</g>
</g>
<g>
	<path style="fill:none;stroke:#264A60;" d="M101.9,88.2c-3.6-2.4-5.1-4.8-5.1-4.8l1-15.9c0,0,4.9-0.1,6-6.4c0,0,2.3-8.7-2.3-7.3
		l0-0.3c0,0,0-9,0-12.7c0-3.8-3.8-5.9-3.8-5.9c1.5-1.5,2-3.2,2-6.5s-3.6-5-5.3-3.8c-1.6,1.3-3.1,1.8-3.1,1.8s-13.5-0.8-23.1,2.4
		s-9.8,14.3-9.8,14.3l0.1,10.7c0,0-4.3-0.2-2.2,7.3c1.7,6.2,5.9,6.4,5.9,6.4L63,83.4c0,0-0.7,1.7-3.9,4"/>
	<path style="fill:none;stroke:#264A60;" d="M119.2,97c-1.8-1.5-4.3-3-7.6-4.2c-4.5-1.6-7.4-3.1-9.6-4.6l-21.5,8.6l-21.1-9.7
		c-2.2,1.6-5.7,3.7-11.1,5.6c-3.5,1.3-6.2,2.9-8.2,4.5"/>
	<path style="fill:none;stroke:#264A60;" d="M122.5,34.8c11,11,17.7,26.1,17.7,42.8c0,17.5-7.4,33.2-19.3,44.3"/>
	<path style="fill:none;stroke:#264A60;" d="M37.5,34.8c-11,11-17.7,26.1-17.7,42.8c0,17.5,7.4,33.2,19.3,44.3"/>
	<polyline style="fill:none;stroke:#264A60;" points="88.1,126.7 96.7,119 88.1,111.4 	"/>
	<polyline style="fill:none;stroke:#264A60;" points="72.3,126.7 63.6,119 72.3,111.4 	"/>
	<line style="fill:none;stroke:#264A60;" x1="82.5" y1="107.7" x2="77.3" y2="130.8"/>
</g>
</svg>
