<?xml version="1.0" encoding="utf-8"?>
<!-- Generator: Adobe Illustrator 19.1.0, SVG Export Plug-In . SVG Version: 6.00 Build 0)  -->
<svg version="1.1" id="Layer_1" xmlns="http://www.w3.org/2000/svg" xmlns:xlink="http://www.w3.org/1999/xlink" x="0px" y="0px"
	 viewBox="0 0 160 160" style="enable-background:new 0 0 160 160;" xml:space="preserve">
<g>
	<defs>
		<rect id="SVGID_1_" x="1059.3" y="-285.4" width="191.4" height="224.8"/>
	</defs>
	<clipPath id="SVGID_2_">
		<use xlink:href="#SVGID_1_"  style="overflow:visible;"/>
	</clipPath>
	<g style="clip-path:url(#SVGID_2_);">
		<defs>
			<rect id="SVGID_3_" x="-164.4" y="-489.1" width="1440" height="857"/>
		</defs>
		<clipPath id="SVGID_4_">
			<use xlink:href="#SVGID_3_"  style="overflow:visible;"/>
		</clipPath>
	</g>
</g>
<g>
	<g>
		<g transform="translate(0,-952.36218)">
			<path style="fill:none;stroke:#264A60;stroke-miterlimit:10;" d="M77,997.6c-0.4,0-0.7,0.4-0.7,0.6l-1.4,7.5
				c-3.1,1-5.9,2.6-8.3,4.7l-7.1-2.7c-0.3-0.1-0.7,0-0.9,0.3l-6.2,10.2c-0.2,0.3-0.1,0.7,0.1,1l5.7,5c-0.4,1.8-0.7,3.7-0.7,5.7
				c0,2,0.3,3.8,0.7,5.7l-5.7,5c-0.3,0.2-0.3,0.6-0.1,0.9l6.2,10.2c0.2,0.3,0.6,0.4,0.9,0.3l7.1-2.7c2.4,2,5.2,3.6,8.3,4.7l1.4,7.5
				c0.1,0.3,0.4,0.7,0.7,0.7h12c0.4,0,0.7-0.3,0.7-0.7l1.4-7.5c3.1-1,5.9-2.6,8.3-4.7l7.1,2.7c0.3,0.1,0.7,0,0.9-0.3l6.2-10.2
				c0.2-0.3,0.1-0.7-0.1-0.9l-5.7-5.1c0.4-1.8,0.7-3.7,0.7-5.6c0-1.9-0.3-3.8-0.7-5.6l5.7-5.1c0.3-0.2,0.3-0.6,0.1-0.9l-6.2-10.2
				c-0.2-0.3-0.6-0.4-0.9-0.3l-7.1,2.7c-2.4-2-5.2-3.6-8.2-4.7l-1.4-7.5c-0.1-0.3-0.4-0.6-0.7-0.6H77L77,997.6z"/>
		</g>
		<circle style="fill:#C0E6FF;stroke:#264A60;" cx="83.1" cy="77.3" r="12.7"/>
	</g>
	<g>
		<g>
			<path style="fill:none;stroke:#264A60;" d="M131.7,57.7c-8.2-20.5-28.9-34.3-52.2-32.8c-4.9,0.3-9.5,1.3-13.9,2.8"/>
			<polyline style="fill:none;stroke:#264A60;stroke-linecap:round;" points="118.7,52.3 132.1,58.5 134.2,43.1 			"/>
			<path style="fill:none;stroke:#264A60;stroke-linecap:round;" d="M53.5,33.8c2.8-1.9,5.8-3.5,8.9-4.9"/>
		</g>
		<g>
			<path style="fill:none;stroke:#264A60;" d="M35.9,53.8c-10.3,19.5-7.5,44.3,8.8,61c3.4,3.5,7.2,6.4,11.2,8.8"/>
			<polyline style="fill:none;stroke:#264A60;stroke-linecap:round;" points="40.2,67.1 36.2,52.9 23.1,61.3 			"/>
			<path style="fill:none;stroke:#264A60;stroke-linecap:round;" d="M68.3,128.8c-3.3-0.9-6.4-2.1-9.5-3.6"/>
		</g>
		<g>
			<path style="fill:none;stroke:#264A60;" d="M89.4,130.6c21.1-2,39.5-16.7,45.5-37.9c0.3-0.9,0.5-1.8,0.7-2.8
				c0.1-0.4,0.2-0.8,0.3-1.3c0.9-4.3,1.2-8.7,1-12.9"/>
			<polyline style="fill:none;stroke:#264A60;stroke-linecap:round;" points="98.2,119.7 88.5,130.8 102.7,137.2 			"/>
		</g>
	</g>
</g>
</svg>
