<svg xmlns="http://www.w3.org/2000/svg" viewBox="0 0 376 278"><defs><style>.a{fill:#fff;}.a,.b{stroke:#1d3749;}.a,.b,.d,.e{stroke-width:8px;}.b,.e{fill:none;}.c{fill:#010101;}.d{fill:#b3dfd8;}.d,.e{stroke:#5f93ce;}</style></defs><title>Asset 1</title><rect class="a" x="4" y="4" width="368" height="270" rx="22.1" ry="22.1"/><line class="b" x1="4.5" y1="39" x2="371.5" y2="39"/><circle class="c" cx="30.6" cy="22.4" r="5.6"/><circle class="c" cx="48.8" cy="22.4" r="5.6"/><circle class="c" cx="67" cy="22.4" r="5.6"/><path class="b" d="M242,145.5V97c0-17.8,13.1-31.9,30.9-31.9S304,81.5,304,98.7v46.8"/><rect class="a" x="220" y="119" width="104" height="104" rx="18.7" ry="18.7"/><path class="d" d="M283.6,164.1a11.1,11.1,0,1,0-16.7,9.6V190h11.2V173.7A11.1,11.1,0,0,0,283.6,164.1Z"/><line class="e" x1="160.5" y1="136" x2="49.5" y2="136"/><path class="a" d="M78.6,146.6a11.6,11.6,0,1,0-9.5-9.5A11.6,11.6,0,0,0,78.6,146.6Z"/><line class="e" x1="160.5" y1="171.8" x2="49.5" y2="171.8"/><path class="a" d="M129.9,182.7a11.6,11.6,0,1,0-9.5-9.5A11.6,11.6,0,0,0,129.9,182.7Z"/><line class="e" x1="160.5" y1="208.1" x2="49.5" y2="208.1"/><path class="a" d="M78.6,218.8a11.6,11.6,0,1,0-9.5-9.5A11.6,11.6,0,0,0,78.6,218.8Z"/></svg>