<?xml version="1.0" encoding="utf-8"?>
<!-- Generator: Adobe Illustrator 19.1.0, SVG Export Plug-In . SVG Version: 6.00 Build 0)  -->
<svg version="1.1" id="Layer_1" xmlns="http://www.w3.org/2000/svg" xmlns:xlink="http://www.w3.org/1999/xlink" x="0px" y="0px"
	 viewBox="0 0 200 200" style="enable-background:new 0 0 200 200;" xml:space="preserve">
<line style="fill:none;stroke:#1D3649;stroke-width:2;" x1="27" y1="61" x2="173" y2="61"/>
<path style="fill:#FFFFFF;stroke:#1D3649;stroke-width:2;" d="M173,148c0,3.3-2.7,6-6,6H33c-3.3,0-6-2.7-6-6V53c0-3.3,2.7-6,6-6h134
	c3.3,0,6,2.7,6,6V148z"/>
<circle cx="34.7" cy="53.6" r="2.2"/>
<circle cx="41.9" cy="53.6" r="2.2"/>
<circle cx="49.1" cy="53.6" r="2.2"/>
<line style="fill:none;stroke:#1D3649;stroke-width:2;" x1="27" y1="61" x2="173" y2="61"/>
<g>
	<g transform="translate(0,-952.36218)">
		<path style="fill:none;stroke:#264A60;stroke-miterlimit:10;" d="M94.7,1030c-0.4,0-0.6,0.3-0.6,0.5l-1.2,6.6
			c-2.7,0.9-5.2,2.3-7.3,4.1l-6.2-2.4c-0.3-0.1-0.6,0-0.8,0.3l-5.5,9c-0.2,0.3-0.1,0.6,0.1,0.8l5,4.4c-0.4,1.6-0.6,3.3-0.6,5
			c0,1.7,0.2,3.4,0.6,5l-5,4.4c-0.2,0.2-0.3,0.6-0.1,0.8l5.5,9c0.2,0.3,0.5,0.4,0.8,0.3l6.2-2.4c2.1,1.8,4.6,3.2,7.3,4.1l1.2,6.6
			c0,0.3,0.3,0.6,0.6,0.6h10.5c0.3,0,0.6-0.3,0.7-0.6l1.2-6.6c2.7-0.9,5.2-2.3,7.3-4.1l6.2,2.4c0.3,0.1,0.6,0,0.8-0.3l5.5-9
			c0.2-0.3,0.1-0.6-0.1-0.8l-5-4.5c0.4-1.6,0.6-3.2,0.6-4.9c0-1.7-0.2-3.3-0.6-4.9l5-4.5c0.2-0.2,0.3-0.6,0.1-0.8l-5.5-9
			c-0.2-0.3-0.5-0.4-0.8-0.3l-6.3,2.4c-2.1-1.8-4.6-3.2-7.3-4.1l-1.2-6.6c-0.1-0.3-0.4-0.5-0.7-0.5H94.7L94.7,1030z"/>
	</g>
	<circle style="fill:#C0E6FF;stroke:#264A60;" cx="100.2" cy="106" r="11.2"/>
</g>
</svg>
