<?xml version="1.0" encoding="utf-8"?>
<!-- Generator: Adobe Illustrator 19.1.0, SVG Export Plug-In . SVG Version: 6.00 Build 0)  -->
<svg version="1.1" id="Layer_1" xmlns="http://www.w3.org/2000/svg" xmlns:xlink="http://www.w3.org/1999/xlink" x="0px" y="0px"
	 viewBox="0 0 50 50" style="enable-background:new 0 0 50 50;" xml:space="preserve">
<circle style="fill:#5AAAFA;" cx="25" cy="25" r="25"/>
<path style="fill:none;stroke:#FFFFFF;" d="M38.7,35.7H11.3c-0.6,0-1-0.4-1-1V15.3c0-0.6,0.4-1,1-1h27.3c0.6,0,1,0.4,1,1v19.3
	C39.7,35.2,39.2,35.7,38.7,35.7z"/>
<circle style="fill:#FFFFFF;" cx="12.3" cy="16.3" r="0.5"/>
<circle style="fill:#FFFFFF;" cx="13.8" cy="16.3" r="0.5"/>
<circle style="fill:#FFFFFF;" cx="15.3" cy="16.3" r="0.5"/>
<line style="fill:none;stroke:#FFFFFF;" x1="10.3" y1="18" x2="39.7" y2="18"/>
<g>
	<g transform="translate(0,-952.36218)">
		<path style="fill:none;stroke:#FFFFFF;stroke-miterlimit:10;" d="M23.9,973.3c-0.1,0-0.1,0.1-0.1,0.1l-0.2,1.3
			c-0.5,0.2-1,0.5-1.5,0.8l-1.3-0.5c-0.1,0-0.1,0-0.2,0.1l-1.1,1.8c0,0.1,0,0.1,0,0.2l1,0.9c-0.1,0.3-0.1,0.7-0.1,1
			c0,0.3,0,0.7,0.1,1l-1,0.9c0,0-0.1,0.1,0,0.2l1.1,1.8c0,0.1,0.1,0.1,0.2,0.1l1.3-0.5c0.4,0.4,0.9,0.7,1.5,0.8l0.2,1.3
			c0,0.1,0.1,0.1,0.1,0.1h2.1c0.1,0,0.1-0.1,0.1-0.1l0.2-1.3c0.5-0.2,1-0.5,1.5-0.8l1.3,0.5c0.1,0,0.1,0,0.2-0.1l1.1-1.8
			c0-0.1,0-0.1,0-0.2l-1-0.9c0.1-0.3,0.1-0.7,0.1-1c0-0.3,0-0.7-0.1-1l1-0.9c0,0,0.1-0.1,0-0.2l-1.1-1.8c0-0.1-0.1-0.1-0.2-0.1
			l-1.3,0.5c-0.4-0.4-0.9-0.7-1.5-0.8l-0.2-1.3c0-0.1-0.1-0.1-0.1-0.1H23.9L23.9,973.3z"/>
	</g>
	<circle style="fill:#FFFFFF;stroke:#FFFFFF;" cx="25" cy="26.7" r="2.3"/>
</g>
</svg>
