<?xml version="1.0" encoding="utf-8"?>
<!-- Generator: Adobe Illustrator 19.1.0, SVG Export Plug-In . SVG Version: 6.00 Build 0)  -->
<svg version="1.1" id="Layer_1" xmlns="http://www.w3.org/2000/svg" xmlns:xlink="http://www.w3.org/1999/xlink" x="0px" y="0px"
	 viewBox="0 0 50 50" style="enable-background:new 0 0 50 50;" xml:space="preserve">
<circle style="fill:#5AAAFA;" cx="25" cy="25" r="25"/>
<path style="fill:none;stroke:#FFFFFF;" d="M37.7,14.8H27.1c-0.6,0-1-0.4-1-1v-3c0-0.6,0.4-1,1-1h10.6c0.6,0,1,0.4,1,1v3
	C38.7,14.3,38.2,14.8,37.7,14.8z"/>
<path style="fill:none;stroke:#FFFFFF;" d="M37.7,22.2H27.1c-0.6,0-1-0.4-1-1v-3c0-0.6,0.4-1,1-1h10.6c0.6,0,1,0.4,1,1v3
	C38.7,21.8,38.2,22.2,37.7,22.2z"/>
<path style="fill:none;stroke:#FFFFFF;" d="M37.7,29.6H27.1c-0.6,0-1-0.4-1-1v-3c0-0.6,0.4-1,1-1h10.6c0.6,0,1,0.4,1,1v3
	C38.7,29.2,38.2,29.6,37.7,29.6z"/>
<circle style="fill:#FFFFFF;stroke:#FFFFFF;stroke-width:0.5;" cx="36.2" cy="12.4" r="0.4"/>
<circle style="fill:#FFFFFF;stroke:#FFFFFF;stroke-width:0.5;" cx="36.2" cy="19.7" r="0.4"/>
<circle style="fill:#FFFFFF;stroke:#FFFFFF;stroke-width:0.5;" cx="36.2" cy="27.2" r="0.4"/>
<path style="fill:none;stroke:#FFFFFF;" d="M21.6,25H11c-0.6,0-1-0.4-1-1v-3c0-0.6,0.4-1,1-1h10.6c0.6,0,1,0.4,1,1v3
	C22.6,24.5,22.1,25,21.6,25z"/>
<path style="fill:none;stroke:#FFFFFF;" d="M21.6,32.4H11c-0.6,0-1-0.4-1-1v-3c0-0.6,0.4-1,1-1h10.6c0.6,0,1,0.4,1,1v3
	C22.6,31.9,22.1,32.4,21.6,32.4z"/>
<path style="fill:none;stroke:#FFFFFF;" d="M21.6,39.8H11c-0.6,0-1-0.4-1-1v-3c0-0.6,0.4-1,1-1h10.6c0.6,0,1,0.4,1,1v3
	C22.6,39.4,22.1,39.8,21.6,39.8z"/>
<circle style="fill:#FFFFFF;stroke:#FFFFFF;stroke-width:0.5;" cx="20.1" cy="22.6" r="0.4"/>
<circle style="fill:#FFFFFF;stroke:#FFFFFF;stroke-width:0.5;" cx="20.1" cy="29.9" r="0.4"/>
<circle style="fill:#FFFFFF;stroke:#FFFFFF;stroke-width:0.5;" cx="20.1" cy="37.4" r="0.4"/>
<polyline style="fill:none;stroke:#FFFFFF;stroke-linecap:round;stroke-linejoin:round;" points="24.6,37.7 32.2,37.7 32.2,32 "/>
</svg>
