<?xml version="1.0" encoding="utf-8"?>
<!-- Generator: Adobe Illustrator 19.1.0, SVG Export Plug-In . SVG Version: 6.00 Build 0)  -->
<svg version="1.1" id="Layer_1" xmlns="http://www.w3.org/2000/svg" xmlns:xlink="http://www.w3.org/1999/xlink" x="0px" y="0px"
	 viewBox="0 0 200 200" style="enable-background:new 0 0 200 200;" xml:space="preserve">
<path style="fill:none;stroke:#264A60;stroke-width:2;" d="M152.2,67.6h-49.6c-0.6,0-1-0.4-1-1V48c0-0.6,0.4-1,1-1h49.6
	c0.6,0,1,0.4,1,1v18.6C153.2,67.2,152.8,67.6,152.2,67.6z"/>
<path style="fill:none;stroke:#264A60;stroke-width:2;" d="M152.2,94h-49.6c-0.6,0-1-0.4-1-1V74.4c0-0.6,0.4-1,1-1h49.6
	c0.6,0,1,0.4,1,1V93C153.2,93.6,152.8,94,152.2,94z"/>
<path style="fill:none;stroke:#264A60;stroke-width:2;" d="M152.2,120.4h-49.6c-0.6,0-1-0.4-1-1v-18.6c0-0.6,0.4-1,1-1h49.6
	c0.6,0,1,0.4,1,1v18.6C153.2,120,152.8,120.4,152.2,120.4z"/>
<rect x="111.4" y="56.8" style="fill:#7CC7FF;" width="22.9" height="2.3"/>
<circle style="fill:#7CC7FF;stroke:#7CC7FF;stroke-width:2;" cx="143.1" cy="57.8" r="1.7"/>
<rect x="111.4" y="83.1" style="fill:#7CC7FF;" width="22.9" height="2.3"/>
<circle style="fill:#7CC7FF;stroke:#7CC7FF;stroke-width:2;" cx="143.1" cy="83.8" r="1.7"/>
<rect x="111.4" y="109.5" style="fill:#7CC7FF;" width="22.9" height="2.3"/>
<circle style="fill:#7CC7FF;stroke:#7CC7FF;stroke-width:2;" cx="143.1" cy="110.3" r="1.7"/>
<path style="fill:none;stroke:#264A60;stroke-width:2;" d="M83.4,111.2H33.8c-0.6,0-1-0.4-1-1V91.6c0-0.6,0.4-1,1-1h49.6
	c0.6,0,1,0.4,1,1v18.6C84.4,110.8,83.9,111.2,83.4,111.2z"/>
<path style="fill:none;stroke:#264A60;stroke-width:2;" d="M83.4,137.6H33.8c-0.6,0-1-0.4-1-1V118c0-0.6,0.4-1,1-1h49.6
	c0.6,0,1,0.4,1,1v18.6C84.4,137.2,83.9,137.6,83.4,137.6z"/>
<path style="fill:none;stroke:#264A60;stroke-width:2;" d="M83.4,164H33.8c-0.6,0-1-0.4-1-1v-18.6c0-0.6,0.4-1,1-1h49.6
	c0.6,0,1,0.4,1,1V163C84.4,163.6,83.9,164,83.4,164z"/>
<rect x="41.4" y="100.3" style="fill:#264A60;" width="24.1" height="2.3"/>
<circle style="fill:#264A60;stroke:#264A60;stroke-width:2;" cx="74.1" cy="101.2" r="1.7"/>
<rect x="41.4" y="125.6" style="fill:#264A60;" width="24.1" height="2.3"/>
<circle style="fill:#264A60;stroke:#264A60;stroke-width:2;" cx="74.1" cy="127.1" r="1.7"/>
<rect x="41.4" y="153.1" style="fill:#264A60;" width="24.1" height="2.3"/>
<circle style="fill:#264A60;stroke:#264A60;stroke-width:2;" cx="74.1" cy="153.7" r="1.7"/>
<polyline style="fill:none;stroke:#264A60;stroke-width:2;stroke-linecap:round;stroke-linejoin:round;" points="95.3,153.7 
	126.8,153.7 126.8,130.2 "/>
</svg>
