<?xml version="1.0" encoding="utf-8"?>
<!-- Generator: Adobe Illustrator 19.1.0, SVG Export Plug-In . SVG Version: 6.00 Build 0)  -->
<svg version="1.1" id="Layer_1" xmlns="http://www.w3.org/2000/svg" xmlns:xlink="http://www.w3.org/1999/xlink" x="0px" y="0px"
	 viewBox="0 0 50 50" style="enable-background:new 0 0 50 50;" xml:space="preserve">
<circle style="fill:#4178BE;" cx="25" cy="25" r="25"/>
<g>
	<path style="fill:none;stroke:#FFFFFF;stroke-width:0.5;" d="M38.7,15.8H28.1c-0.6,0-1-0.4-1-1v-3c0-0.6,0.4-1,1-1h10.6
		c0.6,0,1,0.4,1,1v3C39.7,15.3,39.2,15.8,38.7,15.8z"/>
	<path style="fill:none;stroke:#FFFFFF;stroke-width:0.5;" d="M38.7,22.2H28.1c-0.6,0-1-0.4-1-1v-3c0-0.6,0.4-1,1-1h10.6
		c0.6,0,1,0.4,1,1v3C39.7,21.8,39.2,22.2,38.7,22.2z"/>
	<path style="fill:none;stroke:#FFFFFF;stroke-width:0.5;" d="M38.7,28.6H28.1c-0.6,0-1-0.4-1-1v-3c0-0.6,0.4-1,1-1h10.6
		c0.6,0,1,0.4,1,1v3C39.7,28.2,39.2,28.6,38.7,28.6z"/>
	<rect x="29.5" y="13.1" style="fill:#FFFFFF;" width="5.6" height="0.6"/>
	<circle style="fill:#FFFFFF;" cx="37.2" cy="13.4" r="0.4"/>
	<rect x="29.5" y="19.6" style="fill:#FFFFFF;" width="5.6" height="0.6"/>
	<circle style="fill:#FFFFFF;" cx="37.2" cy="19.7" r="0.4"/>
	<rect x="29.5" y="26" style="fill:#FFFFFF;" width="5.6" height="0.6"/>
	<circle style="fill:#FFFFFF;" cx="37.2" cy="26.2" r="0.4"/>
	<path style="fill:none;stroke:#FFFFFF;stroke-width:0.5;" d="M21.9,26.4H11.3c-0.6,0-1-0.4-1-1v-3c0-0.6,0.4-1,1-1h10.6
		c0.6,0,1,0.4,1,1v3C22.9,25.9,22.5,26.4,21.9,26.4z"/>
	<path style="fill:none;stroke:#FFFFFF;stroke-width:0.5;" d="M21.9,32.8H11.3c-0.6,0-1-0.4-1-1v-3c0-0.6,0.4-1,1-1h10.6
		c0.6,0,1,0.4,1,1v3C22.9,32.4,22.5,32.8,21.9,32.8z"/>
	<path style="fill:none;stroke:#FFFFFF;stroke-width:0.5;" d="M21.9,39.2H11.3c-0.6,0-1-0.4-1-1v-3c0-0.6,0.4-1,1-1h10.6
		c0.6,0,1,0.4,1,1v3C22.9,38.8,22.5,39.2,21.9,39.2z"/>
	<rect x="12.4" y="23.7" style="fill:#FFFFFF;" width="5.9" height="0.6"/>
	<circle style="fill:#FFFFFF;" cx="20.4" cy="23.9" r="0.4"/>
	<rect x="12.4" y="29.9" style="fill:#FFFFFF;" width="5.9" height="0.6"/>
	<circle style="fill:#FFFFFF;" cx="20.4" cy="30.3" r="0.4"/>
	<rect x="12.4" y="36.6" style="fill:#FFFFFF;" width="5.9" height="0.6"/>
	<circle style="fill:#FFFFFF;" cx="20.4" cy="36.7" r="0.4"/>
	<polyline style="fill:none;stroke:#FFFFFF;stroke-width:0.5;stroke-linecap:round;stroke-linejoin:round;" points="25.6,36.7 
		33.2,36.7 33.2,31 	"/>
</g>
</svg>
