<?xml version="1.0" standalone="no"?>
<!DOCTYPE svg PUBLIC "-//W3C//DTD SVG 20010904//EN"
 "http://www.w3.org/TR/2001/REC-SVG-20010904/DTD/svg10.dtd">
<svg version="1.0" xmlns="http://www.w3.org/2000/svg"
 width="300.000000pt" height="255.000000pt" viewBox="0 0 300.000000 255.000000"
 preserveAspectRatio="xMidYMid meet">
<metadata>
Created by potrace 1.10, written by Peter Selinger 2001-2011
</metadata>
<g transform="translate(0.000000,255.000000) scale(0.050000,-0.050000)"
fill="#5596e6" stroke="none">
<path d="M1020 2380 c0 -1133 4 -2060 8 -2060 5 0 218 211 474 470 l465 470
1616 0 1617 0 0 1590 0 1590 -2090 0 -2090 0 0 -2060z m3980 470 l0 -1430
-1567 0 -1568 0 -322 -320 -323 -320 0 1750 0 1750 1890 0 1890 0 0 -1430z"/>
<path d="M1860 3430 l0 -90 1250 0 1250 0 0 90 0 90 -1250 0 -1250 0 0 -90z"/>
<path d="M1860 2890 l0 -90 1250 0 1250 0 0 90 0 90 -1250 0 -1250 0 0 -90z"/>
<path d="M1860 2340 l0 -80 1250 0 1250 0 0 80 0 80 -1250 0 -1250 0 0 -80z"/>
</g>
</svg>
